<svg xmlns="http://www.w3.org/2000/svg" xmlns:xlink="http://www.w3.org/1999/xlink" width="500" zoomAndPan="magnify" viewBox="0 0 375 374.999991" height="500" preserveAspectRatio="xMidYMid meet" version="1.0"><defs><clipPath id="5e47ca631f"><path d="M 318.699219 225.347656 L 347.351562 225.347656 L 347.351562 246.867188 L 318.699219 246.867188 Z M 318.699219 225.347656 " clip-rule="nonzero"/></clipPath><clipPath id="fdc28b503d"><path d="M 278.296875 288.523438 L 288.371094 288.523438 L 288.371094 300.761719 L 278.296875 300.761719 Z M 278.296875 288.523438 " clip-rule="nonzero"/></clipPath></defs><rect x="-37.5" width="450" fill="#ffffff" y="-37.499999" height="449.999989" fill-opacity="1"/><rect x="-37.5" width="450" fill="#fffaef" y="-37.499999" height="449.999989" fill-opacity="1"/><path fill="#615352" d="M 144.382812 220.59375 C 144.382812 220.59375 143.714844 230.085938 139.554688 235.003906 C 135.394531 239.917969 129.96875 245.339844 135.054688 249.746094 C 140.140625 254.15625 148.722656 244.433594 151.175781 240.878906 C 153.320312 237.773438 156.757812 230.59375 156.757812 228.222656 C 156.757812 225.851562 144.382812 220.59375 144.382812 220.59375 " fill-opacity="1" fill-rule="nonzero"/><path fill="#615352" d="M 165.070312 232.96875 C 165.070312 232.96875 163.542969 240.257812 161.167969 244.324219 C 158.792969 248.390625 152.691406 254.832031 159.132812 258.558594 C 165.578125 262.289062 172.191406 252.121094 173.714844 248.898438 C 175.242188 245.679688 180.160156 235.734375 180.160156 235.734375 L 165.070312 232.96875 " fill-opacity="1" fill-rule="nonzero"/><path fill="#433331" d="M 124.878906 252.375 C 125.152344 250.488281 125.472656 247.96875 128.527344 245.679688 C 131.578125 243.390625 135.140625 243.050781 135.054688 244.746094 C 134.96875 246.441406 130.730469 246.78125 128.613281 248.390625 C 126.652344 249.878906 124.796875 252.96875 124.878906 252.375 " fill-opacity="1" fill-rule="nonzero"/><path fill="#433331" d="M 129.925781 257.878906 C 129.601562 256 129.136719 253.503906 131.339844 250.390625 C 133.542969 247.273438 136.828125 245.859375 137.265625 247.5 C 137.707031 249.136719 133.777344 250.761719 132.253906 252.945312 C 130.847656 254.960938 130.027344 258.46875 129.925781 257.878906 " fill-opacity="1" fill-rule="nonzero"/><path fill="#433331" d="M 138.695312 259.613281 C 137.742188 258.132812 136.441406 256.175781 137.097656 252.832031 C 137.75 249.488281 139.914062 247.226562 140.878906 248.464844 C 141.839844 249.707031 139.222656 252.355469 138.78125 254.691406 C 138.375 256.851562 138.996094 260.078125 138.695312 259.613281 " fill-opacity="1" fill-rule="nonzero"/><path fill="#433331" d="M 151.625 264.59375 C 151.277344 262.71875 150.777344 260.230469 152.941406 257.085938 C 155.101562 253.941406 158.367188 252.484375 158.828125 254.117188 C 159.289062 255.753906 155.378906 257.425781 153.886719 259.628906 C 152.507812 261.664062 151.730469 265.183594 151.625 264.59375 " fill-opacity="1" fill-rule="nonzero"/><path fill="#433331" d="M 157.757812 268.089844 C 156.957031 266.359375 155.863281 264.066406 157.179688 260.488281 C 158.5 256.914062 161.304688 254.695312 162.15625 256.164062 C 163.003906 257.632812 159.628906 260.21875 158.726562 262.71875 C 157.890625 265.03125 158.007812 268.632812 157.757812 268.089844 " fill-opacity="1" fill-rule="nonzero"/><path fill="#433331" d="M 165.148438 267.859375 C 164.027344 266.5 162.507812 264.707031 162.765625 261.3125 C 163.027344 257.914062 164.914062 255.414062 166.015625 256.535156 C 167.117188 257.652344 164.828125 260.589844 164.660156 262.960938 C 164.507812 265.152344 165.5 268.285156 165.148438 267.859375 " fill-opacity="1" fill-rule="nonzero"/><path fill="#615352" d="M 243.574219 232.96875 C 243.574219 232.96875 242.390625 242.589844 240.695312 246.167969 C 239 249.746094 232.894531 256.28125 239.675781 259.371094 C 246.460938 262.457031 252.769531 252.777344 253.582031 250.871094 C 256.246094 244.609375 259.007812 237.542969 259.007812 237.542969 L 243.574219 232.96875 " fill-opacity="1" fill-rule="nonzero"/><path fill="#615352" d="M 270.707031 237.035156 C 270.707031 237.035156 270.199219 245.511719 269.011719 248.050781 C 267.828125 250.59375 262.230469 256.808594 269.011719 259.972656 C 275.792969 263.136719 281.582031 252.628906 283.257812 248.503906 C 286.816406 239.746094 286.816406 232.96875 286.816406 232.96875 L 270.707031 237.035156 " fill-opacity="1" fill-rule="nonzero"/><path fill="#433331" d="M 232.503906 264.671875 C 232.15625 262.800781 231.660156 260.308594 233.820312 257.164062 C 235.980469 254.023438 239.246094 252.566406 239.707031 254.199219 C 240.167969 255.832031 236.261719 257.503906 234.765625 259.707031 C 233.386719 261.742188 232.613281 265.261719 232.503906 264.671875 " fill-opacity="1" fill-rule="nonzero"/><path fill="#433331" d="M 238.960938 268.171875 C 238.160156 266.441406 237.0625 264.148438 238.382812 260.570312 C 239.703125 256.992188 242.507812 254.773438 243.355469 256.242188 C 244.207031 257.710938 240.832031 260.296875 239.925781 262.800781 C 239.089844 265.113281 239.210938 268.714844 238.960938 268.171875 " fill-opacity="1" fill-rule="nonzero"/><path fill="#433331" d="M 246.1875 268.261719 C 245.070312 266.902344 243.550781 265.109375 243.808594 261.714844 C 244.070312 258.316406 245.957031 255.816406 247.054688 256.9375 C 248.15625 258.058594 245.867188 260.992188 245.699219 263.363281 C 245.546875 265.554688 246.542969 268.6875 246.1875 268.261719 " fill-opacity="1" fill-rule="nonzero"/><path fill="#433331" d="M 260.894531 264.996094 C 260.546875 263.121094 260.046875 260.628906 262.207031 257.488281 C 264.371094 254.347656 267.636719 252.886719 268.097656 254.519531 C 268.558594 256.15625 264.648438 257.828125 263.15625 260.03125 C 261.777344 262.066406 261 265.585938 260.894531 264.996094 " fill-opacity="1" fill-rule="nonzero"/><path fill="#433331" d="M 267.027344 268.652344 C 266.226562 266.921875 265.128906 264.632812 266.449219 261.054688 C 267.769531 257.476562 270.578125 255.257812 271.425781 256.726562 C 272.273438 258.195312 268.902344 260.78125 267.996094 263.285156 C 267.160156 265.59375 267.277344 269.199219 267.027344 268.652344 " fill-opacity="1" fill-rule="nonzero"/><path fill="#433331" d="M 274.417969 268.261719 C 273.296875 266.902344 271.777344 265.109375 272.039062 261.714844 C 272.296875 258.316406 274.183594 255.816406 275.285156 256.9375 C 276.386719 258.054688 274.09375 260.988281 273.929688 263.363281 C 273.777344 265.554688 274.769531 268.6875 274.417969 268.261719 " fill-opacity="1" fill-rule="nonzero"/><path fill="#705f5d" d="M 308.011719 282.796875 L 301.398438 279.238281 C 301.398438 279.238281 306.316406 285.507812 306.570312 291.609375 C 306.570312 291.609375 311.402344 287.964844 311.234375 286.78125 C 311.066406 285.59375 308.011719 282.796875 308.011719 282.796875 " fill-opacity="1" fill-rule="nonzero"/><path fill="#b99799" d="M 318.792969 238.859375 C 318.796875 238.855469 318.800781 238.847656 318.800781 238.847656 C 318.800781 238.847656 318.796875 238.855469 318.792969 238.859375 " fill-opacity="1" fill-rule="nonzero"/><path fill="#b99799" d="M 326.8125 276.21875 C 326.820312 276.226562 326.828125 276.242188 326.835938 276.253906 C 326.902344 276.128906 326.957031 276.011719 327.015625 275.894531 C 326.949219 276.003906 326.878906 276.109375 326.8125 276.21875 " fill-opacity="1" fill-rule="nonzero"/><path fill="#b99799" d="M 298.265625 295.753906 C 298.6875 295.542969 299.121094 295.324219 299.570312 295.089844 L 298.265625 295.753906 " fill-opacity="1" fill-rule="nonzero"/><path fill="#b99799" d="M 299.570312 295.089844 C 299.710938 295.019531 299.847656 294.949219 299.988281 294.878906 L 299.570312 295.089844 " fill-opacity="1" fill-rule="nonzero"/><path fill="#b99799" d="M 278.710938 291.972656 C 278.703125 291.945312 278.691406 291.910156 278.683594 291.882812 C 273.917969 292.5 263.605469 294.203125 263.585938 297.371094 C 263.570312 299.546875 270.4375 301.105469 277.269531 300.378906 C 278.277344 298.976562 278.675781 291.949219 278.675781 291.949219 L 278.710938 291.972656 " fill-opacity="1" fill-rule="nonzero"/><path fill="#705f5d" d="M 311.371094 232.742188 C 313.410156 229.679688 321.789062 217.886719 331.199219 215.945312 C 331.054688 215.839844 330.910156 215.730469 330.769531 215.628906 L 327.910156 213.769531 C 324.496094 215.335938 317.816406 219.878906 311.371094 232.742188 " fill-opacity="1" fill-rule="nonzero"/><path fill="#b99799" d="M 327.757812 213.667969 L 327.910156 213.769531 C 327.9375 213.753906 327.96875 213.742188 327.996094 213.726562 C 327.949219 213.695312 327.894531 213.660156 327.847656 213.628906 C 327.816406 213.640625 327.785156 213.65625 327.757812 213.667969 " fill-opacity="1" fill-rule="nonzero"/><path fill="#b99799" d="M 328 213.726562 C 329.394531 213.09375 330.226562 212.96875 330.226562 212.96875 C 324.800781 206.1875 310.046875 201.78125 310.046875 201.78125 C 310.046875 201.78125 300.382812 222.289062 298.6875 224.832031 C 296.992188 227.375 310.046875 235.734375 310.046875 235.734375 C 310.230469 235.296875 310.675781 234.21875 311.011719 233.46875 C 310.984375 233.457031 310.953125 233.441406 310.925781 233.429688 C 310.90625 233.460938 310.894531 233.476562 310.894531 233.476562 L 310.914062 233.421875 C 310.914062 233.421875 310.921875 233.425781 310.925781 233.429688 C 310.984375 233.335938 311.136719 233.09375 311.371094 232.742188 C 317.820312 219.878906 324.496094 215.335938 327.910156 213.769531 L 327.757812 213.667969 C 327.785156 213.65625 327.816406 213.640625 327.847656 213.628906 C 327.894531 213.660156 327.949219 213.695312 328 213.726562 " fill-opacity="1" fill-rule="nonzero"/><path fill="#b99799" d="M 340.230469 224.832031 C 336.96875 220.003906 333.007812 217.242188 331.242188 215.933594 C 321.832031 217.875 313.410156 229.679688 311.371094 232.742188 C 311.257812 232.988281 311.144531 233.226562 311.03125 233.476562 C 316.550781 235.832031 318.015625 239.746094 318.015625 239.746094 C 318.058594 239.695312 318.335938 239.363281 318.789062 238.859375 C 318.796875 238.855469 318.800781 238.847656 318.800781 238.847656 C 318.839844 238.804688 318.875 238.765625 318.90625 238.726562 C 326.332031 230.1875 334.515625 226.652344 338.214844 225.414062 C 338.113281 225.265625 338.015625 225.121094 337.914062 224.976562 C 338.011719 225.097656 338.128906 225.238281 338.257812 225.402344 C 339.5 224.988281 340.230469 224.832031 340.230469 224.832031 " fill-opacity="1" fill-rule="nonzero"/><path fill="#b99799" d="M 318.90625 238.726562 L 318.902344 238.734375 C 321.335938 236.054688 328.59375 228.761719 338.214844 225.414062 C 334.515625 226.648438 326.332031 230.1875 318.90625 238.726562 " fill-opacity="1" fill-rule="nonzero"/><path fill="#705f5d" d="M 322.742188 245.445312 C 322.742188 245.445312 331.964844 241.082031 345.699219 243.710938 C 345.699219 243.710938 345.09375 241.753906 344.214844 239.640625 C 339.738281 239.699219 331.226562 240.519531 323.300781 245.125 L 322.742188 245.445312 " fill-opacity="1" fill-rule="nonzero"/><g clip-path="url(#5e47ca631f)"><path fill="#b99799" d="M 344.050781 239.640625 C 343.894531 239.269531 343.925781 239.171875 344.152344 239.640625 C 346.148438 239.617188 347.351562 239.746094 347.351562 239.746094 C 344.285156 233.210938 339.964844 227.53125 338.257812 225.402344 C 338.242188 225.40625 338.234375 225.410156 338.214844 225.414062 C 339.351562 227.046875 340.566406 228.644531 340.566406 228.644531 C 328.871094 229.410156 318.867188 238.816406 318.867188 238.816406 C 318.867188 238.816406 318.886719 238.769531 318.90625 238.734375 C 318.867188 238.773438 318.839844 238.804688 318.808594 238.84375 C 318.808594 238.84375 318.796875 238.851562 318.792969 238.859375 C 321.171875 243.472656 320.730469 246.761719 320.730469 246.761719 C 321.378906 246.304688 322.039062 245.882812 322.699219 245.484375 C 322.898438 245.359375 323.097656 245.238281 323.300781 245.125 C 331.226562 240.519531 339.574219 239.699219 344.050781 239.640625 " fill-opacity="1" fill-rule="nonzero"/></g><path fill="#b99799" d="M 318.808594 238.84375 C 318.839844 238.804688 318.867188 238.773438 318.902344 238.734375 L 318.90625 238.726562 C 318.875 238.765625 318.839844 238.804688 318.808594 238.84375 " fill-opacity="1" fill-rule="nonzero"/><path fill="#705f5d" d="M 340.824219 260.933594 L 341.382812 257.738281 C 338.554688 254.894531 332.839844 251.183594 323.964844 252.960938 L 323.167969 253.09375 C 323.167969 253.09375 332.429688 250.511719 340.824219 260.933594 " fill-opacity="1" fill-rule="nonzero"/><path fill="#b99799" d="M 345.695312 243.710938 C 331.964844 241.082031 324.417969 244.769531 324.417969 244.769531 L 323.300781 245.125 C 323.097656 245.238281 322.898438 245.359375 322.699219 245.484375 C 322.8125 249.773438 320.730469 253.816406 320.730469 253.816406 C 321.425781 253.582031 322.105469 253.398438 322.769531 253.230469 C 323.171875 253.132812 323.570312 253.042969 323.964844 252.960938 C 332.839844 251.183594 338.515625 254.964844 341.277344 257.636719 C 341.3125 257.671875 341.347656 257.707031 341.382812 257.738281 C 342.65625 258.992188 343.28125 259.972656 343.28125 259.972656 C 347.945312 252.796875 345.695312 243.710938 345.695312 243.710938 " fill-opacity="1" fill-rule="nonzero"/><path fill="#705f5d" d="M 321.84375 260.425781 L 321.109375 260.238281 C 321.109375 260.238281 329.058594 263.136719 333.636719 271.863281 C 333.636719 271.863281 334.21875 270.796875 334.550781 270.019531 C 334.847656 269.324219 335.105469 268.515625 335.121094 268.453125 C 332.238281 265.894531 327.109375 261.925781 321.84375 260.425781 " fill-opacity="1" fill-rule="nonzero"/><path fill="#b99799" d="M 340.824219 260.933594 C 333.109375 251.207031 324.800781 252.796875 324.800781 252.796875 L 323.964844 252.960938 C 323.574219 253.039062 323.175781 253.132812 322.769531 253.230469 C 321.257812 257.035156 319.882812 259.972656 319.882812 259.972656 C 320.292969 260.039062 320.703125 260.136719 321.109375 260.238281 C 321.355469 260.296875 321.597656 260.355469 321.839844 260.425781 C 327.109375 261.925781 332.132812 265.820312 335.015625 268.382812 L 335.027344 268.390625 C 336.578125 269.773438 337.515625 270.761719 337.515625 270.761719 C 339.808594 266.945312 340.953125 260.640625 341.382812 257.738281 C 341.347656 257.703125 341.417969 257.773438 341.382812 257.738281 L 340.824219 260.933594 " fill-opacity="1" fill-rule="nonzero"/><path fill="#b99799" d="M 326.835938 276.25 C 327.152344 276.730469 328.039062 278.230469 328.277344 278.730469 C 328.277344 278.730469 330.039062 277.085938 331.457031 275.253906 C 332.175781 274.324219 333.636719 271.863281 333.636719 271.863281 C 328.867188 262.753906 322.257812 260.617188 322.257812 260.617188 L 321.84375 260.425781 C 321.597656 260.355469 321.355469 260.296875 321.109375 260.238281 C 319.953125 261.257812 314.542969 265.085938 313.269531 266.1875 C 313.269531 266.1875 313.882812 266.449219 314.835938 266.921875 C 314.859375 266.933594 314.878906 266.941406 314.90625 266.957031 C 317.808594 268.394531 323.839844 271.773438 326.8125 276.21875 C 326.878906 276.109375 326.902344 276.128906 326.835938 276.25 " fill-opacity="1" fill-rule="nonzero"/><path fill="#705f5d" d="M 308.285156 273.832031 C 308.222656 273.820312 308.179688 273.8125 308.179688 273.8125 C 308.179688 273.8125 314.535156 280.253906 315.367188 286.40625 C 315.941406 285.585938 316.503906 284.679688 317.023438 283.679688 C 314.175781 278.773438 310.585938 275.554688 308.285156 273.832031 " fill-opacity="1" fill-rule="nonzero"/><path fill="#b99799" d="M 326.8125 276.21875 C 326.820312 276.230469 326.832031 276.238281 326.835938 276.25 C 326.832031 276.238281 326.820312 276.226562 326.8125 276.21875 " fill-opacity="1" fill-rule="nonzero"/><path fill="#b99799" d="M 324.949219 279.027344 C 322.148438 271.144531 314.878906 266.949219 314.878906 266.949219 L 314.90625 266.953125 C 314.882812 266.941406 314.859375 266.933594 314.835938 266.921875 C 311.949219 268.363281 305.847656 271.511719 305.976562 272.289062 C 305.976562 272.289062 306.847656 272.765625 308.160156 273.738281 C 308.203125 273.769531 308.242188 273.800781 308.28125 273.832031 C 310.585938 275.554688 314.175781 278.773438 317.023438 283.679688 C 317.042969 283.707031 317.0625 283.738281 317.078125 283.769531 C 317.492188 284.488281 317.898438 285.226562 318.269531 286.015625 C 318.269531 286.015625 324.667969 280.316406 326.835938 276.25 C 325.902344 277.71875 324.949219 279.027344 324.949219 279.027344 " fill-opacity="1" fill-rule="nonzero"/><path fill="#705f5d" d="M 326.808594 276.21875 C 323.832031 271.792969 317.800781 268.390625 314.902344 266.957031 L 314.878906 266.949219 C 314.878906 266.949219 322.148438 271.144531 324.949219 279.027344 C 324.949219 279.027344 325.421875 278.476562 325.984375 277.648438 C 326.265625 277.238281 326.566406 276.820312 326.875 276.335938 C 326.867188 276.324219 326.820312 276.230469 326.808594 276.21875 " fill-opacity="1" fill-rule="nonzero"/><path fill="#705f5d" d="M 297.242188 296.269531 L 298.261719 295.753906 C 297.914062 295.929688 297.574219 296.097656 297.242188 296.257812 L 297.242188 296.269531 " fill-opacity="1" fill-rule="nonzero"/><path fill="#705f5d" d="M 294.558594 284.367188 L 294.445312 284.320312 C 294.445312 284.320312 297.832031 290.667969 297.246094 296.257812 C 297.574219 296.097656 297.914062 295.929688 298.265625 295.753906 L 299.570312 295.089844 C 298.777344 289.601562 296.335938 286.179688 294.558594 284.367188 " fill-opacity="1" fill-rule="nonzero"/><path fill="#b99799" d="M 292.582031 282.710938 C 292.582031 282.710938 293.398438 283.207031 294.488281 284.296875 C 294.511719 284.320312 294.535156 284.339844 294.558594 284.367188 C 296.335938 286.179688 298.773438 289.601562 299.570312 295.089844 L 299.992188 294.878906 C 299.847656 294.949219 299.710938 295.019531 299.570312 295.089844 C 299.617188 295.398438 299.667969 295.695312 299.703125 296.015625 C 299.703125 296.015625 303.398438 294.273438 306.964844 291.402344 C 306.699219 289.542969 305.640625 285.183594 301.355469 279.234375 C 299.621094 279.804688 296.015625 281.058594 292.582031 282.710938 " fill-opacity="1" fill-rule="nonzero"/><path fill="#705f5d" d="M 288.34375 298.03125 C 288.957031 297.710938 289.574219 297.351562 290.199219 296.953125 C 289.671875 292.601562 288.074219 290.011719 286.910156 288.664062 C 287.019531 288.878906 288.484375 291.894531 288.34375 298.03125 " fill-opacity="1" fill-rule="nonzero"/><path fill="#b99799" d="M 294.445312 284.320312 L 294.558594 284.367188 C 294.535156 284.339844 294.511719 284.320312 294.488281 284.296875 C 292.367188 284.933594 288.613281 286.132812 285.628906 287.453125 C 285.628906 287.453125 286.144531 287.796875 286.832031 288.574219 C 286.859375 288.605469 286.886719 288.636719 286.914062 288.664062 C 288.074219 290.011719 289.671875 292.601562 290.199219 296.953125 C 290.203125 296.976562 290.203125 297 290.207031 297.023438 C 290.296875 297.769531 290.359375 298.554688 290.378906 299.40625 C 290.378906 299.40625 292.976562 298.359375 297.246094 296.257812 C 297.832031 290.667969 294.445312 284.320312 294.445312 284.320312 " fill-opacity="1" fill-rule="nonzero"/><path fill="#705f5d" d="M 278.714844 291.972656 L 278.679688 291.949219 C 278.679688 291.949219 278.425781 298.984375 277.40625 300.339844 C 277.40625 300.339844 278.066406 300.285156 278.945312 300.152344 C 279.128906 300.121094 279.3125 300.101562 279.496094 300.066406 C 279.515625 300.0625 279.53125 300.058594 279.546875 300.054688 C 280.199219 297.160156 279.273438 293.675781 278.714844 291.972656 " fill-opacity="1" fill-rule="nonzero"/><path fill="#705f5d" d="M 277.40625 300.339844 C 278.425781 298.984375 278.679688 291.949219 278.679688 291.949219 C 278.679688 291.949219 278.277344 298.976562 277.273438 300.378906 C 277.519531 300.351562 277.773438 300.328125 278.023438 300.296875 C 278.097656 300.285156 278.175781 300.273438 278.261719 300.261719 C 278.492188 300.230469 278.71875 300.191406 278.945312 300.152344 C 278.066406 300.285156 277.40625 300.339844 277.40625 300.339844 " fill-opacity="1" fill-rule="nonzero"/><g clip-path="url(#fdc28b503d)"><path fill="#b99799" d="M 286.832031 288.574219 C 284.796875 289.1875 280.597656 290.429688 278.335938 290.933594 C 278.335938 290.933594 278.484375 291.289062 278.683594 291.882812 C 278.691406 291.910156 278.703125 291.945312 278.710938 291.972656 C 279.273438 293.675781 280.199219 297.160156 279.546875 300.054688 L 279.546875 300.058594 C 279.492188 300.296875 279.429688 300.53125 279.355469 300.761719 C 279.355469 300.761719 283.5625 300.53125 288.34375 298.03125 C 288.488281 291.894531 287.019531 288.878906 286.914062 288.664062 C 286.886719 288.636719 286.859375 288.605469 286.832031 288.574219 " fill-opacity="1" fill-rule="nonzero"/></g><path fill="#705f5d" d="M 301.355469 279.234375 C 305.636719 285.183594 306.699219 289.542969 306.964844 291.402344 C 307.535156 290.941406 308.105469 290.457031 308.652344 289.9375 C 306.527344 284.910156 303.300781 281.179688 301.355469 279.234375 " fill-opacity="1" fill-rule="nonzero"/><path fill="#705f5d" d="M 318.902344 238.734375 C 318.886719 238.769531 318.863281 238.816406 318.863281 238.816406 C 318.863281 238.816406 329.019531 229.410156 340.71875 228.644531 C 340.71875 228.644531 339.234375 226.464844 338.21875 225.414062 C 328.59375 228.761719 321.339844 236.054688 318.902344 238.734375 " fill-opacity="1" fill-rule="nonzero"/><path fill="#b99799" d="M 311.011719 233.46875 L 311.03125 233.476562 C 311.144531 233.226562 311.257812 232.988281 311.371094 232.742188 C 311.300781 232.851562 311.167969 233.128906 311.011719 233.46875 " fill-opacity="1" fill-rule="nonzero"/><path fill="#b99799" d="M 338.214844 225.414062 C 338.234375 225.410156 338.246094 225.40625 338.257812 225.402344 C 338.128906 225.238281 338.015625 225.097656 337.917969 224.976562 C 338.015625 225.121094 338.117188 225.265625 338.214844 225.414062 " fill-opacity="1" fill-rule="nonzero"/><path fill="#b99799" d="M 344.046875 239.640625 C 344.082031 239.640625 344.121094 239.640625 344.152344 239.640625 C 343.921875 239.171875 343.722656 238.796875 343.570312 238.53125 C 343.734375 238.898438 343.894531 239.273438 344.046875 239.640625 " fill-opacity="1" fill-rule="nonzero"/><path fill="#b99799" d="M 278.261719 300.261719 C 278.175781 300.273438 278.097656 300.285156 278.023438 300.296875 C 278.101562 300.285156 278.179688 300.273438 278.261719 300.261719 " fill-opacity="1" fill-rule="nonzero"/><path fill="#705f5d" d="M 331.242188 215.933594 L 330.769531 215.628906 C 330.910156 215.730469 331.058594 215.839844 331.203125 215.945312 C 331.214844 215.941406 331.230469 215.9375 331.242188 215.933594 " fill-opacity="1" fill-rule="nonzero"/><path fill="#b99799" d="M 310.925781 233.429688 C 310.957031 233.441406 310.984375 233.457031 311.011719 233.46875 C 311.167969 233.128906 311.300781 232.851562 311.371094 232.742188 C 311.136719 233.09375 310.984375 233.335938 310.925781 233.429688 " fill-opacity="1" fill-rule="nonzero"/><path fill="#b99799" d="M 310.894531 233.476562 C 310.894531 233.476562 310.90625 233.460938 310.921875 233.429688 C 310.921875 233.425781 310.914062 233.425781 310.914062 233.425781 L 310.894531 233.476562 " fill-opacity="1" fill-rule="nonzero"/><path fill="#705f5d" d="M 334.96875 268.566406 C 334.988281 268.507812 335.007812 268.453125 335.027344 268.390625 L 335.015625 268.382812 C 335 268.441406 334.984375 268.507812 334.96875 268.566406 " fill-opacity="1" fill-rule="nonzero"/><path fill="#705f5d" d="M 279.496094 300.066406 C 279.511719 300.0625 279.53125 300.058594 279.546875 300.058594 L 279.546875 300.054688 C 279.53125 300.058594 279.511719 300.0625 279.496094 300.066406 " fill-opacity="1" fill-rule="nonzero"/><path fill="#705f5d" d="M 278.261719 300.261719 C 278.628906 300.207031 279.058594 300.140625 279.496094 300.066406 C 279.304688 300.097656 279.121094 300.128906 278.941406 300.152344 C 278.714844 300.191406 278.488281 300.230469 278.261719 300.261719 " fill-opacity="1" fill-rule="nonzero"/><path fill="#705f5d" d="M 277.257812 300.402344 C 277.257812 300.402344 277.566406 300.363281 278.019531 300.296875 C 277.769531 300.328125 277.519531 300.351562 277.269531 300.378906 C 277.269531 300.378906 277.261719 300.398438 277.257812 300.402344 " fill-opacity="1" fill-rule="nonzero"/><path fill="#705f5d" d="M 279.496094 300.066406 C 279.3125 300.101562 279.128906 300.121094 278.941406 300.152344 C 279.121094 300.128906 279.304688 300.097656 279.496094 300.066406 " fill-opacity="1" fill-rule="nonzero"/><path fill="#b99799" d="M 308.179688 273.8125 C 308.179688 273.8125 308.222656 273.820312 308.28125 273.832031 C 308.242188 273.800781 308.199219 273.769531 308.160156 273.738281 C 305.832031 274.769531 301.203125 276.839844 299.703125 277.710938 C 299.703125 277.710938 300.363281 278.246094 301.355469 279.234375 C 303.300781 281.179688 306.527344 284.910156 308.652344 289.9375 C 308.730469 290.121094 308.789062 290.316406 308.863281 290.5 C 309.101562 291.082031 309.339844 291.667969 309.539062 292.289062 C 309.539062 292.289062 312.582031 290.390625 315.367188 286.40625 C 314.535156 280.253906 308.179688 273.8125 308.179688 273.8125 " fill-opacity="1" fill-rule="nonzero"/><path fill="#705f5d" d="M 309.917969 192.617188 C 309.730469 191.601562 310.488281 190.464844 311.457031 190.269531 C 310.3125 182.628906 307.054688 175.101562 302.328125 168.015625 C 302.121094 168.300781 301.847656 168.554688 301.519531 168.734375 C 300.324219 169.390625 298.929688 168.519531 298.703125 167.050781 C 298.558594 166.132812 299.34375 165.335938 300.335938 165.175781 C 285.574219 145.09375 259.144531 129.09375 235.667969 125.300781 C 217.03125 122.285156 196.269531 121.105469 168.121094 137.714844 C 133.503906 158.144531 136.242188 187.882812 136.242188 196.699219 C 136.242188 205.511719 132.851562 218.898438 158.117188 232.121094 C 183.382812 245.339844 210.003906 230.085938 223.230469 230.425781 C 236.457031 230.765625 243.746094 236.019531 257.3125 239.070312 C 270.007812 241.925781 306.707031 236.792969 311.410156 203.578125 C 310.652344 204.023438 309.09375 203.707031 308.414062 202.519531 C 307.691406 201.257812 309.367188 199.421875 310.957031 199.976562 C 311.304688 200.097656 311.542969 200.28125 311.738281 200.488281 C 311.839844 199.148438 311.910156 197.78125 311.910156 196.359375 C 311.914062 195.609375 311.871094 194.859375 311.828125 194.113281 C 310.910156 194.210938 310.078125 193.480469 309.917969 192.617188 " fill-opacity="1" fill-rule="nonzero"/><path fill="#b99799" d="M 310.957031 199.976562 C 309.367188 199.421875 307.691406 201.257812 308.414062 202.519531 C 309.097656 203.707031 310.652344 204.023438 311.410156 203.578125 C 311.550781 202.578125 311.65625 201.542969 311.738281 200.488281 C 311.542969 200.28125 311.304688 200.097656 310.957031 199.976562 " fill-opacity="1" fill-rule="nonzero"/><path fill="#b99799" d="M 298.699219 167.050781 C 298.929688 168.519531 300.320312 169.390625 301.515625 168.734375 C 301.847656 168.554688 302.117188 168.300781 302.328125 168.015625 C 301.6875 167.0625 301.027344 166.113281 300.335938 165.175781 C 299.339844 165.335938 298.558594 166.132812 298.699219 167.050781 " fill-opacity="1" fill-rule="nonzero"/><path fill="#b99799" d="M 309.917969 192.617188 C 310.078125 193.480469 310.910156 194.210938 311.828125 194.113281 C 311.757812 192.828125 311.648438 191.546875 311.453125 190.269531 C 310.488281 190.464844 309.730469 191.601562 309.917969 192.617188 " fill-opacity="1" fill-rule="nonzero"/><path fill="#b99799" d="M 202.015625 197.582031 C 202.25 199.183594 204.558594 199.792969 205.3125 198.617188 C 206.066406 197.441406 205.546875 195.84375 204.746094 195.515625 C 203.949219 195.183594 201.734375 195.65625 202.015625 197.582031 " fill-opacity="1" fill-rule="nonzero"/><path fill="#b99799" d="M 194.921875 196.230469 C 194.449219 198.1875 196.847656 199.613281 198.484375 198.039062 C 199.484375 197.074219 198.597656 195.527344 197.898438 195.179688 C 197.199219 194.828125 195.269531 194.769531 194.921875 196.230469 " fill-opacity="1" fill-rule="nonzero"/><path fill="#b99799" d="M 194.421875 180.253906 C 194.664062 181.917969 197.066406 182.554688 197.851562 181.332031 C 198.636719 180.105469 198.097656 178.441406 197.261719 178.097656 C 196.429688 177.753906 194.125 178.246094 194.421875 180.253906 " fill-opacity="1" fill-rule="nonzero"/><path fill="#b99799" d="M 201.203125 206.015625 C 201.445312 207.679688 203.847656 208.316406 204.632812 207.09375 C 205.417969 205.867188 204.878906 204.203125 204.046875 203.859375 C 203.210938 203.515625 200.910156 204.007812 201.203125 206.015625 " fill-opacity="1" fill-rule="nonzero"/><path fill="#b99799" d="M 168.082031 140.820312 C 168.324219 142.484375 170.726562 143.121094 171.511719 141.898438 C 172.296875 140.671875 171.757812 139.007812 170.925781 138.664062 C 170.089844 138.320312 167.785156 138.8125 168.082031 140.820312 " fill-opacity="1" fill-rule="nonzero"/><path fill="#b99799" d="M 194.648438 188.757812 C 194.890625 190.421875 197.292969 191.0625 198.078125 189.835938 C 198.859375 188.609375 198.324219 186.945312 197.488281 186.605469 C 196.65625 186.261719 194.355469 186.75 194.648438 188.757812 " fill-opacity="1" fill-rule="nonzero"/><path fill="#b99799" d="M 179.570312 142.609375 C 179.121094 144.476562 181.410156 145.839844 182.96875 144.335938 C 183.925781 143.410156 183.082031 141.9375 182.414062 141.605469 C 181.742188 141.269531 179.902344 141.214844 179.570312 142.609375 " fill-opacity="1" fill-rule="nonzero"/><path fill="#b99799" d="M 183.8125 150.160156 C 183.4375 152.136719 185.449219 153.496094 186.648438 152.617188 C 187.84375 151.734375 187.96875 150.097656 186.835938 149.34375 C 185.703125 148.585938 184.066406 148.839844 183.8125 150.160156 " fill-opacity="1" fill-rule="nonzero"/><path fill="#b99799" d="M 193.640625 171.511719 C 193.261719 173.488281 195.277344 174.851562 196.472656 173.96875 C 197.671875 173.085938 197.796875 171.449219 196.664062 170.695312 C 195.53125 169.9375 193.890625 170.191406 193.640625 171.511719 " fill-opacity="1" fill-rule="nonzero"/><path fill="#b99799" d="M 175.191406 136.210938 C 174.839844 138.058594 176.722656 139.332031 177.84375 138.507812 C 178.960938 137.683594 179.078125 136.152344 178.019531 135.445312 C 176.957031 134.738281 175.425781 134.976562 175.191406 136.210938 " fill-opacity="1" fill-rule="nonzero"/><path fill="#b99799" d="M 189.636719 156.5625 C 188.394531 156.363281 187.152344 157.40625 187.300781 158.945312 C 187.449219 160.484375 189.585938 160.984375 190.730469 160.089844 C 191.871094 159.195312 191.992188 156.941406 189.636719 156.5625 " fill-opacity="1" fill-rule="nonzero"/><path fill="#b99799" d="M 156.851562 161.648438 C 155.609375 161.449219 154.371094 162.492188 154.519531 164.03125 C 154.667969 165.570312 156.804688 166.066406 157.945312 165.175781 C 159.089844 164.277344 159.210938 162.023438 156.851562 161.648438 " fill-opacity="1" fill-rule="nonzero"/><path fill="#b99799" d="M 193.140625 164.101562 C 192.007812 163.917969 190.878906 164.871094 191.011719 166.273438 C 191.148438 167.671875 193.09375 168.125 194.136719 167.3125 C 195.175781 166.496094 195.285156 164.445312 193.140625 164.101562 " fill-opacity="1" fill-rule="nonzero"/><path fill="#b99799" d="M 196.269531 204.070312 C 194.605469 203.789062 193.261719 205.882812 194.191406 207.003906 C 195.117188 208.125 196.867188 208.121094 197.449219 207.433594 C 198.03125 206.746094 198.273438 204.40625 196.269531 204.070312 " fill-opacity="1" fill-rule="nonzero"/><path fill="#b99799" d="M 194.402344 224.855469 C 192.738281 224.574219 191.398438 226.667969 192.324219 227.789062 C 193.25 228.910156 195 228.90625 195.582031 228.21875 C 196.164062 227.53125 196.40625 225.191406 194.402344 224.855469 " fill-opacity="1" fill-rule="nonzero"/><path fill="#b99799" d="M 203.792969 169.832031 C 202.128906 169.550781 200.785156 171.640625 201.714844 172.765625 C 202.640625 173.886719 204.390625 173.882812 204.972656 173.195312 C 205.554688 172.507812 205.792969 170.167969 203.792969 169.832031 " fill-opacity="1" fill-rule="nonzero"/><path fill="#b99799" d="M 212.609375 186.324219 C 210.945312 186.046875 209.605469 188.140625 210.53125 189.261719 C 211.457031 190.382812 213.207031 190.378906 213.789062 189.691406 C 214.371094 189.003906 214.613281 186.664062 212.609375 186.324219 " fill-opacity="1" fill-rule="nonzero"/><path fill="#b99799" d="M 166.035156 194.914062 C 164.375 194.636719 163.03125 196.726562 163.957031 197.847656 C 164.882812 198.96875 166.632812 198.96875 167.214844 198.28125 C 167.796875 197.59375 168.039062 195.25 166.035156 194.914062 " fill-opacity="1" fill-rule="nonzero"/><path fill="#b99799" d="M 185.980469 225.25 C 184.316406 224.972656 182.976562 227.0625 183.902344 228.183594 C 184.828125 229.308594 186.578125 229.304688 187.160156 228.617188 C 187.742188 227.929688 187.984375 225.585938 185.980469 225.25 " fill-opacity="1" fill-rule="nonzero"/><path fill="#b99799" d="M 195.832031 214.742188 C 194.191406 213.742188 192.191406 215.5 193.144531 217.449219 C 193.730469 218.644531 195.394531 218.289062 195.917969 217.753906 C 196.441406 217.222656 197.058594 215.488281 195.832031 214.742188 " fill-opacity="1" fill-rule="nonzero"/><path fill="#b99799" d="M 176.101562 145.148438 C 174.457031 144.148438 172.457031 145.910156 173.410156 147.859375 C 173.996094 149.050781 175.660156 148.699219 176.183594 148.164062 C 176.707031 147.628906 177.324219 145.894531 176.101562 145.148438 " fill-opacity="1" fill-rule="nonzero"/><path fill="#b99799" d="M 192.746094 127.664062 C 191.105469 126.664062 189.105469 128.425781 190.058594 130.371094 C 190.644531 131.566406 192.308594 131.214844 192.832031 130.679688 C 193.355469 130.144531 193.972656 128.410156 192.746094 127.664062 " fill-opacity="1" fill-rule="nonzero"/><path fill="#b99799" d="M 212.125 168.148438 C 210.480469 167.148438 208.480469 168.90625 209.433594 170.855469 C 210.019531 172.050781 211.683594 171.695312 212.207031 171.160156 C 212.730469 170.628906 213.347656 168.894531 212.125 168.148438 " fill-opacity="1" fill-rule="nonzero"/><path fill="#b99799" d="M 211.976562 205.125 C 210.332031 204.125 208.332031 205.886719 209.285156 207.835938 C 209.871094 209.027344 211.535156 208.675781 212.058594 208.140625 C 212.582031 207.605469 213.199219 205.871094 211.976562 205.125 " fill-opacity="1" fill-rule="nonzero"/><path fill="#b99799" d="M 213.164062 195.574219 C 211.449219 194.527344 209.359375 196.367188 210.355469 198.402344 C 210.96875 199.648438 212.707031 199.28125 213.253906 198.722656 C 213.800781 198.164062 214.445312 196.351562 213.164062 195.574219 " fill-opacity="1" fill-rule="nonzero"/><path fill="#b99799" d="M 197.195312 134.179688 C 195.390625 133.082031 193.191406 135.015625 194.242188 137.152344 C 194.882812 138.464844 196.710938 138.078125 197.285156 137.492188 C 197.863281 136.902344 198.539062 135 197.195312 134.179688 " fill-opacity="1" fill-rule="nonzero"/><path fill="#b99799" d="M 201.835938 142.128906 C 200.175781 141.117188 198.152344 142.894531 199.117188 144.863281 C 199.710938 146.070312 201.390625 145.714844 201.921875 145.171875 C 202.449219 144.632812 203.074219 142.882812 201.835938 142.128906 " fill-opacity="1" fill-rule="nonzero"/><path fill="#b99799" d="M 212.074219 214.214844 C 210.363281 213.214844 208.351562 214.847656 209.382812 216.734375 C 210.015625 217.890625 211.714844 217.59375 212.238281 217.097656 C 212.761719 216.597656 213.351562 214.957031 212.074219 214.214844 " fill-opacity="1" fill-rule="nonzero"/><path fill="#b99799" d="M 203.832031 213.578125 C 202.0625 212.613281 200.152344 214.113281 200.621094 215.523438 C 201.097656 216.933594 202.617188 217.554688 203.683594 216.707031 C 204.75 215.859375 205.015625 214.222656 203.832031 213.578125 " fill-opacity="1" fill-rule="nonzero"/><path fill="#b99799" d="M 206.136719 150.632812 C 204.371094 149.667969 202.457031 151.167969 202.929688 152.578125 C 203.402344 153.988281 204.921875 154.609375 205.988281 153.761719 C 207.058594 152.914062 207.320312 151.277344 206.136719 150.632812 " fill-opacity="1" fill-rule="nonzero"/><path fill="#b99799" d="M 184.882812 131.648438 C 183.117188 130.6875 181.203125 132.183594 181.675781 133.59375 C 182.148438 135.003906 183.671875 135.625 184.738281 134.777344 C 185.804688 133.933594 186.066406 132.296875 184.882812 131.648438 " fill-opacity="1" fill-rule="nonzero"/><path fill="#b99799" d="M 198.191406 153.988281 C 196.421875 153.023438 194.507812 154.523438 194.980469 155.933594 C 195.453125 157.339844 196.976562 157.964844 198.042969 157.117188 C 199.109375 156.269531 199.371094 154.632812 198.191406 153.988281 " fill-opacity="1" fill-rule="nonzero"/><path fill="#b99799" d="M 147.808594 162.269531 C 146.039062 161.304688 144.125 162.804688 144.597656 164.214844 C 145.070312 165.625 146.589844 166.246094 147.660156 165.398438 C 148.726562 164.550781 148.988281 162.917969 147.808594 162.269531 " fill-opacity="1" fill-rule="nonzero"/><path fill="#b99799" d="M 152.386719 168.035156 C 150.617188 167.070312 148.703125 168.570312 149.175781 169.976562 C 149.648438 171.386719 151.167969 172.007812 152.238281 171.160156 C 153.304688 170.316406 153.566406 168.679688 152.386719 168.035156 " fill-opacity="1" fill-rule="nonzero"/><path fill="#b99799" d="M 156.117188 175.320312 C 154.347656 174.355469 152.433594 175.855469 152.90625 177.265625 C 153.378906 178.675781 154.902344 179.296875 155.96875 178.449219 C 157.035156 177.601562 157.296875 175.964844 156.117188 175.320312 " fill-opacity="1" fill-rule="nonzero"/><path fill="#b99799" d="M 158.488281 183.289062 C 156.722656 182.324219 154.808594 183.824219 155.28125 185.230469 C 155.753906 186.640625 157.273438 187.261719 158.339844 186.414062 C 159.410156 185.570312 159.671875 183.933594 158.488281 183.289062 " fill-opacity="1" fill-rule="nonzero"/><path fill="#b99799" d="M 159.167969 191.082031 C 157.398438 190.117188 155.488281 191.617188 155.957031 193.027344 C 156.433594 194.4375 157.953125 195.058594 159.019531 194.210938 C 160.085938 193.363281 160.351562 191.726562 159.167969 191.082031 " fill-opacity="1" fill-rule="nonzero"/><path fill="#b99799" d="M 158.625 199.410156 C 156.855469 198.445312 154.941406 199.945312 155.414062 201.355469 C 155.890625 202.761719 157.410156 203.386719 158.476562 202.539062 C 159.542969 201.691406 159.804688 200.054688 158.625 199.410156 " fill-opacity="1" fill-rule="nonzero"/><path fill="#b99799" d="M 156.929688 207.207031 C 155.160156 206.242188 153.246094 207.742188 153.71875 209.152344 C 154.195312 210.558594 155.714844 211.183594 156.78125 210.335938 C 157.847656 209.488281 158.109375 207.851562 156.929688 207.207031 " fill-opacity="1" fill-rule="nonzero"/><path fill="#b99799" d="M 154.046875 215.511719 C 152.277344 214.546875 150.367188 216.046875 150.839844 217.457031 C 151.3125 218.863281 152.832031 219.488281 153.898438 218.640625 C 154.964844 217.792969 155.226562 216.15625 154.046875 215.511719 " fill-opacity="1" fill-rule="nonzero"/><path fill="#b99799" d="M 147.09375 211.613281 C 145.328125 210.648438 143.414062 212.148438 143.886719 213.558594 C 144.359375 214.964844 145.878906 215.589844 146.945312 214.742188 C 148.015625 213.894531 148.277344 212.257812 147.09375 211.613281 " fill-opacity="1" fill-rule="nonzero"/><path fill="#b99799" d="M 152.351562 197.375 C 150.582031 196.410156 148.667969 197.910156 149.140625 199.320312 C 149.613281 200.730469 151.136719 201.351562 152.203125 200.503906 C 153.269531 199.65625 153.53125 198.019531 152.351562 197.375 " fill-opacity="1" fill-rule="nonzero"/><path fill="#b99799" d="M 150.144531 204.324219 C 148.378906 203.359375 146.464844 204.859375 146.9375 206.269531 C 147.410156 207.679688 148.929688 208.300781 150 207.453125 C 151.066406 206.605469 151.328125 204.96875 150.144531 204.324219 " fill-opacity="1" fill-rule="nonzero"/><path fill="#b99799" d="M 152.351562 189.917969 C 150.582031 188.953125 148.667969 190.453125 149.140625 191.863281 C 149.613281 193.273438 151.136719 193.894531 152.203125 193.046875 C 153.269531 192.199219 153.53125 190.5625 152.351562 189.917969 " fill-opacity="1" fill-rule="nonzero"/><path fill="#b99799" d="M 151.503906 183.140625 C 149.734375 182.175781 147.820312 183.675781 148.292969 185.082031 C 148.765625 186.492188 150.289062 187.113281 151.355469 186.269531 C 152.421875 185.417969 152.683594 183.785156 151.503906 183.140625 " fill-opacity="1" fill-rule="nonzero"/><path fill="#b99799" d="M 149.128906 175.511719 C 147.363281 174.546875 145.449219 176.046875 145.921875 177.457031 C 146.394531 178.867188 147.914062 179.488281 148.980469 178.640625 C 150.050781 177.792969 150.3125 176.15625 149.128906 175.511719 " fill-opacity="1" fill-rule="nonzero"/><path fill="#b99799" d="M 144.210938 194.832031 C 142.445312 193.867188 140.53125 195.367188 141.003906 196.777344 C 141.476562 198.1875 142.996094 198.808594 144.0625 197.960938 C 145.132812 197.113281 145.394531 195.480469 144.210938 194.832031 " fill-opacity="1" fill-rule="nonzero"/><path fill="#b99799" d="M 142.347656 202.292969 C 140.578125 201.328125 138.664062 202.828125 139.136719 204.234375 C 139.609375 205.644531 141.132812 206.265625 142.199219 205.417969 C 143.265625 204.570312 143.527344 202.9375 142.347656 202.292969 " fill-opacity="1" fill-rule="nonzero"/><path fill="#b99799" d="M 144.382812 187.039062 C 142.613281 186.074219 140.699219 187.574219 141.171875 188.980469 C 141.644531 190.390625 143.167969 191.011719 144.234375 190.164062 C 145.300781 189.316406 145.5625 187.683594 144.382812 187.039062 " fill-opacity="1" fill-rule="nonzero"/><path fill="#b99799" d="M 143.710938 180.136719 C 142.203125 179.316406 140.570312 180.59375 140.976562 181.796875 C 141.378906 182.996094 142.675781 183.527344 143.585938 182.804688 C 144.492188 182.082031 144.71875 180.6875 143.710938 180.136719 " fill-opacity="1" fill-rule="nonzero"/><path fill="#b99799" d="M 144.210938 169.75 C 142.445312 168.785156 140.53125 170.285156 141.003906 171.695312 C 141.476562 173.101562 142.996094 173.726562 144.0625 172.878906 C 145.132812 172.03125 145.394531 170.394531 144.210938 169.75 " fill-opacity="1" fill-rule="nonzero"/><path fill="#b99799" d="M 161.824219 170.40625 C 160.058594 169.441406 158.144531 170.941406 158.617188 172.351562 C 159.089844 173.761719 160.609375 174.382812 161.675781 173.535156 C 162.742188 172.6875 163.007812 171.050781 161.824219 170.40625 " fill-opacity="1" fill-rule="nonzero"/><path fill="#b99799" d="M 194.128906 146.132812 C 192.363281 145.167969 190.449219 146.667969 190.921875 148.074219 C 191.394531 149.484375 192.914062 150.105469 193.980469 149.257812 C 195.050781 148.410156 195.3125 146.777344 194.128906 146.132812 " fill-opacity="1" fill-rule="nonzero"/><path fill="#b99799" d="M 210.210938 223.589844 C 208.558594 222.6875 206.769531 224.089844 207.210938 225.40625 C 207.65625 226.722656 209.074219 227.304688 210.074219 226.511719 C 211.070312 225.722656 211.316406 224.191406 210.210938 223.589844 " fill-opacity="1" fill-rule="nonzero"/><path fill="#b99799" d="M 209.550781 159.140625 C 207.773438 158.167969 205.847656 159.679688 206.324219 161.097656 C 206.800781 162.515625 208.328125 163.140625 209.402344 162.289062 C 210.476562 161.4375 210.742188 159.789062 209.550781 159.140625 " fill-opacity="1" fill-rule="nonzero"/><path fill="#b99799" d="M 164.765625 178.972656 C 162.984375 178.003906 161.058594 179.511719 161.535156 180.929688 C 162.011719 182.347656 163.542969 182.972656 164.613281 182.121094 C 165.691406 181.269531 165.953125 179.625 164.765625 178.972656 " fill-opacity="1" fill-rule="nonzero"/><path fill="#b99799" d="M 201.628906 162.242188 C 199.863281 161.277344 197.949219 162.777344 198.421875 164.183594 C 198.894531 165.59375 200.414062 166.21875 201.484375 165.367188 C 202.550781 164.523438 202.8125 162.886719 201.628906 162.242188 " fill-opacity="1" fill-rule="nonzero"/><path fill="#b99799" d="M 187.925781 214.722656 C 186.160156 213.757812 184.246094 215.257812 184.71875 216.664062 C 185.191406 218.074219 186.710938 218.695312 187.78125 217.847656 C 188.847656 217.003906 189.109375 215.367188 187.925781 214.722656 " fill-opacity="1" fill-rule="nonzero"/><path fill="#b99799" d="M 205.003906 186.675781 C 203.238281 185.710938 201.324219 187.210938 201.796875 188.621094 C 202.269531 190.03125 203.789062 190.652344 204.859375 189.804688 C 205.925781 188.957031 206.1875 187.320312 205.003906 186.675781 " fill-opacity="1" fill-rule="nonzero"/><path fill="#b99799" d="M 202.632812 224.671875 C 200.882812 223.71875 198.988281 225.203125 199.457031 226.597656 C 199.925781 227.992188 201.429688 228.609375 202.484375 227.769531 C 203.542969 226.929688 203.800781 225.3125 202.632812 224.671875 " fill-opacity="1" fill-rule="nonzero"/><path fill="#b99799" d="M 205.847656 180.027344 C 206.417969 178.90625 205.804688 177.402344 204.292969 177.074219 C 202.78125 176.742188 201.652344 178.625 202.15625 179.984375 C 202.65625 181.347656 204.765625 182.152344 205.847656 180.027344 " fill-opacity="1" fill-rule="nonzero"/><path fill="#b99799" d="M 213.707031 179.285156 C 214.226562 178.265625 213.667969 176.898438 212.292969 176.59375 C 210.914062 176.296875 209.886719 178.007812 210.34375 179.246094 C 210.800781 180.488281 212.722656 181.222656 213.707031 179.285156 " fill-opacity="1" fill-rule="nonzero"/><path fill="#b99799" d="M 298.625 209.292969 C 298.585938 210.910156 300.753906 211.898438 301.695312 210.867188 C 302.636719 209.835938 302.394531 208.171875 301.660156 207.710938 C 300.929688 207.253906 298.667969 207.34375 298.625 209.292969 " fill-opacity="1" fill-rule="nonzero"/><path fill="#b99799" d="M 291.855469 206.765625 C 291.0625 208.613281 293.183594 210.425781 295.0625 209.148438 C 296.214844 208.363281 295.601562 206.691406 294.96875 206.230469 C 294.335938 205.765625 292.445312 205.382812 291.855469 206.765625 " fill-opacity="1" fill-rule="nonzero"/><path fill="#b99799" d="M 294.050781 190.933594 C 294.011719 192.613281 296.273438 193.648438 297.25 192.570312 C 298.230469 191.496094 297.980469 189.765625 297.214844 189.285156 C 296.453125 188.808594 294.097656 188.902344 294.050781 190.933594 " fill-opacity="1" fill-rule="nonzero"/><path fill="#b99799" d="M 296.402344 217.46875 C 296.359375 219.152344 298.621094 220.183594 299.601562 219.105469 C 300.578125 218.03125 300.328125 216.300781 299.566406 215.820312 C 298.800781 215.34375 296.449219 215.4375 296.402344 217.46875 " fill-opacity="1" fill-rule="nonzero"/><path fill="#b99799" d="M 292.84375 199.355469 C 292.804688 201.035156 295.066406 202.066406 296.042969 200.992188 C 297.023438 199.917969 296.773438 198.1875 296.007812 197.707031 C 295.242188 197.230469 292.890625 197.324219 292.84375 199.355469 " fill-opacity="1" fill-rule="nonzero"/><path fill="#b99799" d="M 294.753906 182.1875 C 294.050781 184.070312 295.808594 185.75 297.132812 185.082031 C 298.464844 184.414062 298.863281 182.824219 297.871094 181.886719 C 296.882812 180.953125 295.226562 180.925781 294.753906 182.1875 " fill-opacity="1" fill-rule="nonzero"/><path fill="#b99799" d="M 296.1875 174.003906 C 295.101562 173.636719 293.828125 174.382812 293.726562 175.785156 C 293.625 177.191406 295.464844 177.964844 296.628906 177.335938 C 297.789062 176.707031 298.246094 174.703125 296.1875 174.003906 " fill-opacity="1" fill-rule="nonzero"/><path fill="#b99799" d="M 291.863281 214.71875 C 290.273438 214.164062 288.597656 216 289.320312 217.261719 C 290.046875 218.523438 291.769531 218.816406 292.460938 218.234375 C 293.152344 217.65625 293.78125 215.386719 291.863281 214.71875 " fill-opacity="1" fill-rule="nonzero"/><path fill="#b99799" d="M 305.722656 181.554688 C 304.132812 181 302.457031 182.835938 303.179688 184.097656 C 303.902344 185.359375 305.632812 185.652344 306.320312 185.070312 C 307.007812 184.492188 307.640625 182.222656 305.722656 181.554688 " fill-opacity="1" fill-rule="nonzero"/><path fill="#b99799" d="M 289.640625 225.164062 C 288.1875 223.902344 285.921875 225.300781 286.53125 227.382812 C 286.910156 228.65625 288.609375 228.589844 289.214844 228.152344 C 289.820312 227.710938 290.722656 226.105469 289.640625 225.164062 " fill-opacity="1" fill-rule="nonzero"/><path fill="#b99799" d="M 294.445312 158.355469 C 293.105469 157.191406 291.015625 158.480469 291.582031 160.398438 C 291.925781 161.574219 293.492188 161.507812 294.050781 161.105469 C 294.609375 160.703125 295.441406 159.222656 294.445312 158.355469 " fill-opacity="1" fill-rule="nonzero"/><path fill="#b99799" d="M 306.261719 218.175781 C 304.8125 216.914062 302.542969 218.3125 303.15625 220.394531 C 303.53125 221.667969 305.230469 221.601562 305.839844 221.164062 C 306.445312 220.722656 307.34375 219.117188 306.261719 218.175781 " fill-opacity="1" fill-rule="nonzero"/><path fill="#b99799" d="M 309.949219 209.1875 C 308.433594 207.867188 306.0625 209.328125 306.703125 211.503906 C 307.097656 212.835938 308.871094 212.765625 309.503906 212.304688 C 310.140625 211.847656 311.082031 210.167969 309.949219 209.1875 " fill-opacity="1" fill-rule="nonzero"/><path fill="#b99799" d="M 297.71875 225.363281 C 296.140625 224.117188 294 225.273438 294.230469 226.742188 C 294.457031 228.210938 295.851562 229.078125 297.046875 228.421875 C 298.242188 227.765625 298.773438 226.199219 297.71875 225.363281 " fill-opacity="1" fill-rule="nonzero"/><path fill="#b99799" d="M 295.679688 165.9375 C 294.25 164.808594 292.3125 165.855469 292.519531 167.1875 C 292.726562 168.515625 293.988281 169.304688 295.070312 168.710938 C 296.152344 168.113281 296.636719 166.695312 295.679688 165.9375 " fill-opacity="1" fill-rule="nonzero"/><path fill="#b99799" d="M 304.191406 174.386719 C 302.613281 173.140625 300.476562 174.296875 300.703125 175.765625 C 300.929688 177.234375 302.324219 178.101562 303.519531 177.449219 C 304.714844 176.792969 305.25 175.222656 304.191406 174.386719 " fill-opacity="1" fill-rule="nonzero"/><path fill="#b99799" d="M 303.40625 199.042969 C 301.824219 197.796875 299.6875 198.953125 299.914062 200.421875 C 300.144531 201.890625 301.539062 202.757812 302.734375 202.101562 C 303.929688 201.445312 304.460938 199.878906 303.40625 199.042969 " fill-opacity="1" fill-rule="nonzero"/><path fill="#b99799" d="M 305.355469 192.628906 C 306.105469 191.621094 305.753906 190.039062 304.320312 189.457031 C 302.886719 188.878906 301.457031 190.542969 301.722656 191.96875 C 301.984375 193.394531 303.929688 194.546875 305.355469 192.628906 " fill-opacity="1" fill-rule="nonzero"/><path fill="#b99799" d="M 166.792969 190.019531 C 167.3125 189 166.753906 187.628906 165.378906 187.328125 C 164 187.03125 162.972656 188.742188 163.429688 189.980469 C 163.886719 191.222656 165.808594 191.957031 166.792969 190.019531 " fill-opacity="1" fill-rule="nonzero"/><path fill="#b99799" d="M 189.75 140.421875 C 190.269531 139.398438 189.710938 138.03125 188.332031 137.730469 C 186.957031 137.429688 185.929688 139.144531 186.386719 140.382812 C 186.84375 141.625 188.765625 142.359375 189.75 140.421875 " fill-opacity="1" fill-rule="nonzero"/><path fill="#b99799" d="M 178.734375 206.410156 C 178.96875 208.011719 181.273438 208.621094 182.027344 207.445312 C 182.78125 206.269531 182.261719 204.671875 181.464844 204.339844 C 180.664062 204.011719 178.453125 204.480469 178.734375 206.410156 " fill-opacity="1" fill-rule="nonzero"/><path fill="#b99799" d="M 171.070312 205.507812 C 170.601562 207.464844 173 208.894531 174.632812 207.316406 C 175.636719 206.351562 174.75 204.808594 174.050781 204.457031 C 173.347656 204.105469 171.421875 204.046875 171.070312 205.507812 " fill-opacity="1" fill-rule="nonzero"/><path fill="#b99799" d="M 171.136719 189.078125 C 171.382812 190.746094 173.78125 191.382812 174.566406 190.15625 C 175.351562 188.933594 174.8125 187.265625 173.980469 186.925781 C 173.144531 186.582031 170.84375 187.070312 171.136719 189.078125 " fill-opacity="1" fill-rule="nonzero"/><path fill="#b99799" d="M 177.015625 216.875 C 177.257812 218.542969 179.660156 219.179688 180.445312 217.953125 C 181.230469 216.730469 180.691406 215.0625 179.855469 214.71875 C 179.023438 214.378906 176.722656 214.867188 177.015625 216.875 " fill-opacity="1" fill-rule="nonzero"/><path fill="#b99799" d="M 162.769531 206.59375 C 163.015625 208.257812 165.417969 208.894531 166.203125 207.671875 C 166.984375 206.445312 166.445312 204.78125 165.613281 204.4375 C 164.78125 204.09375 162.476562 204.585938 162.769531 206.59375 " fill-opacity="1" fill-rule="nonzero"/><path fill="#b99799" d="M 171.363281 197.585938 C 171.605469 199.25 174.007812 199.886719 174.792969 198.664062 C 175.578125 197.4375 175.039062 195.773438 174.207031 195.429688 C 173.371094 195.085938 171.070312 195.578125 171.363281 197.585938 " fill-opacity="1" fill-rule="nonzero"/><path fill="#b99799" d="M 165.058594 150.679688 C 164.609375 152.546875 166.898438 153.910156 168.460938 152.40625 C 169.417969 151.480469 168.570312 150.007812 167.902344 149.675781 C 167.234375 149.339844 165.394531 149.285156 165.058594 150.679688 " fill-opacity="1" fill-rule="nonzero"/><path fill="#b99799" d="M 159.40625 156.730469 C 159.03125 158.707031 161.042969 160.066406 162.242188 159.183594 C 163.4375 158.304688 163.5625 156.667969 162.429688 155.910156 C 161.296875 155.15625 159.660156 155.40625 159.40625 156.730469 " fill-opacity="1" fill-rule="nonzero"/><path fill="#b99799" d="M 168.886719 174.917969 C 168.511719 176.890625 170.523438 178.253906 171.722656 177.371094 C 172.917969 176.492188 173.042969 174.851562 171.910156 174.097656 C 170.777344 173.34375 169.140625 173.59375 168.886719 174.917969 " fill-opacity="1" fill-rule="nonzero"/><path fill="#b99799" d="M 165.109375 160.984375 C 163.867188 160.785156 162.625 161.828125 162.773438 163.367188 C 162.921875 164.90625 165.058594 165.402344 166.203125 164.507812 C 167.34375 163.613281 167.464844 161.359375 165.109375 160.984375 " fill-opacity="1" fill-rule="nonzero"/><path fill="#b99799" d="M 168.386719 167.617188 C 167.253906 167.4375 166.125 168.386719 166.261719 169.789062 C 166.394531 171.191406 168.339844 171.640625 169.382812 170.828125 C 170.421875 170.011719 170.535156 167.960938 168.386719 167.617188 " fill-opacity="1" fill-rule="nonzero"/><path fill="#b99799" d="M 171.628906 213.800781 C 169.964844 213.519531 168.625 215.613281 169.550781 216.734375 C 170.476562 217.855469 172.226562 217.851562 172.808594 217.164062 C 173.390625 216.476562 173.632812 214.136719 171.628906 213.800781 " fill-opacity="1" fill-rule="nonzero"/><path fill="#b99799" d="M 179.597656 178.644531 C 177.9375 178.363281 176.59375 180.453125 177.519531 181.578125 C 178.445312 182.699219 180.199219 182.695312 180.78125 182.007812 C 181.363281 181.320312 181.601562 178.980469 179.597656 178.644531 " fill-opacity="1" fill-rule="nonzero"/><path fill="#b99799" d="M 189.324219 195.152344 C 187.664062 194.875 186.320312 196.964844 187.246094 198.085938 C 188.171875 199.207031 189.921875 199.207031 190.507812 198.519531 C 191.089844 197.832031 191.328125 195.488281 189.324219 195.152344 " fill-opacity="1" fill-rule="nonzero"/><path fill="#b99799" d="M 170.289062 223.792969 C 168.648438 222.792969 166.644531 224.554688 167.601562 226.5 C 168.1875 227.695312 169.851562 227.34375 170.375 226.808594 C 170.898438 226.273438 171.515625 224.539062 170.289062 223.792969 " fill-opacity="1" fill-rule="nonzero"/><path fill="#b99799" d="M 157.863281 149.390625 C 156.21875 148.390625 154.21875 150.152344 155.171875 152.097656 C 155.757812 153.292969 157.421875 152.941406 157.945312 152.40625 C 158.46875 151.871094 159.085938 150.136719 157.863281 149.390625 " fill-opacity="1" fill-rule="nonzero"/><path fill="#b99799" d="M 188.839844 176.972656 C 187.199219 175.972656 185.195312 177.734375 186.152344 179.679688 C 186.734375 180.875 188.398438 180.523438 188.921875 179.988281 C 189.449219 179.453125 190.066406 177.71875 188.839844 176.972656 " fill-opacity="1" fill-rule="nonzero"/><path fill="#b99799" d="M 164.078125 213.457031 C 162.4375 212.457031 160.4375 214.214844 161.390625 216.164062 C 161.976562 217.359375 163.640625 217.003906 164.164062 216.472656 C 164.6875 215.9375 165.304688 214.203125 164.078125 213.457031 " fill-opacity="1" fill-rule="nonzero"/><path fill="#b99799" d="M 189.882812 204.398438 C 188.164062 203.355469 186.074219 205.195312 187.074219 207.230469 C 187.683594 208.476562 189.421875 208.109375 189.96875 207.550781 C 190.515625 206.992188 191.160156 205.179688 189.882812 204.398438 " fill-opacity="1" fill-rule="nonzero"/><path fill="#b99799" d="M 179.792969 152.523438 C 178.132812 151.511719 176.109375 153.289062 177.074219 155.257812 C 177.667969 156.464844 179.347656 156.109375 179.878906 155.570312 C 180.40625 155.027344 181.03125 153.277344 179.792969 152.523438 " fill-opacity="1" fill-rule="nonzero"/><path fill="#b99799" d="M 173.382812 180.707031 C 171.671875 179.707031 169.660156 181.339844 170.691406 183.226562 C 171.324219 184.382812 173.023438 184.089844 173.546875 183.589844 C 174.070312 183.09375 174.660156 181.453125 173.382812 180.707031 " fill-opacity="1" fill-rule="nonzero"/><path fill="#b99799" d="M 178.511719 225.792969 C 176.746094 224.828125 174.832031 226.328125 175.304688 227.738281 C 175.777344 229.148438 177.296875 229.769531 178.363281 228.921875 C 179.433594 228.074219 179.695312 226.4375 178.511719 225.792969 " fill-opacity="1" fill-rule="nonzero"/><path fill="#b99799" d="M 182.855469 159.460938 C 181.085938 158.496094 179.171875 159.996094 179.644531 161.402344 C 180.117188 162.8125 181.636719 163.433594 182.707031 162.585938 C 183.773438 161.742188 184.035156 160.105469 182.855469 159.460938 " fill-opacity="1" fill-rule="nonzero"/><path fill="#b99799" d="M 174.90625 162.8125 C 173.140625 161.851562 171.226562 163.347656 171.699219 164.757812 C 172.171875 166.167969 173.691406 166.789062 174.757812 165.941406 C 175.828125 165.09375 176.089844 163.457031 174.90625 162.8125 " fill-opacity="1" fill-rule="nonzero"/><path fill="#b99799" d="M 171.09375 156.167969 C 169.328125 155.203125 167.414062 156.703125 167.886719 158.113281 C 168.359375 159.523438 169.878906 160.144531 170.945312 159.296875 C 172.015625 158.449219 172.277344 156.816406 171.09375 156.167969 " fill-opacity="1" fill-rule="nonzero"/><path fill="#b99799" d="M 186.269531 167.964844 C 184.488281 166.996094 182.5625 168.503906 183.039062 169.921875 C 183.515625 171.339844 185.046875 171.96875 186.121094 171.113281 C 187.195312 170.261719 187.457031 168.617188 186.269531 167.964844 " fill-opacity="1" fill-rule="nonzero"/><path fill="#b99799" d="M 178.347656 171.066406 C 176.578125 170.101562 174.664062 171.601562 175.136719 173.011719 C 175.609375 174.421875 177.132812 175.042969 178.199219 174.195312 C 179.265625 173.347656 179.527344 171.710938 178.347656 171.066406 " fill-opacity="1" fill-rule="nonzero"/><path fill="#b99799" d="M 161.710938 221.816406 C 159.945312 220.851562 158.03125 222.351562 158.503906 223.761719 C 158.976562 225.171875 160.496094 225.792969 161.5625 224.945312 C 162.632812 224.097656 162.894531 222.460938 161.710938 221.816406 " fill-opacity="1" fill-rule="nonzero"/><path fill="#b99799" d="M 181.722656 195.503906 C 179.953125 194.539062 178.039062 196.039062 178.511719 197.445312 C 178.988281 198.855469 180.507812 199.476562 181.574219 198.632812 C 182.640625 197.785156 182.902344 196.148438 181.722656 195.503906 " fill-opacity="1" fill-rule="nonzero"/><path fill="#b99799" d="M 153.007812 154.824219 C 151.242188 153.859375 149.328125 155.359375 149.800781 156.769531 C 150.273438 158.179688 151.792969 158.800781 152.859375 157.953125 C 153.929688 157.105469 154.191406 155.472656 153.007812 154.824219 " fill-opacity="1" fill-rule="nonzero"/><path fill="#b99799" d="M 182.5625 188.851562 C 183.136719 187.730469 182.523438 186.230469 181.011719 185.898438 C 179.5 185.570312 178.371094 187.449219 178.871094 188.8125 C 179.371094 190.171875 181.484375 190.980469 182.5625 188.851562 " fill-opacity="1" fill-rule="nonzero"/><path fill="#b99799" d="M 190.421875 188.113281 C 190.941406 187.089844 190.386719 185.722656 189.007812 185.421875 C 187.632812 185.121094 186.605469 186.835938 187.058594 188.074219 C 187.515625 189.316406 189.4375 190.050781 190.421875 188.113281 " fill-opacity="1" fill-rule="nonzero"/><path fill="#b99799" d="M 164.050781 146.304688 C 164.570312 145.28125 164.011719 143.914062 162.636719 143.613281 C 161.257812 143.3125 160.230469 145.027344 160.6875 146.265625 C 161.144531 147.507812 163.066406 148.242188 164.050781 146.304688 " fill-opacity="1" fill-rule="nonzero"/><path fill="#b99799" d="M 203.730469 124.609375 C 203.730469 124.609375 199.09375 128.902344 199.660156 129.921875 C 200.226562 130.9375 207.683594 130.484375 208.25 131.617188 C 208.816406 132.746094 203.617188 137.265625 204.183594 138.054688 C 204.746094 138.847656 213.226562 138.621094 213.675781 139.523438 C 214.128906 140.429688 208.25 145.851562 209.042969 146.757812 C 209.832031 147.660156 217.519531 146.078125 217.859375 146.980469 C 218.199219 147.886719 212.207031 153.648438 212.773438 154.890625 C 213.335938 156.132812 220.574219 153.988281 221.023438 155.117188 C 221.476562 156.246094 215.371094 161.898438 215.824219 162.914062 C 216.277344 163.929688 223.511719 164.382812 223.964844 165.398438 C 224.414062 166.417969 217.519531 170.257812 217.859375 171.386719 C 218.199219 172.519531 225.09375 174.210938 225.320312 175.230469 C 225.546875 176.246094 218.425781 180.316406 218.539062 181.105469 C 218.652344 181.894531 226.339844 183.589844 226.449219 184.71875 C 226.566406 185.851562 219.328125 188.902344 219.441406 189.917969 C 219.554688 190.933594 226.226562 192.292969 226.449219 193.984375 C 226.675781 195.679688 219.78125 197.488281 219.894531 198.503906 C 220.007812 199.523438 226.113281 202.320312 226.113281 203.222656 C 226.113281 204.125 218.875 206.1875 218.988281 207.09375 C 219.101562 207.996094 224.414062 211.132812 224.414062 212.375 C 224.414062 213.617188 218.3125 215.566406 218.3125 216.808594 C 218.3125 218.054688 223.425781 220.058594 223.652344 221.527344 C 223.878906 222.996094 216.050781 224.605469 216.050781 225.851562 C 216.050781 227.09375 222.4375 230.933594 222.550781 229.917969 C 222.664062 228.898438 228.65625 201.273438 227.128906 182.460938 C 225.617188 163.828125 219.632812 146.292969 215.035156 138.054688 C 212.320312 133.195312 209.378906 129.46875 206.441406 126.644531 C 205.914062 126.132812 203.730469 124.609375 203.730469 124.609375 " fill-opacity="1" fill-rule="nonzero"/><path fill="#b99799" d="M 217.40625 123.820312 C 217.40625 123.820312 223.511719 128.339844 231.761719 148.339844 C 240.015625 168.335938 239 190.144531 237.753906 203.816406 C 236.511719 217.488281 233.574219 231.726562 233.007812 231.046875 C 232.441406 230.367188 227.46875 226.867188 227.582031 225.960938 C 227.695312 225.058594 233.347656 224.15625 233.683594 223.136719 C 234.023438 222.121094 228.371094 219.183594 228.371094 218.277344 C 228.371094 217.375 235.269531 215.230469 235.15625 214.097656 C 235.042969 212.96875 228.738281 210.382812 229.390625 208.5625 C 229.953125 206.980469 235.945312 206.1875 236.171875 204.832031 C 236.398438 203.476562 230.746094 200.765625 230.972656 199.070312 C 231.167969 197.609375 237.191406 196.246094 237.191406 194.550781 C 237.191406 192.855469 231.039062 191.1875 230.859375 189.578125 C 230.746094 188.5625 237.191406 185.625 237.191406 184.269531 C 237.191406 182.914062 230.691406 181.894531 230.691406 180.425781 C 230.691406 178.957031 237.132812 175.398438 236.792969 174.835938 C 236.453125 174.269531 229.445312 171.785156 229.332031 170.765625 C 229.21875 169.75 235.664062 166.359375 235.097656 165.34375 C 234.535156 164.324219 227.523438 163.195312 227.296875 162.292969 C 227.070312 161.390625 233.0625 156.53125 232.726562 155.851562 C 232.386719 155.175781 225.375 154.382812 225.261719 153.480469 C 225.148438 152.574219 229.839844 147.546875 229.503906 146.867188 C 229.164062 146.191406 221.703125 146.023438 221.363281 145.003906 C 221.023438 143.988281 225.941406 138.902344 225.605469 137.886719 C 225.261719 136.871094 217.769531 139.011719 217.292969 138.058594 C 216.730469 136.925781 222.269531 131.050781 221.589844 130.375 C 220.914062 129.695312 213.679688 130.953125 213.113281 129.824219 C 212.550781 128.695312 216.277344 123.707031 217.40625 123.820312 " fill-opacity="1" fill-rule="nonzero"/><path fill="#b99799" d="M 243.746094 233.984375 C 244 231.726562 251.265625 209.859375 247.929688 164.835938 C 246.003906 138.832031 233.460938 125.289062 233.460938 125.289062 C 233.460938 125.289062 229.617188 131.105469 230.183594 132.179688 C 230.710938 133.183594 237.359375 133.195312 237.8125 133.988281 C 238.265625 134.777344 233.96875 139.636719 234.421875 140.765625 C 234.875 141.898438 241.488281 141.445312 241.710938 142.460938 C 241.9375 143.480469 237.699219 148.449219 238.152344 149.582031 C 238.605469 150.710938 244.652344 151.445312 244.765625 152.121094 C 244.878906 152.800781 239.621094 156.980469 239.847656 157.546875 C 240.074219 158.113281 246.460938 159.691406 246.460938 160.597656 C 246.460938 161.5 240.867188 165.003906 241.203125 166.019531 C 241.542969 167.039062 246.96875 169.355469 246.96875 169.917969 C 246.96875 170.484375 241.710938 173.25 241.710938 174.15625 C 241.710938 175.058594 247.363281 177.207031 247.476562 178.222656 C 247.589844 179.242188 242.21875 181.273438 242.21875 182.292969 C 242.21875 183.308594 247.589844 185.964844 247.703125 186.867188 C 247.816406 187.769531 241.988281 190.570312 242.050781 191.441406 C 242.164062 192.96875 247.308594 195.230469 247.308594 196.359375 C 247.308594 197.488281 241.371094 199.972656 241.371094 201.332031 C 241.371094 202.6875 247.027344 205.398438 246.800781 206.527344 C 246.574219 207.65625 241.203125 208.5625 241.203125 209.578125 C 241.203125 210.59375 245.726562 213.871094 245.613281 215.003906 C 245.5 216.132812 239.960938 218.164062 239.847656 219.070312 C 239.734375 219.972656 244.539062 224.15625 244.425781 224.832031 C 244.3125 225.511719 238.660156 226.980469 238.320312 227.882812 C 237.980469 228.789062 243.40625 237.035156 243.746094 233.984375 " fill-opacity="1" fill-rule="nonzero"/><path fill="#b99799" d="M 252 237.375 C 252 237.375 258.554688 212.289062 260.136719 183.363281 C 261.722656 154.441406 250.867188 129.808594 250.867188 129.808594 C 250.417969 129.808594 245.289062 135.820312 245.757812 136.445312 C 246.4375 137.347656 252.902344 138.988281 253.242188 139.917969 C 253.582031 140.851562 247.984375 146.867188 248.324219 147.96875 C 248.664062 149.070312 255.757812 149.835938 255.84375 150.597656 C 255.925781 151.359375 250.445312 155.964844 250.867188 157.152344 C 251.292969 158.335938 257.90625 159.496094 258.078125 160.429688 C 258.246094 161.359375 252.113281 165.285156 252.113281 166.304688 C 252.113281 167.308594 259.351562 169.632812 259.261719 170.511719 C 259.175781 171.359375 252.847656 175.003906 253.015625 176.019531 C 253.1875 177.035156 259.261719 179.523438 259.347656 180.539062 C 259.433594 181.558594 252.902344 184.523438 252.902344 185.285156 C 252.902344 186.046875 258.386719 190.257812 258.554688 191.273438 C 258.726562 192.292969 251.546875 194.550781 251.546875 195.230469 C 251.546875 195.90625 257.765625 199.832031 257.765625 200.765625 C 257.765625 201.699219 250.925781 204.210938 250.753906 205.058594 C 250.585938 205.90625 256.40625 210.058594 256.40625 210.820312 C 256.40625 211.585938 249.9375 213.335938 249.851562 214.097656 C 249.765625 214.859375 255.304688 219.011719 255.050781 219.859375 C 254.796875 220.707031 248.566406 221.558594 248.382812 222.574219 C 248.15625 223.816406 253.523438 227.460938 253.355469 228.5625 C 253.1875 229.664062 247.929688 230.539062 247.589844 231.386719 C 247.253906 232.234375 251.433594 237.628906 252 237.375 " fill-opacity="1" fill-rule="nonzero"/><path fill="#b99799" d="M 261.496094 238.957031 C 261.496094 238.957031 266.46875 219.746094 269.859375 191.5 C 273.25 163.253906 268.050781 138.621094 268.050781 138.621094 C 266.582031 139.074219 261.527344 144.085938 261.753906 145.328125 C 261.980469 146.570312 268.390625 149.015625 268.390625 150.371094 C 268.390625 151.726562 262.757812 154.890625 263.210938 156.472656 C 263.660156 158.054688 269.40625 161.105469 269.40625 161.671875 C 269.40625 162.234375 263.644531 166.507812 263.855469 167.457031 C 264.082031 168.472656 269.519531 171.613281 269.632812 172.519531 C 269.746094 173.421875 263.5 177.007812 263.5 177.800781 C 263.5 178.589844 269.859375 182.6875 269.632812 183.589844 C 269.40625 184.496094 262.625 187.402344 262.738281 188.308594 C 262.851562 189.210938 268.660156 193.628906 268.503906 195.34375 C 268.378906 196.691406 261.753906 197.660156 261.636719 199.238281 C 261.503906 200.964844 266.808594 204.832031 266.695312 205.511719 C 266.582031 206.1875 260.136719 208.320312 260.023438 209.238281 C 259.863281 210.570312 265 215.003906 264.886719 215.90625 C 264.773438 216.808594 258.738281 219.425781 258.554688 220.425781 C 258.328125 221.667969 262.964844 226.300781 262.851562 227.207031 C 262.738281 228.109375 256.726562 230.738281 256.632812 231.953125 C 256.519531 233.417969 260.703125 238.84375 261.496094 238.957031 " fill-opacity="1" fill-rule="nonzero"/><path fill="#b99799" d="M 271.894531 238.730469 C 275.78125 229.664062 279.582031 206.640625 281.390625 187.207031 C 283.199219 167.773438 280.257812 146.304688 280.257812 146.304688 C 277.320312 148.113281 274.035156 151.019531 274.035156 151.949219 C 274.035156 152.882812 280.117188 156.019531 280.371094 157.039062 C 280.628906 158.054688 273.757812 161.953125 273.929688 162.800781 C 274.097656 163.648438 280.628906 166.445312 280.710938 167.207031 C 280.796875 167.96875 274.269531 171.726562 274.269531 172.742188 C 274.269531 173.761719 280.710938 177.039062 280.710938 177.546875 C 280.710938 178.054688 273.902344 181.304688 274.15625 182.234375 C 274.410156 183.167969 280.289062 186.867188 280.203125 187.714844 C 280.117188 188.5625 273.449219 191.078125 273.363281 192.179688 C 273.277344 193.28125 279.269531 197.121094 279.183594 197.882812 C 279.101562 198.648438 272.316406 200.679688 272.402344 201.613281 C 272.488281 202.546875 277.40625 207.375 277.320312 208.054688 C 277.234375 208.730469 271.214844 211.019531 271.046875 211.78125 C 270.878906 212.542969 276.304688 217.800781 276.132812 218.5625 C 275.964844 219.324219 268.925781 221.867188 269.011719 222.460938 C 269.097656 223.054688 273.757812 227.460938 273.757812 228.5625 C 273.757812 229.664062 266.296875 231.019531 266.128906 231.867188 C 265.960938 232.714844 271.640625 239.324219 271.894531 238.730469 " fill-opacity="1" fill-rule="nonzero"/><path fill="#b99799" d="M 289.191406 153.648438 C 289.078125 152.632812 283.496094 157.757812 283.730469 158.574219 C 284.070312 159.757812 289.703125 162.0625 289.871094 163.417969 C 290.039062 164.773438 285.328125 167.464844 285.183594 168.75 C 285.015625 170.273438 290.378906 172.96875 290.378906 173.648438 C 290.378906 174.324219 284.949219 176.867188 284.949219 178.054688 C 284.949219 179.242188 290.882812 182.121094 290.882812 183.140625 C 290.882812 184.15625 285.023438 187.273438 285.023438 188.292969 C 285.023438 189.308594 290.546875 191.445312 290.71875 192.628906 C 290.882812 193.816406 284.378906 196.15625 284.378906 197.175781 C 284.378906 198.191406 289.699219 201.273438 289.359375 202.292969 C 289.019531 203.308594 283.746094 204.386719 283.40625 205.574219 C 283.070312 206.761719 288.09375 209.871094 288.09375 211.226562 C 288.09375 212.582031 281.898438 213.816406 281.898438 214.492188 C 281.898438 215.171875 285.773438 218.546875 285.628906 219.746094 C 285.507812 220.757812 280.035156 221.441406 279.695312 222.628906 C 279.355469 223.816406 283.59375 226.867188 283.59375 227.882812 C 283.59375 228.898438 277.71875 230.351562 277.589844 231.253906 C 277.429688 232.386719 280.542969 238.050781 281.21875 236.695312 C 281.898438 235.339844 287.832031 224.664062 291.222656 198.054688 C 293.398438 181.003906 290.574219 166.085938 289.191406 153.648438 " fill-opacity="1" fill-rule="nonzero"/><path fill="#463635" d="M 114.707031 131.296875 C 114.707031 131.296875 107.246094 146.445312 116.234375 163.902344 L 126.40625 165.089844 L 126.40625 150.003906 C 126.40625 150.003906 117.082031 140.621094 114.707031 131.296875 " fill-opacity="1" fill-rule="nonzero"/><path fill="#705f5d" d="M 128.613281 143.816406 L 126.40625 150.089844 C 126.40625 150.089844 115.691406 142.140625 114.679688 131.503906 C 114.507812 129.722656 120.386719 140.765625 128.613281 143.816406 " fill-opacity="1" fill-rule="nonzero"/><path fill="#705f5d" d="M 140.820312 175.511719 C 137.472656 166.554688 126.015625 160.59375 113.519531 163.140625 C 99.089844 166.078125 90.328125 172.242188 83.328125 179.53125 C 83.378906 179.546875 83.433594 179.566406 83.476562 179.585938 C 83.988281 179.839844 84.632812 180.964844 83.902344 181.667969 C 83.070312 182.472656 81.984375 182.195312 81.511719 181.480469 C 77.230469 186.238281 73.519531 191.371094 69.386719 196.351562 C 69.816406 196.285156 70.304688 196.382812 70.710938 196.652344 C 71.597656 197.246094 71.5 198.523438 70.5625 199.214844 C 69.691406 199.855469 68.289062 198.976562 68.328125 197.609375 C 64.589844 202 60.445312 206.230469 55.1875 209.917969 C 37.554688 222.289062 47.542969 226.527344 50.441406 226.527344 C 52.476562 226.527344 57.5625 225.511719 59.257812 220.765625 C 59.257812 220.765625 60.785156 225.59375 53.324219 227.796875 C 53.324219 227.796875 55.8125 231.046875 61.125 226.867188 C 66.4375 222.6875 66.40625 222.664062 68.980469 222.796875 C 78.757812 223.308594 114.539062 217.882812 122.167969 213.984375 C 129.796875 210.085938 138.027344 208.722656 138.953125 189.238281 C 139.222656 183.589844 142.378906 179.679688 140.820312 175.511719 " fill-opacity="1" fill-rule="nonzero"/><path fill="#b096a4" d="M 83.902344 181.667969 C 84.632812 180.964844 83.988281 179.839844 83.476562 179.585938 C 83.433594 179.566406 83.378906 179.546875 83.328125 179.53125 C 82.710938 180.171875 82.101562 180.820312 81.511719 181.480469 C 81.984375 182.195312 83.070312 182.472656 83.902344 181.667969 " fill-opacity="1" fill-rule="nonzero"/><path fill="#b096a4" d="M 70.5625 199.214844 C 71.5 198.523438 71.597656 197.246094 70.710938 196.652344 C 70.304688 196.382812 69.816406 196.285156 69.386719 196.351562 C 69.035156 196.769531 68.683594 197.191406 68.328125 197.609375 C 68.289062 198.976562 69.691406 199.855469 70.5625 199.214844 " fill-opacity="1" fill-rule="nonzero"/><path fill="#181614" d="M 108.34375 193.339844 C 107.078125 192.929688 106.613281 192.511719 105.902344 191.988281 C 105.589844 191.472656 105.148438 191.054688 104.617188 190.765625 C 104.136719 190.503906 103.59375 190.34375 103.007812 190.34375 C 102.421875 190.34375 101.878906 190.503906 101.394531 190.765625 C 100.902344 191.035156 100.476562 191.414062 100.171875 191.882812 C 98.566406 193.125 97.664062 193.730469 97.664062 193.730469 C 99.164062 194.328125 99.839844 195.382812 100.464844 195.957031 C 101.089844 196.664062 101.988281 197.121094 103.007812 197.121094 C 103.675781 197.121094 104.292969 196.921875 104.820312 196.589844 L 104.824219 196.585938 C 105.316406 196.269531 105.710938 195.832031 105.988281 195.316406 C 107.472656 193.839844 108.34375 193.339844 108.34375 193.339844 " fill-opacity="1" fill-rule="nonzero"/><path fill="#b096a4" d="M 114.058594 181.542969 C 114.277344 183.039062 116.433594 183.609375 117.136719 182.511719 C 117.839844 181.414062 117.359375 179.917969 116.609375 179.609375 C 115.863281 179.300781 113.796875 179.742188 114.058594 181.542969 " fill-opacity="1" fill-rule="nonzero"/><path fill="#b096a4" d="M 120.164062 181.65625 C 120.382812 183.152344 122.539062 183.722656 123.242188 182.625 C 123.945312 181.527344 123.460938 180.03125 122.714844 179.722656 C 121.964844 179.414062 119.898438 179.855469 120.164062 181.65625 " fill-opacity="1" fill-rule="nonzero"/><path fill="#b096a4" d="M 100.703125 183.125 C 100.921875 184.621094 103.078125 185.191406 103.78125 184.09375 C 104.488281 182.996094 104.003906 181.5 103.253906 181.191406 C 102.507812 180.882812 100.441406 181.324219 100.703125 183.125 " fill-opacity="1" fill-rule="nonzero"/><path fill="#b096a4" d="M 95.503906 172.277344 C 95.722656 173.773438 97.878906 174.34375 98.582031 173.246094 C 99.285156 172.148438 98.800781 170.652344 98.054688 170.34375 C 97.308594 170.039062 95.242188 170.476562 95.503906 172.277344 " fill-opacity="1" fill-rule="nonzero"/><path fill="#b096a4" d="M 132.355469 180.980469 C 132.574219 182.472656 134.730469 183.046875 135.433594 181.945312 C 136.136719 180.847656 135.65625 179.351562 134.90625 179.046875 C 134.160156 178.738281 132.09375 179.175781 132.355469 180.980469 " fill-opacity="1" fill-rule="nonzero"/><path fill="#b096a4" d="M 120.011719 173.753906 C 119.609375 175.429688 121.664062 176.65625 123.066406 175.304688 C 123.925781 174.476562 123.164062 173.152344 122.566406 172.855469 C 121.964844 172.554688 120.3125 172.503906 120.011719 173.753906 " fill-opacity="1" fill-rule="nonzero"/><path fill="#b096a4" d="M 84.519531 184.148438 C 84.113281 185.824219 86.167969 187.050781 87.570312 185.699219 C 88.429688 184.871094 87.671875 183.550781 87.070312 183.25 C 86.46875 182.949219 84.816406 182.898438 84.519531 184.148438 " fill-opacity="1" fill-rule="nonzero"/><path fill="#b096a4" d="M 79.542969 188.328125 C 79.140625 190.007812 81.195312 191.230469 82.597656 189.878906 C 83.457031 189.050781 82.695312 187.730469 82.09375 187.429688 C 81.496094 187.128906 79.84375 187.078125 79.542969 188.328125 " fill-opacity="1" fill-rule="nonzero"/><path fill="#b096a4" d="M 110.015625 166.558594 C 109.613281 168.238281 111.667969 169.460938 113.066406 168.109375 C 113.925781 167.28125 113.167969 165.960938 112.566406 165.660156 C 111.96875 165.359375 110.316406 165.3125 110.015625 166.558594 " fill-opacity="1" fill-rule="nonzero"/><path fill="#b096a4" d="M 103.097656 168.410156 C 102.675781 170.164062 104.820312 171.441406 106.285156 170.03125 C 107.183594 169.167969 106.390625 167.785156 105.761719 167.46875 C 105.136719 167.15625 103.410156 167.105469 103.097656 168.410156 " fill-opacity="1" fill-rule="nonzero"/><path fill="#b096a4" d="M 88.390625 175.039062 C 88.046875 176.464844 89.792969 177.507812 90.984375 176.359375 C 91.71875 175.65625 91.070312 174.53125 90.5625 174.273438 C 90.050781 174.019531 88.644531 173.976562 88.390625 175.039062 " fill-opacity="1" fill-rule="nonzero"/><path fill="#b096a4" d="M 116.316406 166.140625 C 115.933594 167.878906 117.882812 169.144531 119.210938 167.746094 C 120.023438 166.890625 119.304688 165.519531 118.734375 165.210938 C 118.167969 164.898438 116.601562 164.847656 116.316406 166.140625 " fill-opacity="1" fill-rule="nonzero"/><path fill="#b096a4" d="M 113.578125 174.042969 C 113.238281 175.816406 115.046875 177.039062 116.121094 176.246094 C 117.195312 175.457031 117.308594 173.988281 116.289062 173.308594 C 115.273438 172.628906 113.800781 172.855469 113.578125 174.042969 " fill-opacity="1" fill-rule="nonzero"/><path fill="#b096a4" d="M 77.402344 197.882812 C 77.0625 199.65625 78.871094 200.878906 79.945312 200.085938 C 81.019531 199.296875 81.132812 197.828125 80.117188 197.148438 C 79.097656 196.472656 77.628906 196.699219 77.402344 197.882812 " fill-opacity="1" fill-rule="nonzero"/><path fill="#b096a4" d="M 83.507812 193.136719 C 83.167969 194.910156 84.976562 196.132812 86.050781 195.34375 C 87.125 194.550781 87.238281 193.082031 86.21875 192.402344 C 85.203125 191.726562 83.734375 191.953125 83.507812 193.136719 " fill-opacity="1" fill-rule="nonzero"/><path fill="#b096a4" d="M 94.246094 184.890625 C 93.90625 186.664062 95.714844 187.882812 96.789062 187.09375 C 97.863281 186.304688 97.976562 184.832031 96.957031 184.15625 C 95.941406 183.476562 94.472656 183.703125 94.246094 184.890625 " fill-opacity="1" fill-rule="nonzero"/><path fill="#b096a4" d="M 88.027344 188.957031 C 87.691406 190.730469 89.496094 191.953125 90.570312 191.160156 C 91.644531 190.371094 91.757812 188.902344 90.742188 188.222656 C 89.722656 187.546875 88.253906 187.773438 88.027344 188.957031 " fill-opacity="1" fill-rule="nonzero"/><path fill="#b096a4" d="M 121.65625 165.859375 C 121.339844 167.515625 123.03125 168.65625 124.035156 167.917969 C 125.039062 167.179688 125.144531 165.804688 124.191406 165.171875 C 123.242188 164.539062 121.867188 164.75 121.65625 165.859375 " fill-opacity="1" fill-rule="nonzero"/><path fill="#b096a4" d="M 91.53125 179.804688 C 91.195312 181.578125 93.003906 182.800781 94.078125 182.007812 C 95.148438 181.21875 95.261719 179.75 94.246094 179.070312 C 93.230469 178.394531 91.757812 178.617188 91.53125 179.804688 " fill-opacity="1" fill-rule="nonzero"/><path fill="#b096a4" d="M 126.464844 180.933594 C 126.125 182.707031 127.933594 183.929688 129.007812 183.140625 C 130.082031 182.347656 130.195312 180.878906 129.175781 180.203125 C 128.160156 179.523438 126.691406 179.75 126.464844 180.933594 " fill-opacity="1" fill-rule="nonzero"/><path fill="#b096a4" d="M 107.585938 180.933594 C 107.246094 182.707031 109.054688 183.929688 110.128906 183.140625 C 111.203125 182.347656 111.316406 180.878906 110.296875 180.203125 C 109.28125 179.523438 107.8125 179.75 107.585938 180.933594 " fill-opacity="1" fill-rule="nonzero"/><path fill="#b096a4" d="M 125.398438 174.390625 C 125.113281 175.882812 126.632812 176.910156 127.539062 176.246094 C 128.441406 175.582031 128.535156 174.34375 127.679688 173.773438 C 126.824219 173.203125 125.585938 173.394531 125.398438 174.390625 " fill-opacity="1" fill-rule="nonzero"/><path fill="#b096a4" d="M 108.941406 173.527344 C 107.828125 173.351562 106.714844 174.285156 106.847656 175.667969 C 106.980469 177.046875 108.898438 177.496094 109.921875 176.691406 C 110.949219 175.890625 111.058594 173.867188 108.941406 173.527344 " fill-opacity="1" fill-rule="nonzero"/><path fill="#b096a4" d="M 73 200.089844 C 71.851562 199.90625 70.707031 200.867188 70.84375 202.289062 C 70.980469 203.714844 72.957031 204.171875 74.011719 203.347656 C 75.066406 202.519531 75.179688 200.4375 73 200.089844 " fill-opacity="1" fill-rule="nonzero"/><path fill="#b096a4" d="M 100.644531 175.398438 C 99.628906 175.238281 98.613281 176.089844 98.738281 177.347656 C 98.859375 178.605469 100.605469 179.011719 101.539062 178.28125 C 102.472656 177.550781 102.570312 175.707031 100.644531 175.398438 " fill-opacity="1" fill-rule="nonzero"/><path fill="#b096a4" d="M 76.140625 191.585938 C 75.125 191.421875 74.113281 192.277344 74.234375 193.535156 C 74.355469 194.792969 76.101562 195.199219 77.035156 194.46875 C 77.96875 193.734375 78.066406 191.894531 76.140625 191.585938 " fill-opacity="1" fill-rule="nonzero"/><path fill="#f1ecec" d="M 105.042969 192.628906 C 105.042969 192.070312 104.585938 191.613281 104.023438 191.613281 C 103.460938 191.613281 103.007812 192.070312 103.007812 192.628906 C 103.007812 193.191406 103.460938 193.648438 104.023438 193.648438 C 104.585938 193.648438 105.042969 193.191406 105.042969 192.628906 " fill-opacity="1" fill-rule="nonzero"/><path fill="#615352" d="M 134.546875 179.238281 C 138.871094 180.066406 143.703125 165.679688 144.550781 160.089844 C 145.398438 154.496094 142.175781 148.222656 138.957031 144.667969 C 137.324219 142.867188 135.488281 132.671875 133.511719 134.886719 C 129.273438 139.632812 123.28125 150.335938 123.015625 161.273438 C 122.796875 170.257812 132.066406 178.769531 134.546875 179.238281 " fill-opacity="1" fill-rule="nonzero"/><path fill="#463635" d="M 134.699219 176.957031 C 137.910156 177.5 141.265625 166.796875 141.804688 162.652344 C 142.347656 158.503906 139.875 153.917969 137.4375 151.335938 C 136.207031 150.03125 134.695312 142.523438 133.269531 144.191406 C 130.207031 147.761719 125.941406 155.765625 125.90625 163.851562 C 125.882812 170.496094 132.859375 176.644531 134.699219 176.957031 " fill-opacity="1" fill-rule="nonzero"/></svg>