<svg xmlns="http://www.w3.org/2000/svg" xmlns:xlink="http://www.w3.org/1999/xlink" width="500" zoomAndPan="magnify" viewBox="0 0 375 374.999991" height="500" preserveAspectRatio="xMidYMid meet" version="1.0"><defs><clipPath id="2765c74975"><path d="M 137 43 L 190 43 L 190 346.707031 L 137 346.707031 Z M 137 43 " clip-rule="nonzero"/></clipPath><clipPath id="93bc3ad401"><path d="M 258 211.464844 L 282 211.464844 L 282 346.460938 L 258 346.460938 Z M 258 211.464844 " clip-rule="nonzero"/></clipPath></defs><rect x="-37.5" width="450" fill="#ffffff" y="-37.499999" height="449.999989" fill-opacity="1"/><rect x="-37.5" width="450" fill="#fffaef" y="-37.499999" height="449.999989" fill-opacity="1"/><g clip-path="url(#2765c74975)"><path fill="#9ac19a" d="M 189.710938 76.40625 C 189.710938 76.40625 192.242188 43.050781 164.152344 43.050781 C 133.714844 43.050781 137.421875 76.40625 137.421875 76.40625 L 137.421875 346.414062 L 189.710938 346.414062 L 189.710938 76.40625 " fill-opacity="1" fill-rule="nonzero"/></g><path fill="#9ac19a" d="M 190.433594 218.894531 C 187.914062 218.894531 185.570312 218.765625 183.464844 218.542969 C 174.464844 217.566406 167.957031 209.492188 168.929688 200.492188 C 169.890625 191.523438 177.921875 185.023438 186.894531 185.941406 C 187.390625 185.992188 210.589844 187.96875 213.714844 174.074219 C 218.492188 152.796875 215.546875 114.660156 214.011719 101.761719 C 212.941406 92.769531 219.363281 84.613281 228.347656 83.546875 C 237.335938 82.480469 245.488281 88.894531 246.558594 97.886719 C 246.816406 100.007812 252.664062 150.191406 245.6875 181.253906 C 238.949219 211.296875 209.6875 218.894531 190.433594 218.894531 " fill-opacity="1" fill-rule="nonzero"/><path fill="#9ac19a" d="M 138.898438 252.84375 C 119.226562 252.84375 89.28125 245.269531 82.335938 215.316406 C 75.113281 184.167969 81.171875 133.890625 81.433594 131.769531 C 82.539062 122.785156 90.71875 116.398438 99.699219 117.503906 C 108.679688 118.605469 115.070312 126.78125 113.960938 135.765625 C 112.386719 148.660156 109.363281 186.761719 114.265625 207.910156 C 117.550781 222.066406 142.378906 219.910156 142.636719 219.886719 C 151.628906 218.953125 159.652344 225.484375 160.589844 234.488281 C 161.527344 243.492188 154.949219 251.550781 145.949219 252.488281 C 143.820312 252.71875 141.441406 252.84375 138.898438 252.84375 " fill-opacity="1" fill-rule="nonzero"/><g clip-path="url(#93bc3ad401)"><path fill="#789b78" d="M 258.476562 226.339844 C 258.476562 226.339844 257.351562 211.503906 269.84375 211.503906 C 283.378906 211.503906 281.730469 226.339844 281.730469 226.339844 L 281.730469 346.417969 L 258.476562 346.417969 L 258.476562 226.339844 " fill-opacity="1" fill-rule="nonzero"/></g><path fill="#789b78" d="M 258.15625 289.703125 C 259.277344 289.703125 260.316406 289.648438 261.253906 289.550781 C 265.257812 289.117188 268.152344 285.523438 267.71875 281.519531 C 267.292969 277.535156 263.71875 274.640625 259.730469 275.050781 C 259.507812 275.074219 249.191406 275.953125 247.800781 269.773438 C 245.679688 260.3125 246.988281 243.351562 247.671875 237.613281 C 248.144531 233.617188 245.289062 229.988281 241.292969 229.515625 C 237.296875 229.039062 233.671875 231.894531 233.195312 235.890625 C 233.082031 236.835938 230.480469 259.152344 233.582031 272.964844 C 236.582031 286.328125 249.59375 289.703125 258.15625 289.703125 " fill-opacity="1" fill-rule="nonzero"/><path fill="#789b78" d="M 281.074219 304.804688 C 289.820312 304.804688 303.140625 301.433594 306.226562 288.113281 C 309.441406 274.261719 306.746094 251.902344 306.628906 250.960938 C 306.136719 246.964844 302.5 244.125 298.507812 244.613281 C 294.515625 245.105469 291.671875 248.742188 292.164062 252.738281 C 292.863281 258.472656 294.210938 275.414062 292.027344 284.820312 C 290.566406 291.117188 279.527344 290.15625 279.414062 290.148438 C 275.414062 289.730469 271.84375 292.636719 271.429688 296.640625 C 271.011719 300.644531 273.9375 304.230469 277.9375 304.644531 C 278.886719 304.746094 279.945312 304.804688 281.074219 304.804688 " fill-opacity="1" fill-rule="nonzero"/></svg>