<svg xmlns="http://www.w3.org/2000/svg" xmlns:xlink="http://www.w3.org/1999/xlink" width="500" zoomAndPan="magnify" viewBox="0 0 375 374.999991" height="500" preserveAspectRatio="xMidYMid meet" version="1.0"><defs><clipPath id="499ea9d2bf"><path d="M 159 37.5 L 215 37.5 L 215 352.5 L 159 352.5 Z M 159 37.5 " clip-rule="nonzero"/></clipPath></defs><rect x="-37.5" width="450" fill="#ffffff" y="-37.499999" height="449.999989" fill-opacity="1"/><rect x="-37.5" width="450" fill="#fffaef" y="-37.499999" height="449.999989" fill-opacity="1"/><g clip-path="url(#499ea9d2bf)"><path fill="#9ac19a" d="M 214.3125 72.195312 C 214.3125 72.195312 216.941406 37.605469 187.804688 37.605469 C 156.238281 37.605469 160.082031 72.195312 160.082031 72.195312 L 160.082031 352.222656 L 214.3125 352.222656 L 214.3125 72.195312 " fill-opacity="1" fill-rule="nonzero"/></g><path fill="#9ac19a" d="M 215.0625 219.96875 C 212.449219 219.96875 210.019531 219.839844 207.832031 219.609375 C 198.503906 218.597656 191.753906 210.222656 192.757812 200.886719 C 193.757812 191.585938 202.085938 184.84375 211.390625 185.796875 C 211.90625 185.851562 235.964844 187.898438 239.207031 173.492188 C 244.160156 151.421875 241.109375 111.871094 239.515625 98.492188 C 238.40625 89.171875 245.066406 80.710938 254.382812 79.605469 C 263.703125 78.496094 272.160156 85.152344 273.273438 94.476562 C 273.535156 96.671875 279.601562 148.722656 272.367188 180.9375 C 265.378906 212.09375 235.03125 219.96875 215.0625 219.96875 " fill-opacity="1" fill-rule="nonzero"/><path fill="#9ac19a" d="M 161.617188 255.179688 C 141.214844 255.179688 110.160156 247.324219 102.953125 216.261719 C 95.464844 183.957031 101.746094 131.816406 102.019531 129.613281 C 103.164062 120.296875 111.648438 113.675781 120.960938 114.820312 C 130.273438 115.964844 136.902344 124.441406 135.753906 133.757812 C 134.117188 147.132812 130.984375 186.648438 136.070312 208.578125 C 139.476562 223.261719 165.226562 221.023438 165.492188 221 C 174.820312 220.035156 183.140625 226.808594 184.109375 236.148438 C 185.085938 245.480469 178.261719 253.84375 168.929688 254.8125 C 166.71875 255.050781 164.253906 255.179688 161.617188 255.179688 " fill-opacity="1" fill-rule="nonzero"/></svg>