<svg xmlns="http://www.w3.org/2000/svg" xmlns:xlink="http://www.w3.org/1999/xlink" width="500" zoomAndPan="magnify" viewBox="0 0 375 374.999991" height="500" preserveAspectRatio="xMidYMid meet" version="1.0"><defs><g/><clipPath id="49641b297f"><path d="M 66.140625 99.429688 L 294.890625 99.429688 L 294.890625 374.679688 L 66.140625 374.679688 Z M 66.140625 99.429688 " clip-rule="nonzero"/></clipPath></defs><g clip-path="url(#49641b297f)"><path fill="#000000" d="M 287.777344 152.769531 C 283.878906 149.855469 283.332031 150.117188 277.273438 152.992188 C 274.222656 154.441406 269.585938 156.640625 262.015625 159.511719 C 256.367188 161.652344 247.472656 162.617188 237.519531 162.898438 C 235.695312 154.960938 224.4375 106.554688 220.253906 102.960938 C 217.921875 100.960938 213.914062 99.867188 209.308594 99.671875 C 204.777344 99.480469 199.605469 100.152344 194.894531 101.683594 C 180.515625 104.300781 166.441406 101.78125 166.140625 101.683594 C 161.429688 100.148438 156.257812 99.480469 151.726562 99.671875 C 147.121094 99.863281 143.113281 100.960938 140.78125 102.960938 C 136.597656 106.554688 125.339844 154.960938 123.515625 162.894531 C 113.566406 162.617188 104.667969 161.648438 99.019531 159.507812 C 91.449219 156.640625 86.8125 154.4375 83.761719 152.992188 C 77.703125 150.117188 77.152344 149.855469 73.257812 152.769531 C 70.019531 155.195312 66.140625 167.820312 66.140625 181.660156 C 66.140625 191.210938 67.917969 201.4375 72.90625 209.4375 C 76.414062 215.054688 84.863281 219.839844 95.675781 223.679688 C 107.828125 228 123.046875 231.179688 137.511719 233.027344 C 135.941406 236.054688 133.34375 241.769531 135.09375 243.542969 C 135.570312 244.027344 136.464844 244.558594 137.542969 245.085938 C 138.050781 246.289062 139.480469 249.859375 140.507812 254.328125 C 137.371094 255.796875 127.875 260.816406 121.820312 270.097656 C 115.464844 279.835938 116.75 289.066406 117.277344 291.601562 C 116.058594 293.996094 115.136719 296.347656 114.488281 298.65625 C 111.058594 310.835938 115.105469 321.730469 123.199219 331.234375 C 131.097656 340.503906 142.875 348.429688 155.222656 354.902344 C 174.019531 364.75 194.183594 371.25 203.890625 373.96875 L 206.277344 374.636719 L 206.085938 372.175781 C 204.585938 352.820312 214.734375 345.042969 225.003906 337.167969 C 235.828125 328.875 246.777344 320.480469 246.082031 299.644531 C 245.84375 292.523438 244.148438 283.078125 240.539062 278.378906 C 240.09375 275.140625 236.972656 258.117188 220.675781 253.6875 C 221.6875 249.519531 223.007812 246.230469 223.492188 245.085938 C 224.566406 244.558594 225.464844 244.027344 225.9375 243.542969 C 227.6875 241.769531 225.09375 236.054688 223.519531 233.027344 C 237.984375 231.179688 253.203125 228 265.359375 223.679688 C 276.171875 219.839844 284.621094 215.054688 288.125 209.4375 C 293.117188 201.4375 294.894531 191.210938 294.894531 181.660156 C 294.894531 167.816406 291.015625 155.195312 287.777344 152.769531 Z M 151.839844 102.460938 C 156.054688 102.28125 160.875 102.90625 165.273438 104.339844 C 169.234375 105.628906 191.800781 105.628906 195.761719 104.339844 C 200.160156 102.910156 204.984375 102.28125 209.199219 102.460938 C 213.191406 102.628906 216.582031 103.503906 218.421875 105.082031 C 218.847656 105.449219 219.378906 106.453125 219.988281 107.945312 C 218.003906 106.382812 214.59375 105.515625 210.597656 105.339844 C 206.175781 105.148438 201.121094 105.824219 196.507812 107.375 C 192.351562 108.769531 168.683594 108.769531 164.527344 107.375 C 159.914062 105.824219 154.859375 105.148438 150.4375 105.339844 C 146.445312 105.511719 143.03125 106.382812 141.050781 107.945312 C 141.660156 106.453125 142.191406 105.449219 142.613281 105.082031 C 144.453125 103.503906 147.84375 102.628906 151.839844 102.460938 Z M 127.300781 158.96875 C 142.515625 154.949219 160.816406 152.601562 180.515625 152.601562 C 200.21875 152.601562 218.519531 154.949219 233.734375 158.96875 C 234.121094 160.628906 234.4375 161.992188 234.660156 162.957031 C 214.164062 163.261719 146.867188 163.261719 126.371094 162.957031 C 126.59375 161.992188 126.910156 160.628906 127.296875 158.96875 Z M 167.152344 263.851562 L 169.089844 272.117188 C 168.097656 271.964844 167.085938 271.710938 166.082031 271.378906 L 164.042969 263.867188 L 167.148438 263.851562 Z M 164.15625 262.273438 L 164.597656 257.824219 L 164.679688 257.765625 L 166.253906 256.710938 L 167.78125 257.832031 C 167.699219 258.925781 167.585938 260.214844 167.492188 261.285156 L 167.40625 262.273438 Z M 173.65625 264.199219 L 174.269531 272.390625 C 172.722656 272.363281 171.417969 272.324219 170.570312 272.273438 L 168.675781 264.207031 C 170.335938 264.207031 171.996094 264.226562 173.65625 264.199219 Z M 168.765625 262.8125 C 168.796875 262.441406 168.839844 261.953125 168.886719 261.40625 C 168.980469 260.34375 169.09375 259.058594 169.179688 257.917969 L 171.277344 256.621094 L 173.738281 257.761719 L 173.75 257.765625 L 173.75 262.804688 C 172.683594 262.820312 170.699219 262.816406 169.347656 262.8125 Z M 164.464844 270.765625 C 163.6875 270.4375 162.921875 270.066406 162.179688 269.660156 L 160.515625 263.503906 C 161.160156 263.53125 161.816406 263.566406 162.515625 263.597656 Z M 162.753906 262.203125 C 162.253906 262.222656 161.535156 262.230469 160.90625 262.234375 L 160.285156 262.195312 L 160.8125 257.734375 L 162.339844 256.902344 L 163.21875 257.550781 L 162.757812 262.203125 Z M 160.445312 268.605469 C 159.671875 268.09375 158.949219 267.550781 158.296875 266.992188 C 158.0625 266.023438 157.804688 264.757812 157.644531 263.394531 C 158.132812 263.40625 158.597656 263.421875 159.046875 263.441406 Z M 158.882812 262.105469 L 157.523438 262.019531 C 157.496094 261.570312 157.484375 261.117188 157.488281 260.667969 C 157.515625 258.753906 158.019531 257.699219 158.539062 257.117188 L 159.40625 257.660156 Z M 158.945312 270.96875 C 162.246094 273.148438 166.308594 274.765625 170.046875 275.042969 C 174.859375 275.402344 178.578125 275.277344 180.515625 275.15625 C 182.453125 275.277344 186.175781 275.402344 190.988281 275.042969 C 194.726562 274.765625 198.789062 273.148438 202.085938 270.96875 C 205.523438 268.699219 208.195312 265.753906 208.921875 262.972656 C 209.125 262.199219 209.285156 261.539062 209.425781 260.96875 C 210.0625 258.363281 210.191406 257.832031 212.132812 256.542969 C 214.796875 254.769531 215.929688 249.917969 216.289062 247.925781 C 217.109375 247.652344 218.453125 247.1875 219.886719 246.632812 C 218.851562 249.5 217.449219 254.039062 216.871094 258.929688 C 216.800781 259.515625 216.707031 260.34375 216.621094 261.128906 C 215.964844 266.96875 215.707031 269.257812 212.101562 271.503906 C 209.875 272.890625 207.367188 274.605469 205.140625 276.332031 C 205.238281 274.46875 205.691406 272.570312 206.296875 270.945312 C 203.289062 273.394531 202.230469 274.929688 202.652344 278.375 C 201.230469 279.628906 200.074219 280.824219 199.402344 281.851562 C 199.183594 282.1875 198.976562 282.554688 198.761719 282.945312 C 197.320312 285.542969 195.121094 289.503906 180.679688 289.003906 L 180.679688 288.992188 C 180.679688 288.992188 180.515625 289 180.515625 289 L 180.355469 288.992188 L 180.355469 289.003906 C 165.914062 289.503906 163.714844 285.542969 162.273438 282.945312 C 162.054688 282.554688 161.851562 282.183594 161.632812 281.851562 C 160.960938 280.828125 159.804688 279.628906 158.382812 278.375 C 158.800781 274.929688 157.746094 273.398438 154.738281 270.945312 C 155.34375 272.570312 155.796875 274.472656 155.894531 276.332031 C 153.667969 274.605469 151.160156 272.890625 148.933594 271.503906 C 145.328125 269.257812 145.070312 266.96875 144.414062 261.128906 C 144.324219 260.34375 144.230469 259.515625 144.164062 258.929688 C 143.582031 254.039062 142.179688 249.5 141.144531 246.632812 C 142.582031 247.1875 143.921875 247.652344 144.742188 247.925781 C 145.105469 249.917969 146.238281 254.769531 148.902344 256.542969 C 150.839844 257.832031 150.972656 258.363281 151.609375 260.96875 C 151.75 261.539062 151.910156 262.199219 152.113281 262.972656 C 152.839844 265.753906 155.507812 268.695312 158.945312 270.96875 Z M 179.917969 264.375 L 179.933594 264.375 C 179.933594 266.171875 179.871094 270.460938 179.839844 272.441406 C 178.402344 272.441406 176.980469 272.429688 175.675781 272.414062 L 175.074219 264.375 Z M 175.15625 262.972656 L 175.15625 257.453125 L 177.671875 256.007812 L 180.210938 257.347656 L 180.214844 257.457031 L 179.980469 262.972656 Z M 181.558594 264.375 L 186.476562 264.375 L 185.875 272.40625 C 184.445312 272.429688 182.855469 272.4375 181.242188 272.441406 C 181.273438 270.460938 181.335938 266.214844 181.335938 264.375 Z M 181.527344 262.972656 L 181.542969 258.121094 L 181.59375 256.941406 L 183.363281 256.007812 L 186.335938 257.714844 L 186.46875 257.792969 L 186.46875 262.972656 Z M 187.894531 264.203125 C 189.488281 264.226562 191.082031 264.210938 192.675781 264.210938 L 190.785156 272.253906 L 190.777344 272.253906 C 190.035156 272.3125 188.796875 272.355469 187.285156 272.386719 Z M 187.824219 262.804688 L 187.824219 257.515625 L 189.757812 256.621094 L 191.949219 257.976562 L 192.269531 258.175781 C 192.351562 259.25 192.449219 260.425781 192.53125 261.410156 C 192.578125 261.957031 192.621094 262.445312 192.648438 262.8125 L 192.085938 262.8125 C 190.777344 262.816406 188.859375 262.824219 187.824219 262.804688 Z M 194.199219 263.851562 L 197.289062 263.867188 L 195.28125 271.265625 C 194.277344 271.617188 193.265625 271.890625 192.269531 272.066406 Z M 193.585938 257.589844 L 194.78125 256.710938 L 196.355469 257.769531 L 196.703125 258 L 197.113281 262.273438 L 193.96875 262.273438 L 193.886719 261.289062 C 193.789062 260.136719 193.667969 258.730469 193.585938 257.589844 Z M 201.988281 263.445312 C 202.4375 263.425781 202.898438 263.410156 203.390625 263.398438 C 203.230469 264.761719 202.96875 266.023438 202.738281 266.992188 C 202.082031 267.550781 201.359375 268.09375 200.589844 268.605469 L 201.988281 263.441406 Z M 201.699219 257.613281 L 202.496094 257.117188 C 203.011719 257.699219 203.519531 258.753906 203.542969 260.667969 C 203.550781 261.117188 203.539062 261.570312 203.511719 262.019531 L 202.214844 262.105469 L 201.703125 257.613281 Z M 200.257812 262.234375 C 199.648438 262.230469 198.953125 262.222656 198.46875 262.207031 L 198.007812 257.414062 L 198.695312 256.90625 L 200.355469 257.808594 L 200.859375 262.195312 Z M 198.816406 263.59375 C 199.410156 263.566406 199.96875 263.535156 200.515625 263.507812 L 198.851562 269.660156 C 198.21875 270.007812 197.570312 270.332031 196.90625 270.621094 Z M 236.269531 274.890625 C 241.949219 295.226562 208.535156 305.851562 194.550781 309.789062 C 210.949219 307.90625 234.480469 302.210938 240.070312 284.769531 C 241.214844 287.796875 242.378906 292.574219 242.621094 299.757812 C 243.257812 318.824219 233.011719 326.679688 222.886719 334.441406 C 212.304688 342.554688 201.847656 350.570312 202.492188 369.976562 C 192.261719 366.980469 173.957031 360.820312 156.832031 351.847656 C 145.417969 345.867188 132.226562 335.953125 124.675781 327.613281 C 139.917969 338.5625 165.335938 343.753906 183.5625 343.964844 C 164.074219 340.621094 109.902344 327.71875 117.820312 299.59375 C 117.972656 299.050781 118.144531 298.503906 118.332031 297.953125 C 129.765625 317.273438 148.964844 320.050781 170.59375 319.210938 C 153.945312 318.996094 121.640625 308.195312 120.292969 288.195312 C 120.054688 284.625 120.480469 278.480469 124.71875 271.984375 C 129.878906 264.078125 137.757812 259.539062 141.179688 257.839844 C 141.25 258.308594 141.316406 258.78125 141.375 259.257812 C 141.488281 260.230469 141.558594 260.855469 141.625 261.4375 C 141.972656 264.511719 142.222656 266.742188 142.832031 268.539062 C 142.832031 268.539062 131.40625 279.398438 149.632812 291.839844 C 182.644531 314.367188 237.503906 282.59375 217.503906 270.113281 C 218.660156 268.0625 218.949219 265.480469 219.40625 261.4375 C 219.46875 260.855469 219.542969 260.230469 219.65625 259.257812 C 219.746094 258.519531 219.851562 257.792969 219.976562 257.078125 C 230.578125 260.0625 234.714844 269.320312 236.269531 274.890625 Z M 223.941406 241.589844 C 222.527344 243.023438 214.644531 245.535156 214.621094 245.542969 L 213.773438 245.8125 L 213.773438 245.816406 C 213.773438 245.816406 209.964844 246.285156 209.964844 246.285156 C 209.964844 246.285156 203.207031 246.703125 202.277344 250.902344 C 201.804688 253.050781 201.574219 254.445312 201.460938 255.292969 L 200.832031 255.6875 L 199.109375 254.75 L 198.523438 254.429688 L 197.984375 254.828125 L 196.910156 255.617188 L 195.335938 254.5625 L 194.722656 254.152344 L 194.128906 254.585938 L 192.449219 255.820312 L 190.382812 254.542969 L 189.902344 254.246094 L 189.386719 254.484375 L 186.902344 255.632812 L 183.902344 253.910156 L 183.398438 253.621094 L 182.886719 253.890625 L 180.515625 255.144531 L 178.140625 253.890625 L 177.632812 253.621094 L 177.128906 253.910156 L 174.125 255.632812 L 171.640625 254.484375 L 171.128906 254.246094 L 170.644531 254.542969 L 168.578125 255.820312 L 166.898438 254.585938 L 166.304688 254.152344 L 165.691406 254.5625 L 164.121094 255.617188 L 163.046875 254.828125 L 162.503906 254.429688 L 161.917969 254.75 L 160.195312 255.6875 L 159.566406 255.292969 C 159.457031 254.445312 159.222656 253.050781 158.75 250.902344 C 157.824219 246.703125 151.0625 246.285156 151.0625 246.285156 L 147.257812 245.816406 L 147.257812 245.8125 C 147.257812 245.8125 146.410156 245.542969 146.410156 245.542969 C 146.386719 245.535156 138.503906 243.023438 137.085938 241.589844 C 136.191406 240.679688 140.972656 232.53125 140.988281 232.507812 L 141.464844 231.6875 L 140.875 230.941406 C 140.296875 230.207031 139.566406 229.453125 138.769531 228.632812 C 135.433594 225.191406 130.839844 220.457031 134.136719 211.65625 C 134.261719 211.324219 134.230469 210.941406 134.097656 210.535156 L 134.292969 209.546875 C 134.472656 209.046875 134.609375 208.757812 134.664062 208.769531 C 134.703125 208.777344 134.628906 208.722656 134.46875 208.628906 L 136.953125 195.878906 L 145.589844 186.480469 L 135.164062 195.09375 L 130.660156 205.855469 L 129.128906 190.839844 C 153.96875 169.582031 208.25 170.597656 231.898438 190.839844 L 230.371094 205.855469 L 225.867188 195.09375 L 215.441406 186.480469 L 224.074219 195.878906 L 226.558594 208.628906 C 226.402344 208.722656 226.328125 208.777344 226.367188 208.769531 C 226.421875 208.757812 226.558594 209.046875 226.738281 209.550781 L 226.929688 210.535156 C 226.796875 210.941406 226.769531 211.324219 226.894531 211.65625 C 230.1875 220.457031 225.597656 225.191406 222.261719 228.632812 C 221.464844 229.453125 220.730469 230.207031 220.152344 230.941406 L 219.5625 231.6875 L 220.042969 232.507812 C 220.054688 232.53125 224.835938 240.679688 223.941406 241.589844 Z M 287.246094 205.277344 C 288.136719 203.078125 288.972656 200.464844 289.6875 197.355469 C 294.148438 177.984375 282.804688 155.792969 282.804688 155.792969 C 282.804688 155.792969 281.644531 156.738281 275.433594 160.308594 C 269.21875 163.878906 258.691406 166.433594 234.144531 169.757812 C 223.851562 171.152344 137.175781 171.152344 126.882812 169.757812 C 102.339844 166.433594 91.808594 163.878906 85.59375 160.308594 C 79.382812 156.738281 78.222656 155.792969 78.222656 155.792969 C 78.222656 155.792969 66.882812 177.984375 71.339844 197.355469 C 72.058594 200.464844 72.890625 203.078125 73.785156 205.277344 C 70.25 198.230469 68.941406 189.714844 68.941406 181.664062 C 68.941406 168.632812 72.203125 157.042969 74.929688 155.003906 C 77.464844 153.109375 77.890625 153.308594 82.550781 155.519531 C 85.621094 156.980469 90.285156 159.191406 98.027344 162.125 C 114.695312 168.96875 217.097656 169.230469 251.699219 164.976562 C 261.953125 163.71875 269.179688 159.933594 278.476562 155.519531 C 283.132812 153.308594 283.558594 153.109375 286.09375 155.003906 C 288.820312 157.042969 292.082031 168.632812 292.082031 181.664062 C 292.082031 189.714844 290.777344 198.234375 287.242188 205.277344 Z M 287.246094 205.277344 " fill-opacity="1" fill-rule="nonzero"/></g><path fill="#000000" d="M 196.988281 189.761719 C 191.621094 188.324219 185.511719 190.113281 185.921875 196.621094 C 188.554688 192.953125 193.007812 191.546875 196.988281 189.761719 Z M 196.988281 189.761719 " fill-opacity="1" fill-rule="nonzero"/><path fill="#000000" d="M 193.257812 283.230469 C 185.363281 277.15625 175.671875 277.15625 167.777344 283.230469 C 175.035156 281.550781 186 281.550781 193.257812 283.230469 Z M 193.257812 283.230469 " fill-opacity="1" fill-rule="nonzero"/><path fill="#000000" d="M 175.3125 196.621094 C 175.722656 190.113281 169.613281 188.324219 164.246094 189.761719 C 168.226562 191.546875 172.679688 192.953125 175.3125 196.621094 Z M 175.3125 196.621094 " fill-opacity="1" fill-rule="nonzero"/><path fill="#000000" d="M 174.105469 211.796875 C 174.558594 210.660156 174.804688 209.21875 174.921875 207.746094 C 175.222656 204.054688 174.738281 200.144531 174.738281 200.144531 C 172.738281 191.953125 142.515625 200.144531 139.882812 203.714844 C 137.25 207.28125 136.828125 218.835938 139.882812 222.929688 C 142.9375 227.027344 151.046875 229.648438 160.523438 226.394531 C 162.730469 225.636719 164.5625 224.65625 166.089844 223.546875 C 162.558594 230.914062 153.015625 236.832031 153.015625 236.832031 C 153.015625 236.832031 161.597656 233.707031 166.546875 227.855469 C 169.148438 224.78125 171.328125 219.378906 172.8125 214.949219 C 173.339844 213.785156 173.746094 212.703125 174.105469 211.796875 Z M 174.105469 211.796875 " fill-opacity="1" fill-rule="nonzero"/><path fill="#000000" d="M 221.152344 222.929688 C 224.207031 218.832031 223.785156 207.28125 221.152344 203.710938 C 218.519531 200.140625 188.296875 191.953125 186.296875 200.140625 C 186.296875 200.140625 185.8125 204.054688 186.113281 207.742188 C 186.234375 209.21875 186.480469 210.65625 186.929688 211.796875 C 187.285156 212.703125 187.695312 213.78125 188.222656 214.945312 C 189.707031 219.378906 191.886719 224.78125 194.488281 227.855469 C 199.4375 233.703125 208.019531 236.828125 208.019531 236.828125 C 208.019531 236.828125 198.476562 230.910156 194.945312 223.542969 C 196.472656 224.652344 198.304688 225.632812 200.511719 226.390625 C 209.988281 229.648438 218.097656 227.019531 221.148438 222.925781 Z M 221.152344 222.929688 " fill-opacity="1" fill-rule="nonzero"/><path fill="#000000" d="M 180.628906 216.960938 C 176.832031 216.792969 170.054688 240.507812 170.089844 240.5625 C 170.40625 241.039062 176.726562 247.191406 176.777344 246.832031 C 176.816406 246.558594 179.390625 244.558594 180.617188 243.617188 C 181.84375 244.558594 184.414062 246.558594 184.453125 246.832031 C 184.507812 247.191406 190.824219 241.039062 191.140625 240.5625 C 191.238281 240.417969 184.421875 217.125 180.628906 216.960938 Z M 180.628906 216.960938 " fill-opacity="1" fill-rule="nonzero"/><path fill="#000000" d="M 215.308594 329.144531 C 224.6875 323.109375 231.910156 316.363281 227.625 307.152344 L 227.382812 306.707031 C 227.277344 308.847656 226.515625 311.050781 225.214844 313.0625 C 221 319.585938 215.722656 322.558594 209.160156 326.871094 C 201.226562 332.082031 195.433594 338.996094 197.222656 347.011719 C 199.289062 340.351562 208.757812 333.355469 215.304688 329.144531 Z M 215.308594 329.144531 " fill-opacity="1" fill-rule="nonzero"/><g fill="#000000" fill-opacity="1"><g transform="translate(47.037928, 166.148375)"><g><path d="M -36.984375 -30.203125 L -37.1875 -29.421875 C -38.195312 -25.660156 -38.039062 -22.476562 -36.71875 -19.875 C -35.394531 -17.28125 -32.335938 -15.34375 -27.546875 -14.0625 C -25.984375 -13.644531 -24.851562 -13.503906 -24.15625 -13.640625 C -23.46875 -13.773438 -23.078125 -13.832031 -22.984375 -13.8125 C -23.585938 -11.53125 -24.515625 -9.953125 -25.765625 -9.078125 C -27.023438 -8.203125 -28.757812 -8.0625 -30.96875 -8.65625 C -33.976562 -9.457031 -36.519531 -10.925781 -38.59375 -13.0625 C -40.675781 -15.207031 -42.046875 -18.101562 -42.703125 -21.75 C -43.367188 -25.394531 -43.035156 -29.71875 -41.703125 -34.71875 C -40.960938 -37.5 -39.90625 -40.4375 -38.53125 -43.53125 C -37.34375 -46.113281 -36.46875 -48.460938 -35.90625 -50.578125 C -35.1875 -53.285156 -34.976562 -55.863281 -35.28125 -58.3125 C -32.539062 -57.488281 -30.6875 -56.242188 -29.71875 -54.578125 C -28.757812 -52.921875 -28.628906 -50.800781 -29.328125 -48.21875 C -29.679688 -46.851562 -30.144531 -45.519531 -30.71875 -44.21875 C -31.300781 -42.925781 -32.175781 -41.101562 -33.34375 -38.75 L 5.09375 -19.109375 L 2.65625 -9.96875 Z M -36.984375 -30.203125 "/></g></g></g><g fill="#000000" fill-opacity="1"><g transform="translate(54.400196, 140.171691)"><g><path d="M 4.34375 -8.34375 C 2.96875 -5.40625 1.132812 -3.476562 -1.15625 -2.5625 C -3.445312 -1.644531 -6.222656 -1.945312 -9.484375 -3.46875 C -12.210938 -4.75 -14.972656 -6.691406 -17.765625 -9.296875 C -20.566406 -11.910156 -22.601562 -14.992188 -23.875 -18.546875 C -25.144531 -22.097656 -24.910156 -25.738281 -23.171875 -29.46875 C -21.128906 -33.832031 -18.203125 -35.125 -14.390625 -33.34375 C -12.171875 -32.300781 -10.421875 -30.707031 -9.140625 -28.5625 C -7.867188 -26.425781 -7.160156 -24.039062 -7.015625 -21.40625 C -6.867188 -18.78125 -7.269531 -16.238281 -8.21875 -13.78125 C -7.070312 -13.144531 -6.300781 -12.734375 -5.90625 -12.546875 C -3.945312 -11.640625 -2.460938 -11.359375 -1.453125 -11.703125 C -0.441406 -12.054688 0.410156 -12.988281 1.109375 -14.5 C 2.109375 -16.644531 2.472656 -18.710938 2.203125 -20.703125 C 1.929688 -22.691406 1.203125 -25.070312 0.015625 -27.84375 L 0.96875 -29.890625 C 6.257812 -22.046875 7.382812 -14.863281 4.34375 -8.34375 Z M -10.859375 -15.59375 C -10.242188 -17.09375 -10.101562 -18.734375 -10.4375 -20.515625 C -10.78125 -22.296875 -11.492188 -23.929688 -12.578125 -25.421875 C -13.660156 -26.910156 -15.019531 -28.039062 -16.65625 -28.8125 C -18.28125 -29.5625 -19.320312 -29.441406 -19.78125 -28.453125 C -20.457031 -27.023438 -19.863281 -25.039062 -18 -22.5 C -16.132812 -19.96875 -13.753906 -17.664062 -10.859375 -15.59375 Z M -10.859375 -15.59375 "/></g></g></g><g fill="#000000" fill-opacity="1"><g transform="translate(62.052328, 121.923206)"><g><path d="M 14.015625 -19.09375 C 12.835938 -17.4375 11.113281 -16.59375 8.84375 -16.5625 C 6.570312 -16.539062 3.632812 -17.398438 0.03125 -19.140625 L 3.8125 -5.359375 L 1.0625 -1.5 L -3.46875 -21 L -10.078125 -24.390625 C -12.035156 -25.359375 -13.425781 -25.90625 -14.25 -26.03125 C -15.082031 -26.15625 -15.664062 -25.988281 -16 -25.53125 C -16.5 -24.8125 -16.570312 -23.65625 -16.21875 -22.0625 C -15.863281 -20.476562 -14.992188 -18.5625 -13.609375 -16.3125 C -12.222656 -14.0625 -10.351562 -11.644531 -8 -9.0625 L -9.59375 -6.8125 C -13.71875 -11.289062 -16.75 -15.765625 -18.6875 -20.234375 C -20.625 -24.703125 -20.425781 -28.582031 -18.09375 -31.875 C -16.726562 -33.800781 -15.097656 -34.75 -13.203125 -34.71875 C -11.316406 -34.695312 -9.453125 -34.164062 -7.609375 -33.125 L -3.1875 -30.71875 C -3.8125 -33.46875 -4.472656 -35.65625 -5.171875 -37.28125 C -5.878906 -38.90625 -6.691406 -40.097656 -7.609375 -40.859375 C -7.890625 -40.304688 -8.066406 -39.984375 -8.140625 -39.890625 C -8.773438 -38.984375 -9.507812 -38.53125 -10.34375 -38.53125 C -11.175781 -38.53125 -12.039062 -38.847656 -12.9375 -39.484375 C -13.820312 -40.109375 -14.234375 -40.921875 -14.171875 -41.921875 C -14.109375 -42.929688 -13.707031 -43.953125 -12.96875 -44.984375 C -12.3125 -45.910156 -11.300781 -46.296875 -9.9375 -46.140625 C -8.570312 -45.984375 -7.242188 -45.445312 -5.953125 -44.53125 C -4.390625 -43.414062 -3.191406 -41.757812 -2.359375 -39.5625 C -1.535156 -37.363281 -0.601562 -33.773438 0.4375 -28.796875 L 4.53125 -26.609375 C 6.394531 -25.609375 7.859375 -25.117188 8.921875 -25.140625 C 9.992188 -25.171875 10.867188 -25.664062 11.546875 -26.625 C 12.285156 -27.65625 12.535156 -28.925781 12.296875 -30.4375 C 12.054688 -31.957031 11.378906 -33.410156 10.265625 -34.796875 L 11.859375 -37.046875 C 14.648438 -33.117188 16.0625 -29.640625 16.09375 -26.609375 C 16.125 -23.585938 15.429688 -21.082031 14.015625 -19.09375 Z M 14.015625 -19.09375 "/></g></g></g><g fill="#000000" fill-opacity="1"><g transform="translate(78.248939, 99.501039)"><g><path d="M 6.03125 -5.109375 C 4.195312 -3.398438 2.09375 -2.597656 -0.28125 -2.703125 C -2.664062 -2.804688 -5.101562 -4.1875 -7.59375 -6.84375 C -9.800781 -9.207031 -11.648438 -12.140625 -13.140625 -15.640625 C -14.640625 -19.140625 -15.300781 -22.664062 -15.125 -26.21875 C -14.945312 -29.78125 -13.5625 -32.773438 -10.96875 -35.203125 C -9.664062 -36.421875 -8.484375 -37.101562 -7.421875 -37.25 C -6.359375 -37.40625 -5.484375 -37.113281 -4.796875 -36.375 L -4.484375 -36.046875 L -6.34375 -39.09375 L 0.5625 -45.5625 L 12.390625 -26 C 12.710938 -25.40625 13.128906 -24.835938 13.640625 -24.296875 C 14.921875 -22.921875 16.21875 -22.84375 17.53125 -24.0625 C 18.425781 -24.90625 18.8125 -26.046875 18.6875 -27.484375 C 18.5625 -28.929688 18.066406 -30.507812 17.203125 -32.21875 L 19.21875 -34.109375 C 21.269531 -29.546875 22 -25.832031 21.40625 -22.96875 C 20.8125 -20.101562 19.632812 -17.847656 17.875 -16.203125 C 16.53125 -14.941406 15.097656 -14.304688 13.578125 -14.296875 C 12.066406 -14.285156 10.554688 -14.925781 9.046875 -16.21875 C 9.347656 -14.03125 9.3125 -12 8.9375 -10.125 C 8.5625 -8.25 7.59375 -6.578125 6.03125 -5.109375 Z M 4.78125 -12.6875 C 5.582031 -13.425781 6.023438 -14.539062 6.109375 -16.03125 C 6.191406 -17.519531 5.757812 -19.050781 4.8125 -20.625 L -3.03125 -33.625 C -3.425781 -34.039062 -3.96875 -34.300781 -4.65625 -34.40625 C -5.351562 -34.507812 -6.035156 -34.25 -6.703125 -33.625 C -7.984375 -32.425781 -8.4375 -30.597656 -8.0625 -28.140625 C -7.695312 -25.691406 -6.816406 -23.148438 -5.421875 -20.515625 C -4.035156 -17.878906 -2.597656 -15.765625 -1.109375 -14.171875 C 0.390625 -12.578125 1.578125 -11.773438 2.453125 -11.765625 C 3.335938 -11.753906 4.113281 -12.0625 4.78125 -12.6875 Z M 4.78125 -12.6875 "/></g></g></g><g fill="#000000" fill-opacity="1"><g transform="translate(97.717144, 81.12921)"><g><path d="M 6.453125 -3.84375 C 4.703125 -2.675781 3 -2.023438 1.34375 -1.890625 C -0.300781 -1.753906 -1.773438 -2.03125 -3.078125 -2.71875 C -4.390625 -3.40625 -5.429688 -4.328125 -6.203125 -5.484375 C -7.003906 -6.691406 -7.421875 -7.929688 -7.453125 -9.203125 C -7.484375 -10.472656 -7.238281 -11.578125 -6.71875 -12.515625 C -7 -16.015625 -7.484375 -19.421875 -8.171875 -22.734375 C -8.859375 -26.046875 -9.734375 -29.53125 -10.796875 -33.1875 L -3.453125 -39.671875 C -0.148438 -35.128906 3.535156 -30.300781 7.609375 -25.1875 C 9.242188 -23.101562 10.390625 -21.570312 11.046875 -20.59375 C 11.609375 -19.757812 12 -19.019531 12.21875 -18.375 C 13.28125 -20.5 13.988281 -22.285156 14.34375 -23.734375 L 16.640625 -25.265625 C 16.097656 -21.015625 14.832031 -16.878906 12.84375 -12.859375 C 12.53125 -11.023438 11.773438 -9.320312 10.578125 -7.75 C 9.390625 -6.1875 8.015625 -4.882812 6.453125 -3.84375 Z M 1.8125 -6.984375 C 3.15625 -7.878906 4.015625 -9.03125 4.390625 -10.4375 C 4.773438 -11.851562 4.367188 -13.453125 3.171875 -15.234375 C 2.429688 -16.335938 1.296875 -17.800781 -0.234375 -19.625 C -3.367188 -23.53125 -5.460938 -26.15625 -6.515625 -27.5 C -5.472656 -24.039062 -4.648438 -19.609375 -4.046875 -14.203125 C -2.910156 -14.335938 -2.0625 -13.984375 -1.5 -13.140625 C -1.039062 -12.441406 -0.859375 -11.671875 -0.953125 -10.828125 C -1.046875 -9.984375 -1.4375 -9.328125 -2.125 -8.859375 C -2.882812 -8.347656 -3.539062 -8.253906 -4.09375 -8.578125 C -3.207031 -7.265625 -2.289062 -6.472656 -1.34375 -6.203125 C -0.40625 -5.941406 0.644531 -6.203125 1.8125 -6.984375 Z M 1.8125 -6.984375 "/></g></g></g><g fill="#000000" fill-opacity="1"><g transform="translate(112.41997, 69.887974)"><g/></g></g><g fill="#000000" fill-opacity="1"><g transform="translate(121.556544, 64.087038)"><g><path d="M 15.140625 -4.078125 C 10.460938 -2.472656 6.617188 -2.472656 3.609375 -4.078125 C 0.609375 -5.691406 -1.828125 -9.238281 -3.703125 -14.71875 C -5.191406 -19.0625 -6.054688 -23.992188 -6.296875 -29.515625 C -6.546875 -35.035156 -5.65625 -40.144531 -3.625 -44.84375 C -1.601562 -49.539062 1.914062 -52.75 6.9375 -54.46875 C 10.050781 -55.53125 12.789062 -55.707031 15.15625 -55 C 17.53125 -54.289062 19.203125 -52.523438 20.171875 -49.703125 C 20.785156 -47.921875 20.910156 -46.394531 20.546875 -45.125 C 20.191406 -43.863281 19.269531 -42.976562 17.78125 -42.46875 C 16.289062 -41.957031 14.921875 -42.09375 13.671875 -42.875 C 14.296875 -43.507812 14.703125 -44.484375 14.890625 -45.796875 C 15.085938 -47.117188 14.984375 -48.382812 14.578125 -49.59375 C 14.191406 -50.695312 13.578125 -51.503906 12.734375 -52.015625 C 11.898438 -52.523438 10.816406 -52.550781 9.484375 -52.09375 C 7.285156 -51.34375 5.707031 -49.125 4.75 -45.4375 C 3.789062 -41.75 3.476562 -37.410156 3.8125 -32.421875 C 4.144531 -27.441406 5.035156 -22.84375 6.484375 -18.625 C 7.554688 -15.46875 8.914062 -13.242188 10.5625 -11.953125 C 12.207031 -10.671875 14.441406 -10.507812 17.265625 -11.46875 C 19.710938 -12.3125 21.785156 -13.625 23.484375 -15.40625 C 25.191406 -17.1875 26.457031 -19.328125 27.28125 -21.828125 L 28.921875 -21.6875 C 28.765625 -18.726562 27.96875 -16.03125 26.53125 -13.59375 C 25.101562 -11.164062 23.367188 -9.148438 21.328125 -7.546875 C 19.285156 -5.941406 17.222656 -4.785156 15.140625 -4.078125 Z M 15.140625 -4.078125 "/></g></g></g><g fill="#000000" fill-opacity="1"><g transform="translate(147.759575, 54.434629)"><g><path d="M 9.546875 -0.921875 C 6.335938 -0.523438 3.691406 -1.035156 1.609375 -2.453125 C -0.472656 -3.878906 -1.738281 -6.375 -2.1875 -9.9375 C -2.550781 -12.894531 -2.347656 -16.25 -1.578125 -20 C -0.804688 -23.757812 0.757812 -27.125 3.125 -30.09375 C 5.488281 -33.0625 8.710938 -34.800781 12.796875 -35.3125 C 18.359375 -36.007812 21.570312 -32.882812 22.4375 -25.9375 L 22.453125 -25.875 C 22.585938 -25.851562 22.832031 -25.863281 23.1875 -25.90625 C 24.613281 -26.082031 26.210938 -26.664062 27.984375 -27.65625 C 29.765625 -28.644531 31.347656 -29.78125 32.734375 -31.0625 L 33.546875 -29.390625 C 32.453125 -27.878906 30.953125 -26.523438 29.046875 -25.328125 C 27.148438 -24.140625 25.03125 -23.203125 22.6875 -22.515625 C 22.832031 -18.515625 22.367188 -14.945312 21.296875 -11.8125 C 20.234375 -8.675781 18.671875 -6.160156 16.609375 -4.265625 C 14.554688 -2.367188 12.203125 -1.253906 9.546875 -0.921875 Z M 11.4375 -7.125 C 12.46875 -7.257812 13.429688 -7.988281 14.328125 -9.3125 C 15.222656 -10.632812 15.929688 -12.378906 16.453125 -14.546875 C 16.972656 -16.710938 17.253906 -19.078125 17.296875 -21.640625 C 16.085938 -21.753906 15.382812 -22.597656 15.1875 -24.171875 C 14.96875 -25.953125 15.492188 -27.207031 16.765625 -27.9375 C 16.503906 -29.363281 16.164062 -30.328125 15.75 -30.828125 C 15.332031 -31.328125 14.679688 -31.519531 13.796875 -31.40625 C 12.367188 -31.226562 11.113281 -30.007812 10.03125 -27.75 C 8.945312 -25.5 8.175781 -22.863281 7.71875 -19.84375 C 7.257812 -16.832031 7.171875 -14.222656 7.453125 -12.015625 C 7.710938 -9.921875 8.125 -8.539062 8.6875 -7.875 C 9.25 -7.21875 10.164062 -6.96875 11.4375 -7.125 Z M 11.4375 -7.125 "/></g></g></g><g fill="#000000" fill-opacity="1"><g transform="translate(174.813506, 50.676845)"><g><path d="M 7.84375 0.984375 C 5.34375 0.796875 3.328125 -0.207031 1.796875 -2.03125 C 0.265625 -3.863281 -0.363281 -6.59375 -0.09375 -10.21875 C 0.15625 -13.445312 1.0625 -16.789062 2.625 -20.25 C 4.1875 -23.71875 6.335938 -26.59375 9.078125 -28.875 C 11.828125 -31.15625 14.972656 -32.160156 18.515625 -31.890625 C 20.304688 -31.753906 21.613281 -31.34375 22.4375 -30.65625 C 23.257812 -29.976562 23.632812 -29.132812 23.5625 -28.125 L 23.53125 -27.875 L 27.890625 -42.71875 L 37.703125 -43.296875 L 27.46875 -8.453125 C 27.238281 -7.816406 27.097656 -7.125 27.046875 -6.375 C 26.972656 -5.507812 27.128906 -4.875 27.515625 -4.46875 C 27.910156 -4.070312 28.59375 -3.835938 29.5625 -3.765625 C 30.78125 -3.671875 31.875 -4.113281 32.84375 -5.09375 C 33.820312 -6.070312 34.644531 -7.414062 35.3125 -9.125 L 38.046875 -8.90625 C 34.796875 -1.289062 30.113281 2.285156 24 1.828125 C 22.195312 1.691406 20.773438 1.097656 19.734375 0.046875 C 18.703125 -0.992188 18.117188 -2.445312 17.984375 -4.3125 C 16.722656 -2.644531 15.25 -1.300781 13.5625 -0.28125 C 11.882812 0.726562 9.976562 1.148438 7.84375 0.984375 Z M 12.578125 -5.046875 C 13.617188 -4.960938 14.710938 -5.359375 15.859375 -6.234375 C 17.003906 -7.117188 17.835938 -8.398438 18.359375 -10.078125 L 18.390625 -10.40625 L 22.734375 -25.15625 C 22.460938 -26.726562 21.628906 -27.566406 20.234375 -27.671875 C 18.484375 -27.804688 16.828125 -26.910156 15.265625 -24.984375 C 13.710938 -23.054688 12.4375 -20.6875 11.4375 -17.875 C 10.4375 -15.070312 9.851562 -12.582031 9.6875 -10.40625 C 9.519531 -8.226562 9.726562 -6.804688 10.3125 -6.140625 C 10.90625 -5.484375 11.660156 -5.117188 12.578125 -5.046875 Z M 12.578125 -5.046875 "/></g></g></g><g fill="#000000" fill-opacity="1"><g transform="translate(202.594173, 52.874613)"><g><path d="M 18.609375 -33.1875 C 17.203125 -33.5 16.113281 -34.253906 15.34375 -35.453125 C 14.570312 -36.648438 14.34375 -37.957031 14.65625 -39.375 C 14.96875 -40.78125 15.726562 -41.878906 16.9375 -42.671875 C 18.15625 -43.460938 19.46875 -43.703125 20.875 -43.390625 C 22.28125 -43.078125 23.375 -42.300781 24.15625 -41.0625 C 24.9375 -39.832031 25.171875 -38.515625 24.859375 -37.109375 C 24.546875 -35.691406 23.773438 -34.601562 22.546875 -33.84375 C 21.328125 -33.09375 20.015625 -32.875 18.609375 -33.1875 Z M 6.265625 1.78125 C 4.222656 1.332031 2.707031 0.328125 1.71875 -1.234375 C 0.738281 -2.796875 0.535156 -4.863281 1.109375 -7.4375 C 1.347656 -8.5 1.828125 -9.847656 2.546875 -11.484375 L 11.484375 -31.125 L 20.734375 -29.078125 L 11.265625 -8.265625 C 10.941406 -7.660156 10.703125 -6.992188 10.546875 -6.265625 C 10.347656 -5.410156 10.410156 -4.757812 10.734375 -4.3125 C 11.066406 -3.863281 11.707031 -3.535156 12.65625 -3.328125 C 13.894531 -3.046875 15.164062 -3.3125 16.46875 -4.125 C 17.769531 -4.9375 18.835938 -6.125 19.671875 -7.6875 L 22.375 -7.078125 C 19.769531 -2.816406 17.039062 -0.140625 14.1875 0.953125 C 11.34375 2.046875 8.703125 2.320312 6.265625 1.78125 Z M 6.265625 1.78125 "/></g></g></g><g fill="#000000" fill-opacity="1"><g transform="translate(213.063038, 54.21091)"><g><path d="M 22.09375 8.640625 C 19.59375 7.703125 18.003906 6.351562 17.328125 4.59375 C 16.660156 2.832031 16.691406 0.960938 17.421875 -1.015625 C 17.742188 -1.867188 18.207031 -2.800781 18.8125 -3.8125 C 19.425781 -4.832031 20.035156 -5.8125 20.640625 -6.75 C 21.253906 -7.695312 21.65625 -8.296875 21.84375 -8.546875 C 22.707031 -9.878906 23.546875 -11.1875 24.359375 -12.46875 C 25.171875 -13.757812 25.738281 -14.832031 26.0625 -15.6875 C 26.832031 -17.78125 26.472656 -19.101562 24.984375 -19.65625 C 23.921875 -20.050781 22.785156 -19.878906 21.578125 -19.140625 C 20.378906 -18.398438 19.210938 -17.28125 18.078125 -15.78125 L 6.53125 2.4375 L -2.34375 -0.875 L 15.65625 -29.25 L 24.53125 -25.953125 L 22.671875 -22.984375 C 25.578125 -24.515625 28.40625 -24.769531 31.15625 -23.75 C 33.238281 -22.96875 34.679688 -21.769531 35.484375 -20.15625 C 36.296875 -18.550781 36.265625 -16.582031 35.390625 -14.25 C 34.953125 -13.050781 34.316406 -11.773438 33.484375 -10.421875 C 32.648438 -9.078125 31.578125 -7.457031 30.265625 -5.5625 C 29.472656 -4.40625 28.710938 -3.269531 27.984375 -2.15625 C 27.265625 -1.050781 26.773438 -0.15625 26.515625 0.53125 C 26.210938 1.363281 26.160156 2.070312 26.359375 2.65625 C 26.566406 3.25 27.125 3.710938 28.03125 4.046875 C 29.257812 4.503906 30.40625 4.425781 31.46875 3.8125 C 32.539062 3.207031 33.789062 2.125 35.21875 0.5625 L 37.796875 1.515625 C 34.597656 5.472656 31.710938 7.847656 29.140625 8.640625 C 26.578125 9.429688 24.226562 9.429688 22.09375 8.640625 Z M 22.09375 8.640625 "/></g></g></g><g fill="#000000" fill-opacity="1"><g transform="translate(236.963787, 62.659885)"><g><path d="M 1.3125 20.09375 C -0.476562 18.988281 -1.679688 17.601562 -2.296875 15.9375 C -2.921875 14.269531 -2.695312 12.5625 -1.625 10.8125 C -0.3125 8.675781 1.59375 7.492188 4.09375 7.265625 C 6.59375 7.035156 9.4375 7.300781 12.625 8.0625 L 15.140625 5.515625 C 11.960938 6.390625 9.085938 6.035156 6.515625 4.453125 C 4.390625 3.148438 3.0625 1.335938 2.53125 -0.984375 C 2.007812 -3.316406 2.695312 -6.035156 4.59375 -9.140625 C 6.289062 -11.890625 8.625 -14.445312 11.59375 -16.8125 C 14.570312 -19.175781 17.800781 -20.742188 21.28125 -21.515625 C 24.757812 -22.296875 28.015625 -21.753906 31.046875 -19.890625 C 32.578125 -18.953125 33.554688 -17.988281 33.984375 -17 C 34.410156 -16.019531 34.359375 -15.097656 33.828125 -14.234375 L 33.625 -13.90625 L 36.03125 -16.453125 L 44.078125 -11.5 L 22.578125 11.09375 C 24.742188 11.59375 26.734375 11.578125 28.546875 11.046875 C 30.359375 10.523438 32.359375 9.316406 34.546875 7.421875 L 36.90625 8.859375 C 33.851562 11.566406 30.988281 13.164062 28.3125 13.65625 C 25.644531 14.15625 23.054688 14.019531 20.546875 13.25 L 17.25 16.765625 C 14.269531 19.929688 11.441406 21.628906 8.765625 21.859375 C 6.097656 22.097656 3.613281 21.507812 1.3125 20.09375 Z M 13.5 1.265625 C 14.363281 1.796875 15.484375 1.941406 16.859375 1.703125 C 18.234375 1.472656 19.5 0.789062 20.65625 -0.34375 L 31.65625 -11.859375 C 31.9375 -12.316406 32.035156 -12.890625 31.953125 -13.578125 C 31.867188 -14.273438 31.4375 -14.863281 30.65625 -15.34375 C 29.164062 -16.257812 27.285156 -16.21875 25.015625 -15.21875 C 22.753906 -14.21875 20.535156 -12.703125 18.359375 -10.671875 C 16.179688 -8.640625 14.519531 -6.691406 13.375 -4.828125 C 12.226562 -2.960938 11.765625 -1.597656 11.984375 -0.734375 C 12.210938 0.117188 12.71875 0.785156 13.5 1.265625 Z M 2.703125 14.9375 C 3.335938 15.320312 4.21875 15.269531 5.34375 14.78125 C 6.476562 14.289062 7.703125 13.34375 9.015625 11.9375 L 10.34375 10.515625 C 5.863281 9.617188 3.0625 10.082031 1.9375 11.90625 C 1.632812 12.382812 1.535156 12.914062 1.640625 13.5 C 1.753906 14.09375 2.109375 14.570312 2.703125 14.9375 Z M 2.703125 14.9375 "/></g></g></g><g fill="#000000" fill-opacity="1"><g transform="translate(260.538844, 78.128117)"><g/></g></g><g fill="#000000" fill-opacity="1"><g transform="translate(269.418908, 84.314496)"><g><path d="M 9.609375 12.390625 C 6.316406 8.679688 4.832031 5.128906 5.15625 1.734375 C 5.476562 -1.648438 7.804688 -5.265625 12.140625 -9.109375 C 15.578125 -12.148438 19.796875 -14.847656 24.796875 -17.203125 C 29.796875 -19.566406 34.851562 -20.722656 39.96875 -20.671875 C 45.082031 -20.617188 49.398438 -18.609375 52.921875 -14.640625 C 55.097656 -12.179688 56.316406 -9.71875 56.578125 -7.25 C 56.835938 -4.789062 55.851562 -2.570312 53.625 -0.59375 C 52.21875 0.65625 50.863281 1.359375 49.5625 1.515625 C 48.257812 1.679688 47.085938 1.175781 46.046875 0 C 44.992188 -1.175781 44.585938 -2.492188 44.828125 -3.953125 C 45.660156 -3.617188 46.722656 -3.613281 48.015625 -3.9375 C 49.304688 -4.269531 50.425781 -4.859375 51.375 -5.703125 C 52.25 -6.484375 52.753906 -7.359375 52.890625 -8.328125 C 53.035156 -9.304688 52.640625 -10.320312 51.703125 -11.375 C 50.160156 -13.113281 47.503906 -13.710938 43.734375 -13.171875 C 39.972656 -12.628906 35.851562 -11.238281 31.375 -9 C 26.90625 -6.769531 23.003906 -4.171875 19.671875 -1.203125 C 17.171875 1.003906 15.644531 3.113281 15.09375 5.125 C 14.550781 7.144531 15.269531 9.265625 17.25 11.484375 C 18.957031 13.421875 20.960938 14.832031 23.265625 15.71875 C 25.578125 16.613281 28.046875 16.945312 30.671875 16.71875 L 31.1875 18.28125 C 28.394531 19.300781 25.597656 19.617188 22.796875 19.234375 C 19.992188 18.859375 17.457031 18.03125 15.1875 16.75 C 12.925781 15.476562 11.066406 14.023438 9.609375 12.390625 Z M 9.609375 12.390625 "/></g></g></g><g fill="#000000" fill-opacity="1"><g transform="translate(289.320969, 104.744312)"><g><path d="M 3.234375 5.65625 C 2.085938 3.90625 1.707031 2.128906 2.09375 0.328125 C 2.476562 -1.472656 3.773438 -3.097656 5.984375 -4.546875 C 6.898438 -5.140625 8.1875 -5.769531 9.84375 -6.4375 L 41.25 -18.578125 L 47.671875 -11.15625 L 13.828125 1.953125 C 13.179688 2.160156 12.546875 2.46875 11.921875 2.875 C 11.191406 3.351562 10.785156 3.867188 10.703125 4.421875 C 10.617188 4.972656 10.84375 5.648438 11.375 6.453125 C 12.070312 7.515625 13.171875 8.210938 14.671875 8.546875 C 16.171875 8.878906 17.765625 8.78125 19.453125 8.25 L 20.96875 10.5625 C 16.113281 11.78125 12.285156 11.789062 9.484375 10.59375 C 6.679688 9.394531 4.597656 7.75 3.234375 5.65625 Z M 3.234375 5.65625 "/></g></g></g><g fill="#000000" fill-opacity="1"><g transform="translate(295.632827, 113.2397)"><g><path d="M 2.40625 6.046875 C 1.519531 4.148438 1.390625 2.332031 2.015625 0.59375 C 2.648438 -1.132812 4.160156 -2.5625 6.546875 -3.6875 C 7.535156 -4.15625 8.898438 -4.597656 10.640625 -5.015625 L 31.640625 -9.984375 L 35.6875 -1.421875 L 13.4375 3.84375 C 12.789062 4 12.207031 4.195312 11.6875 4.4375 C 10.0625 5.207031 9.53125 6.191406 10.09375 7.390625 C 10.613281 8.492188 11.523438 9.21875 12.828125 9.5625 C 14.140625 9.914062 15.71875 9.953125 17.5625 9.671875 L 38.5625 4.6875 L 42.609375 13.25 L 20.359375 18.515625 C 19.691406 18.640625 19.019531 18.859375 18.34375 19.171875 C 17.550781 19.546875 17.070312 20 16.90625 20.53125 C 16.75 21.070312 16.878906 21.785156 17.296875 22.671875 C 17.816406 23.773438 18.742188 24.503906 20.078125 24.859375 C 21.421875 25.222656 23 25.273438 24.8125 25.015625 L 25.984375 27.5 C 21.003906 28.050781 17.242188 27.609375 14.703125 26.171875 C 12.160156 24.734375 10.375 22.925781 9.34375 20.75 C 8.539062 19.039062 8.375 17.453125 8.84375 15.984375 C 9.320312 14.523438 10.441406 13.257812 12.203125 12.1875 C 9.390625 11.863281 7.238281 11.144531 5.75 10.03125 C 4.257812 8.925781 3.144531 7.597656 2.40625 6.046875 Z M 2.40625 6.046875 "/></g></g></g><g fill="#000000" fill-opacity="1"><g transform="translate(306.081801, 137.730754)"><g><path d="M 1.8125 8.5625 C 1.0625 5.664062 1.203125 3.273438 2.234375 1.390625 C 3.265625 -0.492188 5.070312 -1.769531 7.65625 -2.4375 C 8.925781 -2.769531 10.171875 -2.9375 11.390625 -2.9375 L 45.046875 -4.359375 L 48.734375 4.734375 L 33.640625 5.359375 C 34.660156 6.367188 35.382812 7.222656 35.8125 7.921875 C 36.25 8.628906 36.566406 9.363281 36.765625 10.125 C 38.054688 15.132812 35.078125 18.578125 27.828125 20.453125 C 24.890625 21.203125 21.609375 21.441406 17.984375 21.171875 C 14.367188 20.910156 11.035156 19.78125 7.984375 17.78125 C 4.941406 15.789062 2.882812 12.71875 1.8125 8.5625 Z M 8.90625 10.53125 C 9.25 11.851562 10.382812 12.875 12.3125 13.59375 C 14.238281 14.3125 16.507812 14.691406 19.125 14.734375 C 21.738281 14.785156 24.171875 14.519531 26.421875 13.9375 C 28.117188 13.5 29.484375 12.832031 30.515625 11.9375 C 31.546875 11.050781 31.921875 10.070312 31.640625 9 C 31.472656 8.363281 31.195312 7.675781 30.8125 6.9375 C 30.425781 6.207031 30.003906 5.738281 29.546875 5.53125 L 12.46875 6.21875 C 11.925781 6.21875 11.421875 6.28125 10.953125 6.40625 C 9.003906 6.90625 8.320312 8.28125 8.90625 10.53125 Z M 8.90625 10.53125 "/></g></g></g></svg>