<svg xmlns="http://www.w3.org/2000/svg" xmlns:xlink="http://www.w3.org/1999/xlink" width="500" zoomAndPan="magnify" viewBox="0 0 375 374.999991" height="500" preserveAspectRatio="xMidYMid meet" version="1.0"><defs><clipPath id="90bf249f87"><path d="M 330 201 L 341.921875 201 L 341.921875 214 L 330 214 Z M 330 201 " clip-rule="nonzero"/></clipPath></defs><rect x="-37.5" width="450" fill="#ffffff" y="-37.499999" height="449.999989" fill-opacity="1"/><rect x="-37.5" width="450" fill="#fffaef" y="-37.499999" height="449.999989" fill-opacity="1"/><path fill="#ad7c65" d="M 68.160156 233.550781 C 86.625 234.597656 111.15625 228.796875 121.496094 218.019531 C 125.605469 213.726562 100.460938 197.027344 100.460938 197.027344 C 99.382812 197.085938 94.535156 201.183594 93.414062 201.921875 C 87.980469 205.507812 82.132812 208.324219 76.007812 210.507812 C 66.515625 213.894531 56.726562 215.867188 46.648438 216.265625 C 38.847656 216.574219 35.414062 215.574219 34.492188 216.835938 C 32.984375 218.898438 36.9375 222.070312 38.03125 222.976562 C 43.492188 227.519531 50.742188 230.167969 57.542969 231.96875 C 60.203125 232.675781 63.207031 233.152344 66.40625 233.414062 C 66.992188 233.476562 67.5625 233.523438 68.160156 233.550781 Z M 68.160156 233.550781 " fill-opacity="1" fill-rule="evenodd"/><path fill="#6a3b21" d="M 73.667969 216.390625 C 73.609375 216.113281 73.777344 215.835938 74.054688 215.773438 C 74.332031 215.710938 74.609375 215.882812 74.671875 216.160156 C 74.671875 216.160156 76.808594 225.242188 84.027344 228.886719 C 84.273438 229.011719 84.378906 229.320312 84.257812 229.582031 C 84.132812 229.828125 83.828125 229.933594 83.566406 229.8125 C 75.949219 225.933594 73.667969 216.390625 73.667969 216.390625 Z M 82.6875 213.355469 C 82.609375 213.082031 82.78125 212.804688 83.042969 212.726562 C 83.320312 212.648438 83.59375 212.820312 83.671875 213.082031 C 83.671875 213.082031 86.457031 223.269531 96.460938 227.671875 C 96.722656 227.78125 96.828125 228.089844 96.722656 228.351562 C 96.613281 228.613281 96.304688 228.71875 96.042969 228.613281 C 85.582031 224.007812 82.6875 213.355469 82.6875 213.355469 Z M 66.40625 233.429688 C 62.160156 229.613281 60.914062 224.777344 60.914062 224.777344 C 60.835938 224.5 61.003906 224.226562 61.28125 224.164062 C 61.558594 224.085938 61.835938 224.253906 61.898438 224.53125 C 61.898438 224.53125 63.28125 229.890625 68.144531 233.550781 C 67.5625 233.523438 66.992188 233.476562 66.40625 233.429688 Z M 66.40625 233.429688 " fill-opacity="1" fill-rule="evenodd"/><path fill="#ad7c65" d="M 124.207031 225.65625 C 126.050781 230.042969 127.574219 236.386719 127.53125 240.726562 C 127.453125 247.746094 125.191406 251.902344 127.515625 255.902344 C 130.097656 260.367188 135.871094 262.167969 140.269531 263.984375 C 144.855469 265.863281 149.980469 267.246094 154.675781 268.847656 C 155.8125 269.234375 158.550781 270.3125 159.769531 269.664062 C 161 269.019531 159.753906 266.601562 160.382812 265.707031 C 161.167969 264.617188 164.046875 265.617188 165.125 264.476562 C 166.140625 263.414062 164.167969 262.230469 164.660156 261.289062 C 165.292969 260.058594 169.015625 260.503906 168.753906 258.457031 C 168.371094 255.519531 161.554688 250.945312 162.339844 247.082031 C 163 243.851562 166.96875 240.355469 169.203125 238.261719 C 172.816406 234.875 176.265625 230.75 179.28125 226.855469 C 179.957031 225.996094 182.679688 221.730469 182.113281 220.238281 C 181.433594 218.453125 172.449219 218.761719 170.710938 218.589844 C 165.386719 218.082031 160.03125 217.976562 154.691406 217.621094 C 146.949219 217.097656 138.054688 215.421875 130.484375 217.867188 C 128.574219 218.46875 120.925781 217.898438 124.207031 225.65625 Z M 124.207031 225.65625 " fill-opacity="1" fill-rule="evenodd"/><path fill="#ad7c65" d="M 283.367188 209.664062 C 283.660156 209.695312 288.90625 215.683594 289.675781 216.3125 C 295.769531 221.40625 303.1875 223.546875 308.191406 230.765625 C 309.234375 232.289062 310.652344 236.183594 309.882812 238.09375 C 309.589844 238.816406 307.082031 235.832031 306.773438 236.183594 C 306.421875 236.570312 306.929688 239.941406 305.480469 241.003906 C 304.789062 241.527344 302.097656 237.816406 301.773438 237.953125 C 301.710938 237.984375 301.496094 242.171875 300.25 242.558594 C 299.511719 242.789062 296.371094 235.832031 293.015625 234.769531 C 289.660156 233.707031 285.167969 232.660156 281.921875 231.289062 C 273.566406 227.734375 265.871094 221.609375 261.976562 213.402344 C 259.039062 207.230469 258.101562 195.824219 268.410156 198.335938 C 270.394531 198.8125 272.257812 199.828125 274.011719 200.828125 C 275.796875 201.828125 283.367188 209.664062 283.367188 209.664062 Z M 283.367188 209.664062 " fill-opacity="1" fill-rule="evenodd"/><path fill="#ad7c65" d="M 265.316406 222.132812 C 266.949219 224.226562 267.824219 227.472656 269.933594 229.980469 C 272.886719 233.523438 276.828125 235.9375 280.136719 239.078125 C 284.089844 242.820312 286.953125 247.34375 287.984375 252.824219 C 288.230469 254.148438 288.476562 258.042969 288.0625 258.457031 C 287.355469 259.179688 282.460938 256.074219 282.042969 256.625 C 281.566406 257.257812 282.582031 261.597656 281.628906 262.042969 C 280.921875 262.367188 276.660156 258.457031 276.367188 259.058594 C 276.210938 259.367188 276.828125 263.753906 276.011719 264.445312 C 275.289062 265.046875 273.503906 262.523438 273.027344 261.890625 C 271.117188 259.414062 268.472656 255.964844 265.765625 254.425781 C 256.300781 249.054688 245.359375 248.992188 239.574219 238.449219 C 238.050781 235.660156 236.757812 231.242188 236.863281 228.027344 C 236.941406 225.886719 236.710938 223.378906 237.710938 221.46875 C 238.726562 219.574219 265.316406 222.132812 265.316406 222.132812 Z M 265.316406 222.132812 " fill-opacity="1" fill-rule="evenodd"/><path fill="#ad7c65" d="M 286.523438 155.464844 C 286.414062 152.449219 286.355469 150.0625 287.601562 147.089844 C 288.414062 145.152344 289.386719 143.367188 290.722656 141.75 C 292.339844 139.796875 295.496094 136.625 298.402344 137.425781 C 301.140625 138.179688 303.082031 142.488281 303.894531 144.78125 C 305.265625 148.644531 306.574219 159.097656 301.296875 161.46875 C 299.632812 162.222656 297.386719 161.929688 295.648438 161.667969 C 293.324219 161.328125 291.109375 160.652344 288.953125 159.730469 C 288.0625 159.34375 286.523438 155.464844 286.523438 155.464844 Z M 286.523438 155.464844 " fill-opacity="1" fill-rule="evenodd"/><path fill="#ad7c65" d="M 339.78125 204.246094 C 340.765625 206.554688 340.921875 208.910156 339.152344 211.09375 C 334.335938 217.019531 320.269531 219.039062 313.328125 218.777344 C 300.585938 218.3125 292.570312 215.804688 287.660156 214.574219 C 269.425781 210 261.976562 198.195312 260.976562 179.554688 C 260.6875 174.058594 266.65625 157.511719 268.796875 157.1875 C 270.535156 156.925781 275.257812 156.464844 280.335938 156.035156 C 286.753906 155.511719 293.738281 155.066406 295.957031 155.265625 C 318.59375 157.3125 322.578125 170.335938 329.78125 188.238281 C 330.671875 190.4375 332.980469 193.960938 334.289062 195.949219 C 335.8125 198.320312 338.488281 201.226562 339.78125 204.246094 Z M 339.78125 204.246094 " fill-opacity="1" fill-rule="evenodd"/><path fill="#6a3b21" d="M 280.335938 156.066406 C 281.058594 160.777344 283.414062 167.5625 283.414062 167.5625 C 283.566406 167.441406 285.96875 168.472656 286.769531 168.796875 C 290.691406 170.367188 293.984375 172.488281 296.617188 175.828125 C 302.125 182.800781 305.851562 191.375 312.730469 197.242188 C 316.730469 200.644531 321.761719 202.691406 326.777344 204.105469 C 330.394531 205.121094 336.164062 206.398438 339.78125 204.261719 C 338.503906 201.242188 335.828125 198.335938 334.289062 196.007812 C 332.980469 194.023438 330.671875 190.5 329.78125 188.296875 C 322.5625 170.394531 318.59375 157.375 295.957031 155.328125 C 293.722656 155.097656 286.753906 155.542969 280.335938 156.066406 Z M 280.335938 156.066406 " fill-opacity="1" fill-rule="evenodd"/><g clip-path="url(#90bf249f87)"><path fill="#f49587" d="M 337.78125 201.734375 C 337.429688 201.644531 335.75 201.566406 334.488281 202.011719 C 332.65625 202.660156 331.101562 204.136719 330.441406 205.9375 C 328.65625 210.769531 333.6875 214.757812 338.183594 213.464844 C 340.84375 212.695312 341.890625 209.941406 341.9375 207.601562 C 341.984375 204.769531 340.628906 202.535156 337.78125 201.734375 Z M 337.78125 201.734375 " fill-opacity="1" fill-rule="evenodd"/></g><path fill="#2f1a16" d="M 297.527344 191.546875 C 297.527344 191.96875 297.445312 192.378906 297.28125 192.769531 C 297.121094 193.164062 296.886719 193.507812 296.589844 193.808594 C 296.289062 194.109375 295.941406 194.339844 295.550781 194.503906 C 295.15625 194.667969 294.75 194.746094 294.324219 194.746094 C 293.898438 194.746094 293.492188 194.667969 293.101562 194.503906 C 292.707031 194.339844 292.363281 194.109375 292.0625 193.808594 C 291.761719 193.507812 291.53125 193.164062 291.367188 192.769531 C 291.207031 192.378906 291.125 191.96875 291.125 191.546875 C 291.125 191.121094 291.207031 190.710938 291.367188 190.320312 C 291.53125 189.929688 291.761719 189.582031 292.0625 189.28125 C 292.363281 188.980469 292.707031 188.75 293.101562 188.585938 C 293.492188 188.425781 293.898438 188.34375 294.324219 188.34375 C 294.75 188.34375 295.15625 188.425781 295.550781 188.585938 C 295.941406 188.75 296.289062 188.980469 296.589844 189.28125 C 296.886719 189.582031 297.121094 189.929688 297.28125 190.320312 C 297.445312 190.710938 297.527344 191.121094 297.527344 191.546875 Z M 297.527344 191.546875 " fill-opacity="1" fill-rule="nonzero"/><path fill="#6a3b21" d="M 210.996094 222.625 C 213.859375 222.839844 216.90625 223.253906 220.335938 223.855469 C 236.28125 226.65625 240.464844 231.304688 252.050781 230.136719 C 263.640625 228.964844 273.257812 223.625 272.289062 216.082031 C 271.320312 208.539062 261.960938 185.941406 269.980469 165.117188 L 270.273438 143.875 C 270.273438 143.875 266.195312 136.976562 255.714844 126.867188 C 245.234375 116.753906 229.769531 109.964844 226.382812 109.101562 C 223 108.238281 221.753906 111.210938 221.753906 111.210938 C 221.753906 111.210938 213.457031 107.59375 206.394531 106.207031 C 199.347656 104.808594 193.808594 105.117188 192.683594 105.808594 C 191.574219 106.5 190.804688 108.148438 190.804688 108.148438 C 190.804688 108.148438 181.113281 107.253906 171.402344 109.242188 C 161.691406 111.226562 157.398438 113.152344 155.796875 113.980469 C 154.199219 114.8125 153.765625 117.507812 153.765625 117.507812 C 153.765625 117.507812 147.902344 119.324219 142.101562 122.492188 C 136.070312 125.804688 133.390625 128.464844 132.683594 129.542969 C 131.867188 130.789062 131.285156 133.4375 131.285156 133.4375 C 131.285156 133.4375 119.820312 141.613281 110.0625 157.988281 C 100.308594 174.367188 96.875 187.128906 97.105469 193.285156 C 97.320312 199.441406 98.351562 204.984375 107.523438 214.21875 C 116.695312 223.453125 123.929688 229.503906 138.070312 233.550781 C 150.425781 237.078125 160.335938 233.890625 173.757812 229.582031 C 174.265625 229.410156 174.789062 229.242188 175.308594 229.074219 C 176.773438 228.613281 178.265625 228.132812 179.804688 227.640625 C 181.867188 226.996094 183.789062 226.410156 185.621094 225.886719 C 186.003906 225.78125 186.375 225.671875 186.742188 225.5625 C 190.359375 224.546875 193.59375 223.777344 196.683594 223.253906 C 197.070312 223.191406 197.453125 223.132812 197.824219 223.070312 C 201.824219 222.46875 205.65625 222.285156 209.902344 222.53125 C 210.289062 222.578125 210.640625 222.59375 210.996094 222.625 Z M 210.996094 222.625 " fill-opacity="1" fill-rule="evenodd"/><path fill="#ad7c65" d="M 272.84375 170.351562 C 272.84375 170.351562 265.578125 165.59375 265.117188 158.28125 C 264.65625 150.984375 266.546875 143.027344 268.566406 141.65625 C 270.582031 140.273438 275.121094 141.488281 281.613281 145.460938 C 288.109375 149.429688 292.601562 160.390625 287.199219 170.304688 C 281.796875 180.214844 272.84375 170.351562 272.84375 170.351562 Z M 272.84375 170.351562 " fill-opacity="1" fill-rule="evenodd"/><path fill="#f49587" d="M 278.414062 167.933594 C 275.75 167.78125 271.566406 164.855469 270.027344 160.835938 C 268.472656 156.804688 269.441406 149.785156 270.828125 149.445312 C 272.996094 148.90625 276.734375 151.0625 279.273438 154.203125 C 281.8125 157.34375 281.96875 161.851562 281.921875 165.148438 C 281.875 167.195312 280.722656 168.070312 278.414062 167.933594 Z M 278.414062 167.933594 " fill-opacity="1" fill-rule="evenodd"/><path fill="#6a3b21" d="M 286.554688 151.292969 C 286.398438 151.046875 286.476562 150.738281 286.722656 150.585938 C 286.96875 150.433594 287.277344 150.507812 287.429688 150.753906 C 287.429688 150.753906 288.675781 152.757812 289.125 154.558594 C 289.183594 154.835938 289.03125 155.109375 288.753906 155.171875 C 288.476562 155.25 288.199219 155.082031 288.136719 154.804688 C 287.707031 153.140625 286.554688 151.292969 286.554688 151.292969 Z M 270.78125 206.476562 C 270.597656 206.261719 270.625 205.9375 270.84375 205.753906 C 271.058594 205.570312 271.378906 205.597656 271.566406 205.816406 C 271.566406 205.816406 276.089844 211.1875 286.984375 213.988281 C 287.261719 214.066406 287.414062 214.34375 287.355469 214.605469 C 287.277344 214.882812 287 215.035156 286.738281 214.972656 C 275.441406 212.078125 270.78125 206.476562 270.78125 206.476562 Z M 269.472656 168.070312 C 269.273438 167.871094 269.289062 167.546875 269.503906 167.347656 C 269.703125 167.148438 270.027344 167.164062 270.226562 167.378906 C 270.226562 167.378906 271.65625 168.917969 272.996094 169.734375 C 273.242188 169.886719 273.320312 170.195312 273.164062 170.441406 C 273.027344 170.6875 272.703125 170.765625 272.457031 170.613281 C 271.027344 169.71875 269.472656 168.070312 269.472656 168.070312 Z M 269.472656 168.070312 " fill-opacity="1" fill-rule="evenodd"/><path fill="#2f1a16" d="M 196.699219 223.269531 C 185.882812 208.800781 179.648438 185.636719 178.972656 158.742188 C 178.296875 131.4375 189.761719 108.734375 189.761719 108.734375 C 189.882812 108.488281 190.191406 108.378906 190.453125 108.5 C 190.699219 108.625 190.808594 108.933594 190.683594 109.195312 C 190.683594 109.195312 179.328125 131.683594 180.003906 158.726562 C 180.664062 185.636719 186.929688 208.800781 197.855469 223.101562 C 197.46875 223.148438 197.085938 223.207031 196.699219 223.269531 Z M 185.636719 225.902344 C 177.542969 217.835938 159.414062 197.410156 153.964844 171.351562 C 147.796875 141.933594 152.980469 118.660156 152.980469 118.660156 C 153.042969 118.382812 153.320312 118.214844 153.597656 118.277344 C 153.875 118.335938 154.042969 118.613281 153.980469 118.890625 C 153.980469 118.890625 148.859375 141.980469 154.96875 171.148438 C 160.476562 197.410156 178.972656 217.914062 186.757812 225.59375 C 186.390625 225.6875 186.019531 225.792969 185.636719 225.902344 Z M 208.550781 216.589844 C 204.609375 216.621094 201.164062 217.160156 201.164062 217.160156 C 200.886719 217.207031 200.625 217.003906 200.578125 216.726562 C 200.53125 216.453125 200.730469 216.191406 201.007812 216.144531 C 201.007812 216.144531 204.394531 215.605469 208.335938 215.558594 C 205.871094 203.984375 202.703125 184.417969 204.6875 167.578125 C 207.734375 141.734375 217.304688 117.769531 220.796875 111.75 C 220.9375 111.503906 221.261719 111.425781 221.492188 111.566406 C 221.738281 111.703125 221.8125 112.027344 221.675781 112.257812 C 218.214844 118.230469 208.734375 142.042969 205.703125 167.703125 C 203.71875 184.527344 206.933594 204.089844 209.378906 215.558594 C 211.027344 215.574219 212.71875 215.695312 214.257812 215.972656 C 219.875 216.988281 227.863281 219.207031 234.292969 221.054688 C 240.617188 222.886719 248.082031 224.578125 254.808594 223.007812 C 255.085938 222.945312 255.359375 223.117188 255.421875 223.394531 C 255.484375 223.671875 255.316406 223.949219 255.039062 224.007812 C 248.144531 225.625 240.496094 223.902344 234.003906 222.039062 C 227.617188 220.191406 219.660156 217.992188 214.074219 216.976562 C 212.644531 216.714844 211.105469 216.605469 209.597656 216.574219 C 210.132812 219.050781 210.628906 221.117188 211.011719 222.609375 C 210.65625 222.578125 210.289062 222.5625 209.933594 222.53125 C 209.550781 221.039062 209.074219 219.007812 208.550781 216.589844 Z M 167.03125 226.378906 C 159.523438 228.503906 152.644531 229.457031 143.101562 228.027344 C 129.730469 226.027344 121.914062 217.019531 121.914062 217.019531 C 121.726562 216.804688 121.742188 216.480469 121.957031 216.296875 C 122.175781 216.113281 122.496094 216.128906 122.683594 216.34375 C 122.683594 216.34375 130.285156 225.070312 143.257812 227.011719 C 152.226562 228.351562 158.796875 227.550781 165.800781 225.65625 C 149.597656 215.972656 138.195312 198.210938 133.007812 179.417969 C 126.914062 157.375 130.730469 134.421875 130.730469 134.421875 C 130.777344 134.144531 131.039062 133.960938 131.316406 134.007812 C 131.59375 134.054688 131.777344 134.316406 131.730469 134.59375 C 131.730469 134.59375 127.960938 157.328125 133.992188 179.15625 C 139.195312 198.011719 150.71875 215.851562 167.15625 225.269531 C 169.925781 224.472656 172.800781 223.515625 175.925781 222.46875 C 176.1875 222.378906 176.480469 222.53125 176.574219 222.792969 C 176.664062 223.054688 176.511719 223.347656 176.25 223.441406 C 173.464844 224.363281 170.894531 225.226562 168.402344 225.964844 C 170.617188 227.164062 172.925781 228.195312 175.308594 229.074219 C 174.789062 229.242188 174.265625 229.410156 173.757812 229.582031 C 171.433594 228.671875 169.1875 227.59375 167.03125 226.378906 Z M 167.03125 226.378906 " fill-opacity="1" fill-rule="evenodd"/><path fill="#2f1a16" d="M 319.007812 181.648438 C 319.207031 181.847656 319.191406 182.171875 318.992188 182.371094 C 318.792969 182.570312 318.46875 182.554688 318.269531 182.355469 C 317.484375 181.539062 316.269531 182.25 316.332031 183.355469 C 316.34375 183.632812 316.128906 183.878906 315.851562 183.894531 C 315.578125 183.910156 315.328125 183.695312 315.316406 183.417969 C 315.191406 181.324219 317.546875 180.109375 319.007812 181.648438 Z M 316.851562 172.183594 C 316.515625 172.519531 315.761719 171.921875 315.683594 171.890625 C 315.390625 171.796875 314.945312 171.703125 314.882812 171.6875 C 314.285156 171.734375 313.976562 172.320312 313.898438 172.875 C 313.867188 173.152344 313.605469 173.351562 313.328125 173.320312 C 313.050781 173.289062 312.851562 173.027344 312.882812 172.75 C 313.023438 171.703125 313.714844 170.71875 314.867188 170.65625 C 314.929688 170.65625 315.4375 170.734375 315.914062 170.890625 C 316.253906 170.996094 316.578125 171.136719 316.730469 171.273438 C 316.898438 171.410156 316.960938 171.582031 316.976562 171.734375 C 316.992188 171.890625 316.976562 172.042969 316.851562 172.183594 Z M 308.835938 177.105469 C 308.421875 177 308.113281 176.875 308.050781 176.875 C 307.710938 176.859375 307.28125 176.953125 307.144531 177.046875 C 306.898438 177.199219 306.773438 177.460938 306.742188 177.753906 C 306.695312 178.09375 306.773438 178.445312 306.898438 178.753906 C 307.003906 179.015625 306.898438 179.308594 306.636719 179.433594 C 306.375 179.539062 306.082031 179.433594 305.957031 179.171875 C 305.542969 178.199219 305.605469 176.832031 306.605469 176.199219 C 306.867188 176.03125 307.804688 175.785156 308.40625 175.921875 C 308.820312 176.015625 309.160156 176.183594 309.25 176.554688 C 309.3125 176.785156 309.097656 177.167969 308.835938 177.105469 Z M 305.050781 166.410156 C 305.28125 166.5625 305.34375 166.886719 305.1875 167.117188 C 305.035156 167.347656 304.710938 167.410156 304.480469 167.257812 C 303.742188 166.761719 302.894531 166.808594 302.527344 167.300781 C 302.296875 167.609375 302.328125 168.085938 302.664062 168.640625 C 302.820312 168.886719 302.742188 169.195312 302.496094 169.347656 C 302.25 169.503906 301.941406 169.425781 301.789062 169.179688 C 301.15625 168.148438 301.28125 167.285156 301.710938 166.703125 C 302.328125 165.855469 303.773438 165.5625 305.050781 166.410156 Z M 236.355469 194.085938 C 236.632812 194.132812 236.816406 194.410156 236.773438 194.6875 C 236.726562 194.964844 236.449219 195.148438 236.171875 195.101562 C 235.710938 195.023438 235.308594 195.269531 235.019531 195.609375 C 234.695312 195.996094 234.496094 196.53125 234.511719 196.996094 C 234.539062 197.734375 235.019531 198.378906 235.496094 198.902344 C 235.679688 199.105469 235.679688 199.425781 235.464844 199.628906 C 235.265625 199.8125 234.941406 199.8125 234.742188 199.597656 C 234.09375 198.902344 233.507812 198.011719 233.480469 197.027344 C 233.449219 196.195312 233.863281 195.210938 234.539062 194.625 C 235.0625 194.191406 235.679688 193.960938 236.355469 194.085938 Z M 251.191406 173.351562 C 251.421875 173.519531 251.46875 173.84375 251.296875 174.058594 C 251.128906 174.289062 250.804688 174.335938 250.589844 174.167969 C 250.34375 173.984375 250.007812 174.027344 249.667969 174.121094 C 249.066406 174.289062 248.453125 174.722656 248.265625 175.121094 C 247.882812 175.921875 248.207031 176.859375 248.652344 177.585938 C 248.804688 177.832031 248.730469 178.140625 248.484375 178.292969 C 248.234375 178.445312 247.929688 178.371094 247.773438 178.125 C 247.160156 177.121094 246.804688 175.8125 247.328125 174.691406 C 247.605469 174.089844 248.46875 173.414062 249.359375 173.152344 C 250.035156 172.953125 250.699219 172.996094 251.191406 173.351562 Z M 234.21875 152.910156 C 234.480469 153.03125 234.585938 153.339844 234.464844 153.585938 C 234.339844 153.847656 234.03125 153.957031 233.785156 153.832031 C 233.261719 153.585938 232.785156 153.554688 232.402344 153.695312 C 232 153.847656 231.679688 154.171875 231.464844 154.574219 C 230.96875 155.449219 230.878906 156.695312 231.371094 157.636719 C 231.507812 157.882812 231.402344 158.191406 231.15625 158.328125 C 230.910156 158.464844 230.601562 158.359375 230.460938 158.113281 C 229.816406 156.867188 229.910156 155.21875 230.570312 154.0625 C 230.925781 153.449219 231.433594 152.972656 232.046875 152.742188 C 232.632812 152.507812 233.386719 152.507812 234.21875 152.910156 Z M 245.867188 145.011719 C 245.40625 144.875 245.175781 144.859375 245.035156 144.875 C 244.679688 144.90625 244.328125 144.984375 244.25 145.011719 C 243.113281 145.507812 242.941406 146.875 243.542969 147.859375 C 243.679688 148.105469 243.605469 148.414062 243.375 148.570312 C 243.144531 148.722656 242.820312 148.628906 242.664062 148.398438 C 241.757812 146.890625 242.113281 144.828125 243.851562 144.089844 C 244.019531 144.011719 245.019531 143.78125 245.636719 143.875 C 246.144531 143.953125 246.421875 144.242188 246.453125 144.628906 C 246.453125 144.890625 246.128906 145.089844 245.867188 145.011719 Z M 238.742188 135.855469 C 238.972656 136.023438 239.019531 136.347656 238.847656 136.5625 C 238.679688 136.792969 238.355469 136.839844 238.140625 136.671875 C 237.402344 136.117188 236.542969 136.410156 236.003906 136.992188 C 235.449219 137.578125 235.203125 138.503906 235.785156 139.242188 C 235.957031 139.472656 235.925781 139.78125 235.695312 139.964844 C 235.464844 140.132812 235.15625 140.101562 234.972656 139.871094 C 234.046875 138.6875 234.386719 137.226562 235.265625 136.300781 C 236.125 135.347656 237.542969 134.960938 238.742188 135.855469 Z M 120.789062 191.039062 C 121.003906 190.851562 121.328125 190.882812 121.511719 191.097656 C 121.695312 191.316406 121.667969 191.636719 121.449219 191.824219 C 121.160156 192.070312 120.882812 192.347656 120.789062 192.761719 C 120.496094 194.023438 121.742188 194.671875 122.851562 194.65625 C 123.128906 194.65625 123.359375 194.871094 123.375 195.164062 C 123.375 195.441406 123.160156 195.671875 122.867188 195.6875 C 121.128906 195.71875 119.34375 194.515625 119.789062 192.546875 C 119.925781 191.867188 120.328125 191.421875 120.789062 191.039062 Z M 109.925781 190.300781 C 110.171875 190.175781 110.480469 190.285156 110.601562 190.53125 C 110.726562 190.777344 110.617188 190.914062 110.386719 191.144531 C 110.324219 191.207031 110.261719 191.359375 110.234375 191.453125 C 110.140625 191.730469 110.15625 192.085938 110.203125 192.285156 C 110.371094 193.085938 111.0625 193.5625 111.878906 193.4375 C 112.15625 193.394531 112.417969 193.59375 112.464844 193.871094 C 112.511719 194.148438 112.308594 194.410156 112.035156 194.453125 C 110.664062 194.671875 109.480469 193.855469 109.203125 192.484375 C 109.140625 192.144531 109.125 191.605469 109.261719 191.144531 C 109.371094 190.777344 109.601562 190.453125 109.925781 190.300781 Z M 114.324219 176.96875 C 114.3125 176.96875 114.28125 177 114.25 177.015625 C 114.203125 177.0625 114.15625 177.105469 114.109375 177.167969 C 113.894531 177.445312 113.726562 177.800781 113.664062 177.984375 C 113.464844 178.523438 113.527344 179.03125 113.773438 179.417969 C 114.019531 179.800781 114.464844 180.03125 115.019531 180.03125 C 115.296875 180.03125 115.527344 180.261719 115.527344 180.539062 C 115.527344 180.816406 115.296875 181.046875 115.019531 181.046875 C 114.066406 181.046875 113.339844 180.617188 112.925781 179.96875 C 112.511719 179.339844 112.402344 178.492188 112.710938 177.617188 C 112.816406 177.324219 113.125 176.691406 113.480469 176.324219 C 113.710938 176.089844 113.957031 175.953125 114.203125 175.921875 C 114.480469 175.890625 114.742188 176.089844 114.773438 176.367188 C 114.789062 176.691406 114.585938 176.9375 114.324219 176.96875 Z M 116.695312 160.605469 C 116.941406 160.453125 117.25 160.53125 117.402344 160.777344 C 117.558594 161.023438 117.480469 161.328125 117.234375 161.484375 C 116.679688 161.835938 116.617188 162.40625 116.851562 162.882812 C 117.097656 163.40625 117.632812 163.855469 118.265625 163.824219 C 118.542969 163.808594 118.789062 164.039062 118.804688 164.316406 C 118.820312 164.59375 118.605469 164.839844 118.3125 164.855469 C 117.265625 164.902344 116.34375 164.207031 115.925781 163.316406 C 115.496094 162.375 115.617188 161.269531 116.695312 160.605469 Z M 116.695312 160.605469 " fill-opacity="1" fill-rule="evenodd"/></svg>