<svg xmlns="http://www.w3.org/2000/svg" xmlns:xlink="http://www.w3.org/1999/xlink" width="500" zoomAndPan="magnify" viewBox="0 0 375 374.999991" height="500" preserveAspectRatio="xMidYMid meet" version="1.0"><defs><g/><clipPath id="31031c7203"><path d="M 66.140625 99.429688 L 294.890625 99.429688 L 294.890625 374.679688 L 66.140625 374.679688 Z M 66.140625 99.429688 " clip-rule="nonzero"/></clipPath></defs><g clip-path="url(#31031c7203)"><path fill="#e34625" d="M 287.414062 152.832031 C 283.523438 149.914062 282.972656 150.175781 276.929688 153.054688 C 273.882812 154.503906 269.253906 156.707031 261.695312 159.578125 C 256.054688 161.722656 247.171875 162.691406 237.238281 162.96875 C 235.417969 155.027344 224.179688 106.5625 220 102.964844 C 217.675781 100.964844 213.671875 99.867188 209.074219 99.671875 C 204.550781 99.480469 199.386719 100.152344 194.683594 101.6875 C 180.328125 104.304688 166.277344 101.785156 165.976562 101.6875 C 161.273438 100.152344 156.109375 99.480469 151.585938 99.671875 C 146.988281 99.863281 142.984375 100.960938 140.660156 102.964844 C 136.480469 106.5625 125.242188 155.023438 123.421875 162.96875 C 113.488281 162.691406 104.605469 161.722656 98.964844 159.578125 C 91.40625 156.707031 86.777344 154.503906 83.730469 153.054688 C 77.6875 150.175781 77.136719 149.914062 73.246094 152.832031 C 70.011719 155.257812 66.140625 167.898438 66.140625 181.753906 C 66.140625 191.316406 67.914062 201.554688 72.894531 209.5625 C 76.394531 215.1875 84.832031 219.976562 95.625 223.824219 C 107.761719 228.148438 122.953125 231.332031 137.394531 233.183594 C 135.828125 236.214844 133.234375 241.933594 134.980469 243.707031 C 135.457031 244.191406 136.351562 244.726562 137.425781 245.253906 C 137.933594 246.457031 139.359375 250.03125 140.386719 254.507812 C 137.253906 255.976562 127.773438 261 121.726562 270.292969 C 115.386719 280.042969 116.667969 289.285156 117.191406 291.824219 C 115.976562 294.21875 115.058594 296.574219 114.40625 298.886719 C 110.984375 311.078125 115.027344 321.984375 123.105469 331.5 C 130.992188 340.78125 142.746094 348.71875 155.074219 355.195312 C 173.839844 365.054688 193.972656 371.5625 203.664062 374.285156 L 206.046875 374.953125 L 205.859375 372.488281 C 204.359375 353.113281 214.492188 345.324219 224.746094 337.441406 C 235.546875 329.136719 246.480469 320.734375 245.785156 299.875 C 245.550781 292.746094 243.855469 283.289062 240.253906 278.582031 C 239.808594 275.34375 236.691406 258.300781 220.421875 253.867188 C 221.433594 249.691406 222.75 246.398438 223.234375 245.253906 C 224.308594 244.726562 225.203125 244.191406 225.675781 243.707031 C 227.421875 241.933594 224.832031 236.214844 223.261719 233.183594 C 237.703125 231.332031 252.898438 228.148438 265.03125 223.824219 C 275.824219 219.976562 284.261719 215.1875 287.761719 209.5625 C 292.742188 201.558594 294.519531 191.316406 294.519531 181.753906 C 294.519531 167.894531 290.648438 155.257812 287.414062 152.832031 Z M 151.699219 102.464844 C 155.90625 102.285156 160.71875 102.914062 165.109375 104.347656 C 169.066406 105.636719 191.59375 105.636719 195.550781 104.347656 C 199.941406 102.914062 204.753906 102.285156 208.964844 102.464844 C 212.953125 102.632812 216.335938 103.507812 218.171875 105.089844 C 218.59375 105.453125 219.128906 106.460938 219.734375 107.957031 C 217.757812 106.390625 214.347656 105.519531 210.363281 105.347656 C 205.949219 105.152344 200.902344 105.832031 196.292969 107.382812 C 192.144531 108.78125 168.515625 108.78125 164.367188 107.382812 C 159.761719 105.832031 154.714844 105.152344 150.300781 105.347656 C 146.3125 105.519531 142.90625 106.390625 140.925781 107.957031 C 141.535156 106.460938 142.066406 105.453125 142.488281 105.089844 C 144.324219 103.507812 147.707031 102.632812 151.699219 102.464844 Z M 127.199219 159.035156 C 142.390625 155.015625 160.660156 152.664062 180.328125 152.664062 C 200 152.664062 218.269531 155.015625 233.457031 159.035156 C 233.847656 160.699219 234.160156 162.0625 234.382812 163.03125 C 213.921875 163.335938 146.738281 163.335938 126.273438 163.03125 C 126.496094 162.066406 126.8125 160.699219 127.199219 159.035156 Z M 166.984375 264.042969 L 168.921875 272.316406 C 167.929688 272.164062 166.921875 271.910156 165.917969 271.574219 L 163.882812 264.058594 Z M 163.996094 262.460938 L 164.4375 258.003906 L 164.519531 257.949219 L 166.089844 256.890625 L 167.613281 258.015625 C 167.53125 259.109375 167.417969 260.402344 167.324219 261.472656 L 167.238281 262.460938 Z M 173.476562 264.390625 L 174.089844 272.589844 C 172.546875 272.5625 171.246094 272.523438 170.398438 272.472656 L 168.507812 264.398438 C 170.164062 264.398438 171.820312 264.414062 173.476562 264.390625 Z M 168.597656 263 C 168.628906 262.628906 168.671875 262.140625 168.71875 261.59375 C 168.8125 260.53125 168.925781 259.242188 169.007812 258.101562 L 171.105469 256.800781 L 173.5625 257.941406 L 173.574219 257.949219 L 173.574219 262.992188 C 172.507812 263.011719 170.53125 263.007812 169.179688 263 Z M 164.304688 270.964844 C 163.527344 270.636719 162.761719 270.261719 162.023438 269.855469 L 160.359375 263.691406 C 161.007812 263.722656 161.660156 263.753906 162.359375 263.785156 Z M 162.597656 262.390625 C 162.097656 262.410156 161.378906 262.417969 160.75 262.421875 L 160.128906 262.382812 L 160.65625 257.917969 L 162.183594 257.085938 L 163.058594 257.730469 Z M 160.289062 268.800781 C 159.519531 268.289062 158.796875 267.742188 158.144531 267.183594 C 157.914062 266.214844 157.65625 264.949219 157.496094 263.585938 C 157.980469 263.597656 158.445312 263.613281 158.894531 263.628906 Z M 158.730469 262.292969 L 157.371094 262.203125 C 157.347656 261.757812 157.332031 261.304688 157.339844 260.851562 C 157.363281 258.9375 157.867188 257.878906 158.386719 257.296875 L 159.253906 257.84375 Z M 158.792969 271.167969 C 162.089844 273.347656 166.144531 274.964844 169.878906 275.246094 C 174.679688 275.601562 178.394531 275.480469 180.328125 275.359375 C 182.261719 275.480469 185.976562 275.605469 190.78125 275.246094 C 194.515625 274.96875 198.570312 273.347656 201.863281 271.167969 C 205.296875 268.890625 207.960938 265.945312 208.6875 263.160156 C 208.890625 262.386719 209.050781 261.726562 209.1875 261.15625 C 209.824219 258.546875 209.953125 258.011719 211.890625 256.722656 C 214.550781 254.949219 215.683594 250.089844 216.042969 248.097656 C 216.863281 247.820312 218.203125 247.355469 219.636719 246.800781 C 218.601562 249.671875 217.203125 254.21875 216.625 259.113281 C 216.554688 259.699219 216.460938 260.527344 216.375 261.3125 C 215.71875 267.160156 215.460938 269.453125 211.863281 271.703125 C 209.640625 273.089844 207.132812 274.808594 204.914062 276.535156 C 205.007812 274.671875 205.460938 272.769531 206.066406 271.144531 C 203.0625 273.597656 202.007812 275.132812 202.425781 278.582031 C 201.007812 279.835938 199.851562 281.035156 199.183594 282.058594 C 198.964844 282.394531 198.761719 282.765625 198.542969 283.15625 C 197.105469 285.753906 194.910156 289.722656 180.492188 289.222656 L 180.492188 289.210938 C 180.492188 289.210938 180.328125 289.214844 180.328125 289.214844 L 180.167969 289.210938 L 180.167969 289.222656 C 165.75 289.722656 163.554688 285.757812 162.117188 283.15625 C 161.898438 282.765625 161.695312 282.394531 161.476562 282.058594 C 160.804688 281.035156 159.648438 279.835938 158.230469 278.582031 C 158.648438 275.132812 157.597656 273.597656 154.59375 271.144531 C 155.195312 272.769531 155.648438 274.671875 155.746094 276.535156 C 153.523438 274.808594 151.019531 273.089844 148.796875 271.703125 C 145.199219 269.453125 144.941406 267.160156 144.285156 261.3125 C 144.195312 260.527344 144.101562 259.699219 144.035156 259.113281 C 143.453125 254.21875 142.054688 249.671875 141.019531 246.800781 C 142.457031 247.355469 143.792969 247.820312 144.613281 248.097656 C 144.976562 250.089844 146.105469 254.949219 148.765625 256.722656 C 150.703125 258.011719 150.832031 258.546875 151.46875 261.15625 C 151.609375 261.726562 151.769531 262.386719 151.972656 263.160156 C 152.699219 265.945312 155.363281 268.890625 158.792969 271.167969 Z M 179.730469 264.5625 L 179.746094 264.5625 C 179.75 266.363281 179.683594 270.660156 179.652344 272.640625 C 178.21875 272.640625 176.800781 272.628906 175.496094 272.613281 L 174.894531 264.5625 Z M 174.976562 263.160156 L 174.976562 257.636719 L 177.488281 256.1875 L 180.023438 257.53125 L 180.03125 257.640625 L 179.792969 263.160156 Z M 181.367188 264.5625 L 186.28125 264.5625 L 185.679688 272.605469 C 184.25 272.625 182.664062 272.636719 181.054688 272.640625 C 181.085938 270.660156 181.148438 266.40625 181.148438 264.5625 L 181.371094 264.5625 Z M 181.339844 263.160156 L 181.355469 258.304688 L 181.40625 257.125 L 183.171875 256.1875 L 186.136719 257.894531 L 186.269531 257.972656 L 186.269531 263.160156 Z M 187.695312 264.390625 C 189.285156 264.414062 190.878906 264.398438 192.46875 264.398438 L 190.582031 272.453125 L 190.574219 272.453125 C 189.832031 272.511719 188.597656 272.550781 187.085938 272.585938 Z M 187.625 262.992188 L 187.625 257.695312 L 189.554688 256.800781 L 191.742188 258.15625 L 192.0625 258.355469 C 192.144531 259.433594 192.242188 260.609375 192.324219 261.59375 C 192.371094 262.144531 192.414062 262.632812 192.441406 263 L 191.878906 263 C 190.574219 263.007812 188.65625 263.011719 187.625 262.992188 Z M 193.988281 264.042969 L 197.074219 264.058594 L 195.070312 271.460938 C 194.066406 271.816406 193.058594 272.089844 192.0625 272.261719 Z M 193.378906 257.769531 L 194.570312 256.890625 L 196.140625 257.949219 L 196.488281 258.183594 L 196.898438 262.460938 L 193.757812 262.460938 L 193.675781 261.472656 C 193.578125 260.324219 193.460938 258.914062 193.378906 257.769531 Z M 201.765625 263.632812 C 202.214844 263.613281 202.675781 263.597656 203.164062 263.585938 C 203.003906 264.949219 202.746094 266.214844 202.515625 267.183594 C 201.859375 267.746094 201.140625 268.289062 200.371094 268.800781 L 201.765625 263.628906 Z M 201.476562 257.796875 L 202.269531 257.296875 C 202.789062 257.882812 203.292969 258.9375 203.316406 260.855469 C 203.324219 261.304688 203.3125 261.757812 203.285156 262.207031 L 201.992188 262.292969 L 201.480469 257.796875 Z M 200.035156 262.421875 C 199.429688 262.417969 198.734375 262.410156 198.25 262.394531 L 197.792969 257.59375 L 198.476562 257.085938 L 200.136719 257.992188 L 200.636719 262.382812 Z M 198.601562 263.78125 C 199.191406 263.753906 199.746094 263.722656 200.296875 263.699219 L 198.636719 269.855469 C 198.003906 270.203125 197.355469 270.527344 196.691406 270.820312 Z M 235.992188 275.09375 C 241.660156 295.453125 208.300781 306.089844 194.339844 310.03125 C 210.710938 308.148438 234.203125 302.445312 239.785156 284.984375 C 240.929688 288.011719 242.089844 292.796875 242.332031 299.988281 C 242.964844 319.078125 232.738281 326.941406 222.628906 334.710938 C 212.066406 342.832031 201.625 350.859375 202.269531 370.289062 C 192.054688 367.289062 173.78125 361.121094 156.683594 352.140625 C 145.289062 346.152344 132.117188 336.222656 124.578125 327.875 C 139.796875 338.835938 165.171875 344.035156 183.371094 344.246094 C 163.914062 340.898438 109.832031 327.980469 117.734375 299.824219 C 117.890625 299.28125 118.058594 298.730469 118.246094 298.183594 C 129.664062 317.523438 148.828125 320.304688 170.421875 319.460938 C 153.800781 319.25 121.550781 308.4375 120.207031 288.414062 C 119.964844 284.839844 120.390625 278.6875 124.625 272.179688 C 129.773438 264.269531 137.640625 259.722656 141.058594 258.019531 C 141.128906 258.492188 141.195312 258.964844 141.25 259.441406 C 141.367188 260.414062 141.4375 261.042969 141.5 261.625 C 141.847656 264.703125 142.097656 266.9375 142.707031 268.734375 C 142.707031 268.734375 131.296875 279.605469 149.496094 292.058594 C 182.453125 314.617188 237.222656 282.800781 217.257812 270.3125 C 218.410156 268.257812 218.699219 265.671875 219.15625 261.625 C 219.21875 261.042969 219.289062 260.414062 219.40625 259.441406 C 219.492188 258.703125 219.601562 257.972656 219.722656 257.257812 C 230.308594 260.25 234.441406 269.515625 235.992188 275.09375 Z M 223.683594 241.75 C 222.269531 243.191406 214.398438 245.703125 214.375 245.710938 L 213.53125 245.980469 L 213.53125 245.984375 C 213.53125 245.984375 209.730469 246.453125 209.730469 246.453125 C 209.730469 246.453125 202.984375 246.871094 202.054688 251.078125 C 201.582031 253.226562 201.351562 254.621094 201.238281 255.472656 L 200.609375 255.867188 L 198.894531 254.929688 L 198.304688 254.609375 L 197.765625 255.007812 L 196.695312 255.796875 L 195.125 254.742188 L 194.511719 254.328125 L 193.921875 254.765625 L 192.242188 256 L 190.179688 254.722656 L 189.699219 254.421875 L 189.1875 254.660156 L 186.703125 255.8125 L 183.707031 254.089844 L 183.207031 253.800781 L 182.695312 254.066406 L 180.328125 255.320312 L 177.957031 254.066406 L 177.449219 253.800781 L 176.945312 254.089844 L 173.949219 255.8125 L 171.46875 254.660156 L 170.953125 254.421875 L 170.472656 254.722656 L 168.410156 256 L 166.734375 254.765625 L 166.140625 254.328125 L 165.53125 254.742188 L 163.960938 255.796875 L 162.886719 255.007812 L 162.347656 254.609375 L 161.761719 254.929688 L 160.042969 255.867188 L 159.414062 255.472656 C 159.300781 254.621094 159.070312 253.226562 158.597656 251.078125 C 157.671875 246.871094 150.921875 246.453125 150.921875 246.453125 L 147.125 245.984375 L 147.125 245.980469 C 147.125 245.980469 146.277344 245.710938 146.277344 245.710938 C 146.257812 245.703125 138.386719 243.191406 136.972656 241.75 C 136.078125 240.839844 140.851562 232.683594 140.863281 232.660156 L 141.34375 231.839844 L 140.753906 231.09375 C 140.175781 230.359375 139.445312 229.601562 138.648438 228.78125 C 135.320312 225.335938 130.734375 220.597656 134.023438 211.785156 C 134.148438 211.453125 134.121094 211.070312 133.988281 210.664062 L 134.179688 209.675781 C 134.359375 209.175781 134.496094 208.882812 134.550781 208.894531 C 134.589844 208.902344 134.515625 208.851562 134.359375 208.753906 L 136.835938 195.992188 L 145.457031 186.582031 L 135.050781 195.203125 L 130.554688 205.976562 L 129.027344 190.941406 C 153.824219 169.660156 208.019531 170.679688 231.628906 190.941406 L 230.101562 205.976562 L 225.605469 195.203125 L 215.195312 186.582031 L 223.816406 195.992188 L 226.296875 208.753906 C 226.136719 208.847656 226.0625 208.902344 226.105469 208.894531 C 226.15625 208.882812 226.292969 209.175781 226.476562 209.675781 L 226.667969 210.664062 C 226.535156 211.070312 226.503906 211.453125 226.628906 211.785156 C 229.917969 220.597656 225.335938 225.335938 222.003906 228.78125 C 221.210938 229.601562 220.476562 230.359375 219.898438 231.09375 L 219.3125 231.839844 L 219.789062 232.660156 C 219.804688 232.683594 224.578125 240.839844 223.683594 241.75 Z M 286.882812 205.398438 C 287.773438 203.199219 288.605469 200.582031 289.320312 197.46875 C 293.773438 178.078125 282.449219 155.855469 282.449219 155.855469 C 282.449219 155.855469 281.292969 156.800781 275.089844 160.378906 C 268.886719 163.953125 258.375 166.511719 233.871094 169.839844 C 223.589844 171.234375 137.0625 171.234375 126.78125 169.839844 C 102.277344 166.511719 91.765625 163.949219 85.5625 160.378906 C 79.359375 156.800781 78.203125 155.855469 78.203125 155.855469 C 78.203125 155.855469 66.878906 178.078125 71.332031 197.46875 C 72.046875 200.582031 72.878906 203.195312 73.769531 205.398438 C 70.242188 198.34375 68.9375 189.816406 68.9375 181.757812 C 68.9375 168.714844 72.195312 157.109375 74.917969 155.066406 C 77.449219 153.167969 77.871094 153.371094 82.523438 155.585938 C 85.589844 157.042969 90.246094 159.261719 97.976562 162.199219 C 114.617188 169.046875 216.851562 169.308594 251.394531 165.050781 C 261.632812 163.792969 268.84375 160.003906 278.128906 155.585938 C 282.777344 153.371094 283.203125 153.167969 285.734375 155.066406 C 288.457031 157.109375 291.710938 168.714844 291.710938 181.757812 C 291.710938 189.820312 290.40625 198.347656 286.878906 205.398438 Z M 286.882812 205.398438 " fill-opacity="1" fill-rule="nonzero"/></g><path fill="#e34625" d="M 196.773438 189.863281 C 191.414062 188.429688 185.316406 190.21875 185.722656 196.734375 C 188.351562 193.0625 192.796875 191.652344 196.773438 189.863281 Z M 196.773438 189.863281 " fill-opacity="1" fill-rule="nonzero"/><path fill="#e34625" d="M 193.050781 283.441406 C 185.167969 277.359375 175.492188 277.359375 167.609375 283.441406 C 174.855469 281.761719 185.804688 281.761719 193.050781 283.441406 Z M 193.050781 283.441406 " fill-opacity="1" fill-rule="nonzero"/><path fill="#e34625" d="M 175.132812 196.734375 C 175.542969 190.21875 169.445312 188.429688 164.085938 189.863281 C 168.058594 191.652344 172.507812 193.0625 175.132812 196.734375 Z M 175.132812 196.734375 " fill-opacity="1" fill-rule="nonzero"/><path fill="#e34625" d="M 173.929688 211.925781 C 174.378906 210.785156 174.625 209.34375 174.742188 207.871094 C 175.042969 204.175781 174.558594 200.257812 174.558594 200.257812 C 172.5625 192.058594 142.390625 200.257812 139.761719 203.832031 C 137.136719 207.40625 136.714844 218.972656 139.761719 223.070312 C 142.8125 227.171875 150.90625 229.800781 160.367188 226.539062 C 162.574219 225.78125 164.398438 224.800781 165.925781 223.6875 C 162.402344 231.066406 152.871094 236.988281 152.871094 236.988281 C 152.871094 236.988281 161.441406 233.859375 166.378906 228.003906 C 168.980469 224.925781 171.15625 219.515625 172.636719 215.082031 C 173.164062 213.914062 173.570312 212.835938 173.929688 211.929688 Z M 173.929688 211.925781 " fill-opacity="1" fill-rule="nonzero"/><path fill="#e34625" d="M 220.898438 223.070312 C 223.945312 218.96875 223.523438 207.40625 220.898438 203.832031 C 218.269531 200.257812 188.097656 192.058594 186.101562 200.257812 C 186.101562 200.257812 185.617188 204.175781 185.917969 207.867188 C 186.035156 209.34375 186.28125 210.785156 186.730469 211.925781 C 187.089844 212.832031 187.496094 213.914062 188.023438 215.078125 C 189.503906 219.515625 191.679688 224.925781 194.277344 228.003906 C 199.21875 233.859375 207.785156 236.984375 207.785156 236.984375 C 207.785156 236.984375 198.257812 231.0625 194.734375 223.683594 C 196.257812 224.792969 198.085938 225.777344 200.292969 226.539062 C 209.753906 229.796875 217.847656 227.167969 220.894531 223.070312 Z M 220.898438 223.070312 " fill-opacity="1" fill-rule="nonzero"/><path fill="#e34625" d="M 180.441406 217.09375 C 176.652344 216.925781 169.886719 240.667969 169.921875 240.722656 C 170.234375 241.203125 176.542969 247.359375 176.597656 247 C 176.636719 246.726562 179.203125 244.722656 180.429688 243.78125 C 181.652344 244.722656 184.222656 246.730469 184.261719 247 C 184.3125 247.359375 190.621094 241.203125 190.9375 240.722656 C 191.03125 240.578125 184.226562 217.261719 180.441406 217.09375 Z M 180.441406 217.09375 " fill-opacity="1" fill-rule="nonzero"/><path fill="#e34625" d="M 215.0625 329.40625 C 224.429688 323.363281 231.640625 316.613281 227.359375 307.390625 L 227.117188 306.945312 C 227.011719 309.089844 226.25 311.296875 224.953125 313.308594 C 220.746094 319.839844 215.480469 322.8125 208.921875 327.132812 C 201.003906 332.351562 195.222656 339.273438 197.007812 347.296875 C 199.070312 340.628906 208.523438 333.625 215.0625 329.40625 Z M 215.0625 329.40625 " fill-opacity="1" fill-rule="nonzero"/><g fill="#e34625" fill-opacity="1"><g transform="translate(47.037928, 166.148375)"><g><path d="M -36.984375 -30.203125 L -37.1875 -29.421875 C -38.195312 -25.660156 -38.039062 -22.476562 -36.71875 -19.875 C -35.394531 -17.28125 -32.335938 -15.34375 -27.546875 -14.0625 C -25.984375 -13.644531 -24.851562 -13.503906 -24.15625 -13.640625 C -23.46875 -13.773438 -23.078125 -13.832031 -22.984375 -13.8125 C -23.585938 -11.53125 -24.515625 -9.953125 -25.765625 -9.078125 C -27.023438 -8.203125 -28.757812 -8.0625 -30.96875 -8.65625 C -33.976562 -9.457031 -36.519531 -10.925781 -38.59375 -13.0625 C -40.675781 -15.207031 -42.046875 -18.101562 -42.703125 -21.75 C -43.367188 -25.394531 -43.035156 -29.71875 -41.703125 -34.71875 C -40.960938 -37.5 -39.90625 -40.4375 -38.53125 -43.53125 C -37.34375 -46.113281 -36.46875 -48.460938 -35.90625 -50.578125 C -35.1875 -53.285156 -34.976562 -55.863281 -35.28125 -58.3125 C -32.539062 -57.488281 -30.6875 -56.242188 -29.71875 -54.578125 C -28.757812 -52.921875 -28.628906 -50.800781 -29.328125 -48.21875 C -29.679688 -46.851562 -30.144531 -45.519531 -30.71875 -44.21875 C -31.300781 -42.925781 -32.175781 -41.101562 -33.34375 -38.75 L 5.09375 -19.109375 L 2.65625 -9.96875 Z M -36.984375 -30.203125 "/></g></g></g><g fill="#e34625" fill-opacity="1"><g transform="translate(54.400196, 140.171691)"><g><path d="M 4.34375 -8.34375 C 2.96875 -5.40625 1.132812 -3.476562 -1.15625 -2.5625 C -3.445312 -1.644531 -6.222656 -1.945312 -9.484375 -3.46875 C -12.210938 -4.75 -14.972656 -6.691406 -17.765625 -9.296875 C -20.566406 -11.910156 -22.601562 -14.992188 -23.875 -18.546875 C -25.144531 -22.097656 -24.910156 -25.738281 -23.171875 -29.46875 C -21.128906 -33.832031 -18.203125 -35.125 -14.390625 -33.34375 C -12.171875 -32.300781 -10.421875 -30.707031 -9.140625 -28.5625 C -7.867188 -26.425781 -7.160156 -24.039062 -7.015625 -21.40625 C -6.867188 -18.78125 -7.269531 -16.238281 -8.21875 -13.78125 C -7.070312 -13.144531 -6.300781 -12.734375 -5.90625 -12.546875 C -3.945312 -11.640625 -2.460938 -11.359375 -1.453125 -11.703125 C -0.441406 -12.054688 0.410156 -12.988281 1.109375 -14.5 C 2.109375 -16.644531 2.472656 -18.710938 2.203125 -20.703125 C 1.929688 -22.691406 1.203125 -25.070312 0.015625 -27.84375 L 0.96875 -29.890625 C 6.257812 -22.046875 7.382812 -14.863281 4.34375 -8.34375 Z M -10.859375 -15.59375 C -10.242188 -17.09375 -10.101562 -18.734375 -10.4375 -20.515625 C -10.78125 -22.296875 -11.492188 -23.929688 -12.578125 -25.421875 C -13.660156 -26.910156 -15.019531 -28.039062 -16.65625 -28.8125 C -18.28125 -29.5625 -19.320312 -29.441406 -19.78125 -28.453125 C -20.457031 -27.023438 -19.863281 -25.039062 -18 -22.5 C -16.132812 -19.96875 -13.753906 -17.664062 -10.859375 -15.59375 Z M -10.859375 -15.59375 "/></g></g></g><g fill="#e34625" fill-opacity="1"><g transform="translate(62.052328, 121.923206)"><g><path d="M 14.015625 -19.09375 C 12.835938 -17.4375 11.113281 -16.59375 8.84375 -16.5625 C 6.570312 -16.539062 3.632812 -17.398438 0.03125 -19.140625 L 3.8125 -5.359375 L 1.0625 -1.5 L -3.46875 -21 L -10.078125 -24.390625 C -12.035156 -25.359375 -13.425781 -25.90625 -14.25 -26.03125 C -15.082031 -26.15625 -15.664062 -25.988281 -16 -25.53125 C -16.5 -24.8125 -16.570312 -23.65625 -16.21875 -22.0625 C -15.863281 -20.476562 -14.992188 -18.5625 -13.609375 -16.3125 C -12.222656 -14.0625 -10.351562 -11.644531 -8 -9.0625 L -9.59375 -6.8125 C -13.71875 -11.289062 -16.75 -15.765625 -18.6875 -20.234375 C -20.625 -24.703125 -20.425781 -28.582031 -18.09375 -31.875 C -16.726562 -33.800781 -15.097656 -34.75 -13.203125 -34.71875 C -11.316406 -34.695312 -9.453125 -34.164062 -7.609375 -33.125 L -3.1875 -30.71875 C -3.8125 -33.46875 -4.472656 -35.65625 -5.171875 -37.28125 C -5.878906 -38.90625 -6.691406 -40.097656 -7.609375 -40.859375 C -7.890625 -40.304688 -8.066406 -39.984375 -8.140625 -39.890625 C -8.773438 -38.984375 -9.507812 -38.53125 -10.34375 -38.53125 C -11.175781 -38.53125 -12.039062 -38.847656 -12.9375 -39.484375 C -13.820312 -40.109375 -14.234375 -40.921875 -14.171875 -41.921875 C -14.109375 -42.929688 -13.707031 -43.953125 -12.96875 -44.984375 C -12.3125 -45.910156 -11.300781 -46.296875 -9.9375 -46.140625 C -8.570312 -45.984375 -7.242188 -45.445312 -5.953125 -44.53125 C -4.390625 -43.414062 -3.191406 -41.757812 -2.359375 -39.5625 C -1.535156 -37.363281 -0.601562 -33.773438 0.4375 -28.796875 L 4.53125 -26.609375 C 6.394531 -25.609375 7.859375 -25.117188 8.921875 -25.140625 C 9.992188 -25.171875 10.867188 -25.664062 11.546875 -26.625 C 12.285156 -27.65625 12.535156 -28.925781 12.296875 -30.4375 C 12.054688 -31.957031 11.378906 -33.410156 10.265625 -34.796875 L 11.859375 -37.046875 C 14.648438 -33.117188 16.0625 -29.640625 16.09375 -26.609375 C 16.125 -23.585938 15.429688 -21.082031 14.015625 -19.09375 Z M 14.015625 -19.09375 "/></g></g></g><g fill="#e34625" fill-opacity="1"><g transform="translate(78.248939, 99.501039)"><g><path d="M 6.03125 -5.109375 C 4.195312 -3.398438 2.09375 -2.597656 -0.28125 -2.703125 C -2.664062 -2.804688 -5.101562 -4.1875 -7.59375 -6.84375 C -9.800781 -9.207031 -11.648438 -12.140625 -13.140625 -15.640625 C -14.640625 -19.140625 -15.300781 -22.664062 -15.125 -26.21875 C -14.945312 -29.78125 -13.5625 -32.773438 -10.96875 -35.203125 C -9.664062 -36.421875 -8.484375 -37.101562 -7.421875 -37.25 C -6.359375 -37.40625 -5.484375 -37.113281 -4.796875 -36.375 L -4.484375 -36.046875 L -6.34375 -39.09375 L 0.5625 -45.5625 L 12.390625 -26 C 12.710938 -25.40625 13.128906 -24.835938 13.640625 -24.296875 C 14.921875 -22.921875 16.21875 -22.84375 17.53125 -24.0625 C 18.425781 -24.90625 18.8125 -26.046875 18.6875 -27.484375 C 18.5625 -28.929688 18.066406 -30.507812 17.203125 -32.21875 L 19.21875 -34.109375 C 21.269531 -29.546875 22 -25.832031 21.40625 -22.96875 C 20.8125 -20.101562 19.632812 -17.847656 17.875 -16.203125 C 16.53125 -14.941406 15.097656 -14.304688 13.578125 -14.296875 C 12.066406 -14.285156 10.554688 -14.925781 9.046875 -16.21875 C 9.347656 -14.03125 9.3125 -12 8.9375 -10.125 C 8.5625 -8.25 7.59375 -6.578125 6.03125 -5.109375 Z M 4.78125 -12.6875 C 5.582031 -13.425781 6.023438 -14.539062 6.109375 -16.03125 C 6.191406 -17.519531 5.757812 -19.050781 4.8125 -20.625 L -3.03125 -33.625 C -3.425781 -34.039062 -3.96875 -34.300781 -4.65625 -34.40625 C -5.351562 -34.507812 -6.035156 -34.25 -6.703125 -33.625 C -7.984375 -32.425781 -8.4375 -30.597656 -8.0625 -28.140625 C -7.695312 -25.691406 -6.816406 -23.148438 -5.421875 -20.515625 C -4.035156 -17.878906 -2.597656 -15.765625 -1.109375 -14.171875 C 0.390625 -12.578125 1.578125 -11.773438 2.453125 -11.765625 C 3.335938 -11.753906 4.113281 -12.0625 4.78125 -12.6875 Z M 4.78125 -12.6875 "/></g></g></g><g fill="#e34625" fill-opacity="1"><g transform="translate(97.717144, 81.12921)"><g><path d="M 6.453125 -3.84375 C 4.703125 -2.675781 3 -2.023438 1.34375 -1.890625 C -0.300781 -1.753906 -1.773438 -2.03125 -3.078125 -2.71875 C -4.390625 -3.40625 -5.429688 -4.328125 -6.203125 -5.484375 C -7.003906 -6.691406 -7.421875 -7.929688 -7.453125 -9.203125 C -7.484375 -10.472656 -7.238281 -11.578125 -6.71875 -12.515625 C -7 -16.015625 -7.484375 -19.421875 -8.171875 -22.734375 C -8.859375 -26.046875 -9.734375 -29.53125 -10.796875 -33.1875 L -3.453125 -39.671875 C -0.148438 -35.128906 3.535156 -30.300781 7.609375 -25.1875 C 9.242188 -23.101562 10.390625 -21.570312 11.046875 -20.59375 C 11.609375 -19.757812 12 -19.019531 12.21875 -18.375 C 13.28125 -20.5 13.988281 -22.285156 14.34375 -23.734375 L 16.640625 -25.265625 C 16.097656 -21.015625 14.832031 -16.878906 12.84375 -12.859375 C 12.53125 -11.023438 11.773438 -9.320312 10.578125 -7.75 C 9.390625 -6.1875 8.015625 -4.882812 6.453125 -3.84375 Z M 1.8125 -6.984375 C 3.15625 -7.878906 4.015625 -9.03125 4.390625 -10.4375 C 4.773438 -11.851562 4.367188 -13.453125 3.171875 -15.234375 C 2.429688 -16.335938 1.296875 -17.800781 -0.234375 -19.625 C -3.367188 -23.53125 -5.460938 -26.15625 -6.515625 -27.5 C -5.472656 -24.039062 -4.648438 -19.609375 -4.046875 -14.203125 C -2.910156 -14.335938 -2.0625 -13.984375 -1.5 -13.140625 C -1.039062 -12.441406 -0.859375 -11.671875 -0.953125 -10.828125 C -1.046875 -9.984375 -1.4375 -9.328125 -2.125 -8.859375 C -2.882812 -8.347656 -3.539062 -8.253906 -4.09375 -8.578125 C -3.207031 -7.265625 -2.289062 -6.472656 -1.34375 -6.203125 C -0.40625 -5.941406 0.644531 -6.203125 1.8125 -6.984375 Z M 1.8125 -6.984375 "/></g></g></g><g fill="#e34625" fill-opacity="1"><g transform="translate(112.41997, 69.887974)"><g/></g></g><g fill="#e34625" fill-opacity="1"><g transform="translate(121.556544, 64.087038)"><g><path d="M 15.140625 -4.078125 C 10.460938 -2.472656 6.617188 -2.472656 3.609375 -4.078125 C 0.609375 -5.691406 -1.828125 -9.238281 -3.703125 -14.71875 C -5.191406 -19.0625 -6.054688 -23.992188 -6.296875 -29.515625 C -6.546875 -35.035156 -5.65625 -40.144531 -3.625 -44.84375 C -1.601562 -49.539062 1.914062 -52.75 6.9375 -54.46875 C 10.050781 -55.53125 12.789062 -55.707031 15.15625 -55 C 17.53125 -54.289062 19.203125 -52.523438 20.171875 -49.703125 C 20.785156 -47.921875 20.910156 -46.394531 20.546875 -45.125 C 20.191406 -43.863281 19.269531 -42.976562 17.78125 -42.46875 C 16.289062 -41.957031 14.921875 -42.09375 13.671875 -42.875 C 14.296875 -43.507812 14.703125 -44.484375 14.890625 -45.796875 C 15.085938 -47.117188 14.984375 -48.382812 14.578125 -49.59375 C 14.191406 -50.695312 13.578125 -51.503906 12.734375 -52.015625 C 11.898438 -52.523438 10.816406 -52.550781 9.484375 -52.09375 C 7.285156 -51.34375 5.707031 -49.125 4.75 -45.4375 C 3.789062 -41.75 3.476562 -37.410156 3.8125 -32.421875 C 4.144531 -27.441406 5.035156 -22.84375 6.484375 -18.625 C 7.554688 -15.46875 8.914062 -13.242188 10.5625 -11.953125 C 12.207031 -10.671875 14.441406 -10.507812 17.265625 -11.46875 C 19.710938 -12.3125 21.785156 -13.625 23.484375 -15.40625 C 25.191406 -17.1875 26.457031 -19.328125 27.28125 -21.828125 L 28.921875 -21.6875 C 28.765625 -18.726562 27.96875 -16.03125 26.53125 -13.59375 C 25.101562 -11.164062 23.367188 -9.148438 21.328125 -7.546875 C 19.285156 -5.941406 17.222656 -4.785156 15.140625 -4.078125 Z M 15.140625 -4.078125 "/></g></g></g><g fill="#e34625" fill-opacity="1"><g transform="translate(147.759575, 54.434629)"><g><path d="M 9.546875 -0.921875 C 6.335938 -0.523438 3.691406 -1.035156 1.609375 -2.453125 C -0.472656 -3.878906 -1.738281 -6.375 -2.1875 -9.9375 C -2.550781 -12.894531 -2.347656 -16.25 -1.578125 -20 C -0.804688 -23.757812 0.757812 -27.125 3.125 -30.09375 C 5.488281 -33.0625 8.710938 -34.800781 12.796875 -35.3125 C 18.359375 -36.007812 21.570312 -32.882812 22.4375 -25.9375 L 22.453125 -25.875 C 22.585938 -25.851562 22.832031 -25.863281 23.1875 -25.90625 C 24.613281 -26.082031 26.210938 -26.664062 27.984375 -27.65625 C 29.765625 -28.644531 31.347656 -29.78125 32.734375 -31.0625 L 33.546875 -29.390625 C 32.453125 -27.878906 30.953125 -26.523438 29.046875 -25.328125 C 27.148438 -24.140625 25.03125 -23.203125 22.6875 -22.515625 C 22.832031 -18.515625 22.367188 -14.945312 21.296875 -11.8125 C 20.234375 -8.675781 18.671875 -6.160156 16.609375 -4.265625 C 14.554688 -2.367188 12.203125 -1.253906 9.546875 -0.921875 Z M 11.4375 -7.125 C 12.46875 -7.257812 13.429688 -7.988281 14.328125 -9.3125 C 15.222656 -10.632812 15.929688 -12.378906 16.453125 -14.546875 C 16.972656 -16.710938 17.253906 -19.078125 17.296875 -21.640625 C 16.085938 -21.753906 15.382812 -22.597656 15.1875 -24.171875 C 14.96875 -25.953125 15.492188 -27.207031 16.765625 -27.9375 C 16.503906 -29.363281 16.164062 -30.328125 15.75 -30.828125 C 15.332031 -31.328125 14.679688 -31.519531 13.796875 -31.40625 C 12.367188 -31.226562 11.113281 -30.007812 10.03125 -27.75 C 8.945312 -25.5 8.175781 -22.863281 7.71875 -19.84375 C 7.257812 -16.832031 7.171875 -14.222656 7.453125 -12.015625 C 7.710938 -9.921875 8.125 -8.539062 8.6875 -7.875 C 9.25 -7.21875 10.164062 -6.96875 11.4375 -7.125 Z M 11.4375 -7.125 "/></g></g></g><g fill="#e34625" fill-opacity="1"><g transform="translate(174.813506, 50.676845)"><g><path d="M 7.84375 0.984375 C 5.34375 0.796875 3.328125 -0.207031 1.796875 -2.03125 C 0.265625 -3.863281 -0.363281 -6.59375 -0.09375 -10.21875 C 0.15625 -13.445312 1.0625 -16.789062 2.625 -20.25 C 4.1875 -23.71875 6.335938 -26.59375 9.078125 -28.875 C 11.828125 -31.15625 14.972656 -32.160156 18.515625 -31.890625 C 20.304688 -31.753906 21.613281 -31.34375 22.4375 -30.65625 C 23.257812 -29.976562 23.632812 -29.132812 23.5625 -28.125 L 23.53125 -27.875 L 27.890625 -42.71875 L 37.703125 -43.296875 L 27.46875 -8.453125 C 27.238281 -7.816406 27.097656 -7.125 27.046875 -6.375 C 26.972656 -5.507812 27.128906 -4.875 27.515625 -4.46875 C 27.910156 -4.070312 28.59375 -3.835938 29.5625 -3.765625 C 30.78125 -3.671875 31.875 -4.113281 32.84375 -5.09375 C 33.820312 -6.070312 34.644531 -7.414062 35.3125 -9.125 L 38.046875 -8.90625 C 34.796875 -1.289062 30.113281 2.285156 24 1.828125 C 22.195312 1.691406 20.773438 1.097656 19.734375 0.046875 C 18.703125 -0.992188 18.117188 -2.445312 17.984375 -4.3125 C 16.722656 -2.644531 15.25 -1.300781 13.5625 -0.28125 C 11.882812 0.726562 9.976562 1.148438 7.84375 0.984375 Z M 12.578125 -5.046875 C 13.617188 -4.960938 14.710938 -5.359375 15.859375 -6.234375 C 17.003906 -7.117188 17.835938 -8.398438 18.359375 -10.078125 L 18.390625 -10.40625 L 22.734375 -25.15625 C 22.460938 -26.726562 21.628906 -27.566406 20.234375 -27.671875 C 18.484375 -27.804688 16.828125 -26.910156 15.265625 -24.984375 C 13.710938 -23.054688 12.4375 -20.6875 11.4375 -17.875 C 10.4375 -15.070312 9.851562 -12.582031 9.6875 -10.40625 C 9.519531 -8.226562 9.726562 -6.804688 10.3125 -6.140625 C 10.90625 -5.484375 11.660156 -5.117188 12.578125 -5.046875 Z M 12.578125 -5.046875 "/></g></g></g><g fill="#e34625" fill-opacity="1"><g transform="translate(202.594173, 52.874613)"><g><path d="M 18.609375 -33.1875 C 17.203125 -33.5 16.113281 -34.253906 15.34375 -35.453125 C 14.570312 -36.648438 14.34375 -37.957031 14.65625 -39.375 C 14.96875 -40.78125 15.726562 -41.878906 16.9375 -42.671875 C 18.15625 -43.460938 19.46875 -43.703125 20.875 -43.390625 C 22.28125 -43.078125 23.375 -42.300781 24.15625 -41.0625 C 24.9375 -39.832031 25.171875 -38.515625 24.859375 -37.109375 C 24.546875 -35.691406 23.773438 -34.601562 22.546875 -33.84375 C 21.328125 -33.09375 20.015625 -32.875 18.609375 -33.1875 Z M 6.265625 1.78125 C 4.222656 1.332031 2.707031 0.328125 1.71875 -1.234375 C 0.738281 -2.796875 0.535156 -4.863281 1.109375 -7.4375 C 1.347656 -8.5 1.828125 -9.847656 2.546875 -11.484375 L 11.484375 -31.125 L 20.734375 -29.078125 L 11.265625 -8.265625 C 10.941406 -7.660156 10.703125 -6.992188 10.546875 -6.265625 C 10.347656 -5.410156 10.410156 -4.757812 10.734375 -4.3125 C 11.066406 -3.863281 11.707031 -3.535156 12.65625 -3.328125 C 13.894531 -3.046875 15.164062 -3.3125 16.46875 -4.125 C 17.769531 -4.9375 18.835938 -6.125 19.671875 -7.6875 L 22.375 -7.078125 C 19.769531 -2.816406 17.039062 -0.140625 14.1875 0.953125 C 11.34375 2.046875 8.703125 2.320312 6.265625 1.78125 Z M 6.265625 1.78125 "/></g></g></g><g fill="#e34625" fill-opacity="1"><g transform="translate(213.063038, 54.21091)"><g><path d="M 22.09375 8.640625 C 19.59375 7.703125 18.003906 6.351562 17.328125 4.59375 C 16.660156 2.832031 16.691406 0.960938 17.421875 -1.015625 C 17.742188 -1.867188 18.207031 -2.800781 18.8125 -3.8125 C 19.425781 -4.832031 20.035156 -5.8125 20.640625 -6.75 C 21.253906 -7.695312 21.65625 -8.296875 21.84375 -8.546875 C 22.707031 -9.878906 23.546875 -11.1875 24.359375 -12.46875 C 25.171875 -13.757812 25.738281 -14.832031 26.0625 -15.6875 C 26.832031 -17.78125 26.472656 -19.101562 24.984375 -19.65625 C 23.921875 -20.050781 22.785156 -19.878906 21.578125 -19.140625 C 20.378906 -18.398438 19.210938 -17.28125 18.078125 -15.78125 L 6.53125 2.4375 L -2.34375 -0.875 L 15.65625 -29.25 L 24.53125 -25.953125 L 22.671875 -22.984375 C 25.578125 -24.515625 28.40625 -24.769531 31.15625 -23.75 C 33.238281 -22.96875 34.679688 -21.769531 35.484375 -20.15625 C 36.296875 -18.550781 36.265625 -16.582031 35.390625 -14.25 C 34.953125 -13.050781 34.316406 -11.773438 33.484375 -10.421875 C 32.648438 -9.078125 31.578125 -7.457031 30.265625 -5.5625 C 29.472656 -4.40625 28.710938 -3.269531 27.984375 -2.15625 C 27.265625 -1.050781 26.773438 -0.15625 26.515625 0.53125 C 26.210938 1.363281 26.160156 2.070312 26.359375 2.65625 C 26.566406 3.25 27.125 3.710938 28.03125 4.046875 C 29.257812 4.503906 30.40625 4.425781 31.46875 3.8125 C 32.539062 3.207031 33.789062 2.125 35.21875 0.5625 L 37.796875 1.515625 C 34.597656 5.472656 31.710938 7.847656 29.140625 8.640625 C 26.578125 9.429688 24.226562 9.429688 22.09375 8.640625 Z M 22.09375 8.640625 "/></g></g></g><g fill="#e34625" fill-opacity="1"><g transform="translate(236.963787, 62.659885)"><g><path d="M 1.3125 20.09375 C -0.476562 18.988281 -1.679688 17.601562 -2.296875 15.9375 C -2.921875 14.269531 -2.695312 12.5625 -1.625 10.8125 C -0.3125 8.675781 1.59375 7.492188 4.09375 7.265625 C 6.59375 7.035156 9.4375 7.300781 12.625 8.0625 L 15.140625 5.515625 C 11.960938 6.390625 9.085938 6.035156 6.515625 4.453125 C 4.390625 3.148438 3.0625 1.335938 2.53125 -0.984375 C 2.007812 -3.316406 2.695312 -6.035156 4.59375 -9.140625 C 6.289062 -11.890625 8.625 -14.445312 11.59375 -16.8125 C 14.570312 -19.175781 17.800781 -20.742188 21.28125 -21.515625 C 24.757812 -22.296875 28.015625 -21.753906 31.046875 -19.890625 C 32.578125 -18.953125 33.554688 -17.988281 33.984375 -17 C 34.410156 -16.019531 34.359375 -15.097656 33.828125 -14.234375 L 33.625 -13.90625 L 36.03125 -16.453125 L 44.078125 -11.5 L 22.578125 11.09375 C 24.742188 11.59375 26.734375 11.578125 28.546875 11.046875 C 30.359375 10.523438 32.359375 9.316406 34.546875 7.421875 L 36.90625 8.859375 C 33.851562 11.566406 30.988281 13.164062 28.3125 13.65625 C 25.644531 14.15625 23.054688 14.019531 20.546875 13.25 L 17.25 16.765625 C 14.269531 19.929688 11.441406 21.628906 8.765625 21.859375 C 6.097656 22.097656 3.613281 21.507812 1.3125 20.09375 Z M 13.5 1.265625 C 14.363281 1.796875 15.484375 1.941406 16.859375 1.703125 C 18.234375 1.472656 19.5 0.789062 20.65625 -0.34375 L 31.65625 -11.859375 C 31.9375 -12.316406 32.035156 -12.890625 31.953125 -13.578125 C 31.867188 -14.273438 31.4375 -14.863281 30.65625 -15.34375 C 29.164062 -16.257812 27.285156 -16.21875 25.015625 -15.21875 C 22.753906 -14.21875 20.535156 -12.703125 18.359375 -10.671875 C 16.179688 -8.640625 14.519531 -6.691406 13.375 -4.828125 C 12.226562 -2.960938 11.765625 -1.597656 11.984375 -0.734375 C 12.210938 0.117188 12.71875 0.785156 13.5 1.265625 Z M 2.703125 14.9375 C 3.335938 15.320312 4.21875 15.269531 5.34375 14.78125 C 6.476562 14.289062 7.703125 13.34375 9.015625 11.9375 L 10.34375 10.515625 C 5.863281 9.617188 3.0625 10.082031 1.9375 11.90625 C 1.632812 12.382812 1.535156 12.914062 1.640625 13.5 C 1.753906 14.09375 2.109375 14.570312 2.703125 14.9375 Z M 2.703125 14.9375 "/></g></g></g><g fill="#e34625" fill-opacity="1"><g transform="translate(260.538844, 78.128117)"><g/></g></g><g fill="#e34625" fill-opacity="1"><g transform="translate(269.418908, 84.314496)"><g><path d="M 9.609375 12.390625 C 6.316406 8.679688 4.832031 5.128906 5.15625 1.734375 C 5.476562 -1.648438 7.804688 -5.265625 12.140625 -9.109375 C 15.578125 -12.148438 19.796875 -14.847656 24.796875 -17.203125 C 29.796875 -19.566406 34.851562 -20.722656 39.96875 -20.671875 C 45.082031 -20.617188 49.398438 -18.609375 52.921875 -14.640625 C 55.097656 -12.179688 56.316406 -9.71875 56.578125 -7.25 C 56.835938 -4.789062 55.851562 -2.570312 53.625 -0.59375 C 52.21875 0.65625 50.863281 1.359375 49.5625 1.515625 C 48.257812 1.679688 47.085938 1.175781 46.046875 0 C 44.992188 -1.175781 44.585938 -2.492188 44.828125 -3.953125 C 45.660156 -3.617188 46.722656 -3.613281 48.015625 -3.9375 C 49.304688 -4.269531 50.425781 -4.859375 51.375 -5.703125 C 52.25 -6.484375 52.753906 -7.359375 52.890625 -8.328125 C 53.035156 -9.304688 52.640625 -10.320312 51.703125 -11.375 C 50.160156 -13.113281 47.503906 -13.710938 43.734375 -13.171875 C 39.972656 -12.628906 35.851562 -11.238281 31.375 -9 C 26.90625 -6.769531 23.003906 -4.171875 19.671875 -1.203125 C 17.171875 1.003906 15.644531 3.113281 15.09375 5.125 C 14.550781 7.144531 15.269531 9.265625 17.25 11.484375 C 18.957031 13.421875 20.960938 14.832031 23.265625 15.71875 C 25.578125 16.613281 28.046875 16.945312 30.671875 16.71875 L 31.1875 18.28125 C 28.394531 19.300781 25.597656 19.617188 22.796875 19.234375 C 19.992188 18.859375 17.457031 18.03125 15.1875 16.75 C 12.925781 15.476562 11.066406 14.023438 9.609375 12.390625 Z M 9.609375 12.390625 "/></g></g></g><g fill="#e34625" fill-opacity="1"><g transform="translate(289.320969, 104.744312)"><g><path d="M 3.234375 5.65625 C 2.085938 3.90625 1.707031 2.128906 2.09375 0.328125 C 2.476562 -1.472656 3.773438 -3.097656 5.984375 -4.546875 C 6.898438 -5.140625 8.1875 -5.769531 9.84375 -6.4375 L 41.25 -18.578125 L 47.671875 -11.15625 L 13.828125 1.953125 C 13.179688 2.160156 12.546875 2.46875 11.921875 2.875 C 11.191406 3.351562 10.785156 3.867188 10.703125 4.421875 C 10.617188 4.972656 10.84375 5.648438 11.375 6.453125 C 12.070312 7.515625 13.171875 8.210938 14.671875 8.546875 C 16.171875 8.878906 17.765625 8.78125 19.453125 8.25 L 20.96875 10.5625 C 16.113281 11.78125 12.285156 11.789062 9.484375 10.59375 C 6.679688 9.394531 4.597656 7.75 3.234375 5.65625 Z M 3.234375 5.65625 "/></g></g></g><g fill="#e34625" fill-opacity="1"><g transform="translate(295.632827, 113.2397)"><g><path d="M 2.40625 6.046875 C 1.519531 4.148438 1.390625 2.332031 2.015625 0.59375 C 2.648438 -1.132812 4.160156 -2.5625 6.546875 -3.6875 C 7.535156 -4.15625 8.898438 -4.597656 10.640625 -5.015625 L 31.640625 -9.984375 L 35.6875 -1.421875 L 13.4375 3.84375 C 12.789062 4 12.207031 4.195312 11.6875 4.4375 C 10.0625 5.207031 9.53125 6.191406 10.09375 7.390625 C 10.613281 8.492188 11.523438 9.21875 12.828125 9.5625 C 14.140625 9.914062 15.71875 9.953125 17.5625 9.671875 L 38.5625 4.6875 L 42.609375 13.25 L 20.359375 18.515625 C 19.691406 18.640625 19.019531 18.859375 18.34375 19.171875 C 17.550781 19.546875 17.070312 20 16.90625 20.53125 C 16.75 21.070312 16.878906 21.785156 17.296875 22.671875 C 17.816406 23.773438 18.742188 24.503906 20.078125 24.859375 C 21.421875 25.222656 23 25.273438 24.8125 25.015625 L 25.984375 27.5 C 21.003906 28.050781 17.242188 27.609375 14.703125 26.171875 C 12.160156 24.734375 10.375 22.925781 9.34375 20.75 C 8.539062 19.039062 8.375 17.453125 8.84375 15.984375 C 9.320312 14.523438 10.441406 13.257812 12.203125 12.1875 C 9.390625 11.863281 7.238281 11.144531 5.75 10.03125 C 4.257812 8.925781 3.144531 7.597656 2.40625 6.046875 Z M 2.40625 6.046875 "/></g></g></g><g fill="#e34625" fill-opacity="1"><g transform="translate(306.081801, 137.730754)"><g><path d="M 1.8125 8.5625 C 1.0625 5.664062 1.203125 3.273438 2.234375 1.390625 C 3.265625 -0.492188 5.070312 -1.769531 7.65625 -2.4375 C 8.925781 -2.769531 10.171875 -2.9375 11.390625 -2.9375 L 45.046875 -4.359375 L 48.734375 4.734375 L 33.640625 5.359375 C 34.660156 6.367188 35.382812 7.222656 35.8125 7.921875 C 36.25 8.628906 36.566406 9.363281 36.765625 10.125 C 38.054688 15.132812 35.078125 18.578125 27.828125 20.453125 C 24.890625 21.203125 21.609375 21.441406 17.984375 21.171875 C 14.367188 20.910156 11.035156 19.78125 7.984375 17.78125 C 4.941406 15.789062 2.882812 12.71875 1.8125 8.5625 Z M 8.90625 10.53125 C 9.25 11.851562 10.382812 12.875 12.3125 13.59375 C 14.238281 14.3125 16.507812 14.691406 19.125 14.734375 C 21.738281 14.785156 24.171875 14.519531 26.421875 13.9375 C 28.117188 13.5 29.484375 12.832031 30.515625 11.9375 C 31.546875 11.050781 31.921875 10.070312 31.640625 9 C 31.472656 8.363281 31.195312 7.675781 30.8125 6.9375 C 30.425781 6.207031 30.003906 5.738281 29.546875 5.53125 L 12.46875 6.21875 C 11.925781 6.21875 11.421875 6.28125 10.953125 6.40625 C 9.003906 6.90625 8.320312 8.28125 8.90625 10.53125 Z M 8.90625 10.53125 "/></g></g></g></svg>