<svg xmlns="http://www.w3.org/2000/svg" xmlns:xlink="http://www.w3.org/1999/xlink" width="500" zoomAndPan="magnify" viewBox="0 0 375 374.999991" height="500" preserveAspectRatio="xMidYMid meet" version="1.0"><defs><g/><clipPath id="51ce382778"><path d="M 97.429688 107.402344 L 277.429688 107.402344 L 277.429688 324.902344 L 97.429688 324.902344 Z M 97.429688 107.402344 " clip-rule="nonzero"/></clipPath></defs><rect x="-37.5" width="450" fill="#ffffff" y="-37.499999" height="449.999989" fill-opacity="1"/><rect x="-37.5" width="450" fill="#fffaef" y="-37.499999" height="449.999989" fill-opacity="1"/><g clip-path="url(#51ce382778)"><path fill="#e34625" d="M 271.96875 149.519531 C 268.898438 147.21875 268.46875 147.425781 263.699219 149.695312 C 261.292969 150.839844 257.644531 152.578125 251.683594 154.84375 C 247.230469 156.535156 240.226562 157.296875 232.390625 157.515625 C 230.953125 151.25 222.089844 113.023438 218.792969 110.1875 C 216.960938 108.609375 213.800781 107.742188 210.171875 107.589844 C 206.605469 107.4375 202.535156 107.96875 198.824219 109.175781 C 187.5 111.246094 176.414062 109.253906 176.179688 109.175781 C 172.472656 107.964844 168.398438 107.4375 164.828125 107.585938 C 161.203125 107.742188 158.042969 108.605469 156.210938 110.1875 C 152.914062 113.023438 144.046875 151.25 142.613281 157.515625 C 134.777344 157.296875 127.773438 156.53125 123.320312 154.84375 C 117.359375 152.578125 113.707031 150.839844 111.304688 149.695312 C 106.535156 147.425781 106.101562 147.21875 103.035156 149.519531 C 100.484375 151.433594 97.429688 161.40625 97.429688 172.335938 C 97.429688 179.875 98.828125 187.953125 102.757812 194.269531 C 105.519531 198.707031 112.171875 202.484375 120.6875 205.519531 C 130.257812 208.929688 142.246094 211.441406 153.636719 212.902344 C 152.398438 215.292969 150.355469 219.800781 151.730469 221.203125 C 152.105469 221.585938 152.8125 222.007812 153.65625 222.421875 C 154.058594 223.371094 155.1875 226.191406 155.992188 229.722656 C 153.523438 230.882812 146.046875 234.84375 141.277344 242.171875 C 136.273438 249.863281 137.285156 257.152344 137.699219 259.15625 C 136.742188 261.046875 136.015625 262.902344 135.503906 264.726562 C 132.800781 274.34375 135.988281 282.945312 142.363281 290.453125 C 148.585938 297.773438 157.855469 304.035156 167.582031 309.144531 C 182.382812 316.917969 198.265625 322.054688 205.90625 324.199219 L 207.789062 324.730469 L 207.636719 322.785156 C 206.457031 307.5 214.449219 301.355469 222.535156 295.140625 C 231.058594 288.589844 239.679688 281.960938 239.132812 265.507812 C 238.945312 259.882812 237.609375 252.425781 234.769531 248.710938 C 234.417969 246.15625 231.957031 232.714844 219.128906 229.214844 C 219.921875 225.925781 220.960938 223.324219 221.34375 222.421875 C 222.191406 222.007812 222.894531 221.585938 223.269531 221.203125 C 224.648438 219.800781 222.605469 215.292969 221.367188 212.902344 C 232.757812 211.441406 244.742188 208.929688 254.3125 205.519531 C 262.828125 202.484375 269.484375 198.707031 272.242188 194.269531 C 276.171875 187.953125 277.574219 179.875 277.574219 172.335938 C 277.574219 161.402344 274.519531 151.433594 271.96875 149.519531 Z M 164.917969 109.789062 C 168.238281 109.648438 172.03125 110.144531 175.496094 111.277344 C 178.617188 112.292969 196.386719 112.292969 199.507812 111.277344 C 202.972656 110.144531 206.769531 109.648438 210.085938 109.789062 C 213.234375 109.921875 215.902344 110.613281 217.351562 111.863281 C 217.683594 112.148438 218.105469 112.941406 218.585938 114.121094 C 217.023438 112.890625 214.335938 112.203125 211.191406 112.0625 C 207.707031 111.910156 203.726562 112.449219 200.09375 113.671875 C 196.820312 114.773438 178.183594 114.773438 174.910156 113.671875 C 171.277344 112.449219 167.296875 111.910156 163.8125 112.0625 C 160.667969 112.199219 157.980469 112.886719 156.421875 114.121094 C 156.898438 112.945312 157.320312 112.148438 157.652344 111.863281 C 159.101562 110.613281 161.769531 109.921875 164.917969 109.789062 Z M 145.59375 154.414062 C 157.574219 151.242188 171.984375 149.386719 187.5 149.386719 C 203.015625 149.386719 217.429688 151.242188 229.410156 154.414062 C 229.714844 155.726562 229.964844 156.804688 230.136719 157.566406 C 213.996094 157.804688 161.003906 157.804688 144.863281 157.566406 C 145.039062 156.804688 145.285156 155.726562 145.589844 154.414062 Z M 176.976562 237.242188 L 178.503906 243.769531 C 177.722656 243.648438 176.925781 243.449219 176.132812 243.183594 L 174.527344 237.253906 L 176.972656 237.242188 Z M 174.617188 235.992188 L 174.964844 232.480469 L 175.03125 232.4375 L 176.269531 231.601562 L 177.472656 232.488281 C 177.40625 233.351562 177.316406 234.371094 177.242188 235.214844 L 177.175781 235.992188 Z M 182.097656 237.515625 L 182.582031 243.984375 C 181.363281 243.964844 180.335938 243.933594 179.667969 243.890625 L 178.175781 237.523438 C 179.480469 237.523438 180.789062 237.535156 182.097656 237.515625 Z M 178.246094 236.421875 C 178.273438 236.128906 178.304688 235.742188 178.34375 235.3125 C 178.417969 234.472656 178.503906 233.457031 178.574219 232.554688 L 180.222656 231.53125 L 182.164062 232.429688 L 182.171875 232.4375 L 182.171875 236.414062 C 181.332031 236.429688 179.769531 236.425781 178.707031 236.421875 Z M 174.859375 242.703125 C 174.246094 242.441406 173.644531 242.148438 173.0625 241.828125 L 171.75 236.964844 C 172.257812 236.988281 172.773438 237.015625 173.328125 237.039062 Z M 173.511719 235.941406 C 173.121094 235.953125 172.550781 235.960938 172.058594 235.964844 L 171.566406 235.933594 L 171.984375 232.410156 L 173.1875 231.753906 L 173.878906 232.265625 L 173.515625 235.941406 Z M 171.695312 240.996094 C 171.085938 240.589844 170.519531 240.164062 170 239.722656 C 169.820312 238.957031 169.617188 237.957031 169.488281 236.882812 C 169.875 236.890625 170.238281 236.902344 170.59375 236.914062 Z M 170.464844 235.863281 L 169.394531 235.792969 C 169.371094 235.4375 169.363281 235.082031 169.367188 234.726562 C 169.386719 233.214844 169.785156 232.382812 170.191406 231.921875 L 170.878906 232.351562 Z M 170.515625 242.863281 C 173.113281 244.582031 176.3125 245.859375 179.257812 246.078125 C 183.046875 246.363281 185.976562 246.265625 187.5 246.167969 C 189.027344 246.265625 191.957031 246.363281 195.746094 246.078125 C 198.691406 245.859375 201.890625 244.585938 204.488281 242.863281 C 207.195312 241.066406 209.296875 238.742188 209.871094 236.546875 C 210.027344 235.9375 210.15625 235.417969 210.265625 234.964844 C 210.765625 232.90625 210.871094 232.488281 212.398438 231.46875 C 214.496094 230.070312 215.386719 226.238281 215.671875 224.664062 C 216.320312 224.449219 217.375 224.082031 218.507812 223.644531 C 217.691406 225.910156 216.585938 229.492188 216.128906 233.351562 C 216.078125 233.816406 216.003906 234.46875 215.933594 235.089844 C 215.417969 239.703125 215.214844 241.511719 212.375 243.285156 C 210.621094 244.378906 208.644531 245.734375 206.890625 247.097656 C 206.96875 245.625 207.324219 244.125 207.800781 242.84375 C 205.433594 244.777344 204.601562 245.992188 204.933594 248.710938 C 203.8125 249.699219 202.902344 250.644531 202.371094 251.457031 C 202.199219 251.71875 202.039062 252.011719 201.867188 252.320312 C 200.734375 254.371094 199 257.5 187.628906 257.105469 L 187.628906 257.09375 C 187.628906 257.09375 187.5 257.097656 187.5 257.097656 L 187.375 257.09375 L 187.375 257.105469 C 176 257.5 174.269531 254.371094 173.132812 252.320312 C 172.964844 252.011719 172.804688 251.71875 172.628906 251.457031 C 172.101562 250.644531 171.191406 249.699219 170.070312 248.710938 C 170.398438 245.992188 169.570312 244.78125 167.199219 242.84375 C 167.675781 244.125 168.035156 245.628906 168.109375 247.097656 C 166.359375 245.734375 164.382812 244.378906 162.628906 243.285156 C 159.789062 241.511719 159.585938 239.703125 159.070312 235.089844 C 159 234.46875 158.925781 233.816406 158.871094 233.351562 C 158.414062 229.492188 157.3125 225.910156 156.496094 223.644531 C 157.628906 224.082031 158.683594 224.449219 159.328125 224.664062 C 159.613281 226.238281 160.507812 230.070312 162.605469 231.46875 C 164.132812 232.488281 164.234375 232.90625 164.738281 234.964844 C 164.847656 235.417969 164.972656 235.9375 165.132812 236.546875 C 165.707031 238.742188 167.808594 241.066406 170.515625 242.863281 Z M 187.027344 237.652344 L 187.039062 237.652344 C 187.042969 239.074219 186.992188 242.460938 186.96875 244.027344 C 185.835938 244.023438 184.71875 244.015625 183.6875 244.003906 L 183.214844 237.652344 L 187.03125 237.652344 Z M 183.277344 236.546875 L 183.277344 232.1875 L 185.261719 231.046875 L 187.261719 232.105469 L 187.265625 232.191406 L 187.078125 236.546875 Z M 188.320312 237.652344 L 192.195312 237.652344 L 191.722656 243.996094 C 190.59375 244.015625 189.34375 244.023438 188.074219 244.027344 C 188.097656 242.460938 188.148438 239.105469 188.144531 237.652344 Z M 188.296875 236.546875 L 188.308594 232.714844 L 188.347656 231.785156 L 189.742188 231.046875 L 192.082031 232.394531 L 192.1875 232.457031 L 192.1875 236.546875 Z M 193.3125 237.515625 C 194.566406 237.535156 195.820312 237.523438 197.078125 237.523438 L 195.589844 243.878906 L 195.582031 243.878906 C 194.996094 243.921875 194.023438 243.957031 192.832031 243.980469 L 193.3125 237.519531 Z M 193.257812 236.414062 L 193.257812 232.238281 L 194.777344 231.53125 L 196.503906 232.601562 L 196.757812 232.757812 C 196.820312 233.605469 196.898438 234.535156 196.964844 235.3125 C 197 235.746094 197.03125 236.128906 197.054688 236.421875 L 196.613281 236.421875 C 195.582031 236.425781 194.070312 236.429688 193.257812 236.414062 Z M 198.273438 237.242188 L 200.710938 237.253906 L 199.128906 243.09375 C 198.339844 243.375 197.539062 243.589844 196.757812 243.726562 Z M 197.792969 232.296875 L 198.734375 231.601562 L 199.972656 232.4375 L 200.246094 232.621094 L 200.570312 235.996094 L 198.09375 235.996094 L 198.027344 235.214844 C 197.953125 234.308594 197.859375 233.199219 197.792969 232.296875 Z M 204.410156 236.917969 C 204.765625 236.90625 205.128906 236.890625 205.511719 236.882812 C 205.386719 237.960938 205.183594 238.957031 205 239.722656 C 204.484375 240.164062 203.914062 240.59375 203.308594 240.996094 Z M 204.183594 232.316406 L 204.808594 231.921875 C 205.214844 232.382812 205.617188 233.214844 205.636719 234.726562 C 205.640625 235.082031 205.628906 235.441406 205.609375 235.796875 L 204.589844 235.863281 Z M 203.046875 235.964844 C 202.566406 235.960938 202.019531 235.957031 201.636719 235.941406 L 201.273438 232.15625 L 201.816406 231.757812 L 203.125 232.46875 L 203.519531 235.933594 Z M 201.914062 237.035156 C 202.378906 237.015625 202.816406 236.992188 203.25 236.972656 L 201.941406 241.828125 C 201.441406 242.101562 200.929688 242.359375 200.410156 242.589844 L 201.914062 237.039062 Z M 231.40625 245.957031 C 235.878906 262.019531 209.566406 270.410156 198.550781 273.519531 C 211.464844 272.03125 229.996094 267.535156 234.402344 253.761719 C 235.300781 256.148438 236.21875 259.921875 236.40625 265.597656 C 236.910156 280.65625 228.839844 286.855469 220.867188 292.988281 C 212.535156 299.390625 204.300781 305.722656 204.804688 321.050781 C 196.75 318.683594 182.335938 313.816406 168.851562 306.734375 C 159.859375 302.011719 149.472656 294.179688 143.527344 287.59375 C 155.527344 296.242188 175.546875 300.339844 189.898438 300.507812 C 174.550781 297.867188 131.890625 287.675781 138.128906 265.46875 C 138.25 265.039062 138.382812 264.605469 138.53125 264.171875 C 147.535156 279.429688 162.652344 281.621094 179.6875 280.957031 C 166.574219 280.789062 141.136719 272.261719 140.078125 256.464844 C 139.886719 253.648438 140.222656 248.796875 143.5625 243.664062 C 147.621094 237.421875 153.828125 233.835938 156.523438 232.492188 C 156.578125 232.863281 156.632812 233.238281 156.675781 233.613281 C 156.765625 234.378906 156.824219 234.875 156.875 235.335938 C 157.148438 237.765625 157.34375 239.523438 157.824219 240.941406 C 157.824219 240.941406 148.824219 249.519531 163.179688 259.34375 C 189.175781 277.132812 232.378906 252.039062 216.628906 242.1875 C 217.539062 240.566406 217.769531 238.527344 218.125 235.335938 C 218.175781 234.875 218.234375 234.378906 218.324219 233.613281 C 218.394531 233.03125 218.476562 232.457031 218.574219 231.890625 C 226.925781 234.25 230.183594 241.5625 231.40625 245.960938 Z M 221.699219 219.660156 C 220.582031 220.792969 214.375 222.777344 214.355469 222.785156 L 213.691406 222.996094 L 213.691406 223 C 213.691406 223 210.691406 223.367188 210.691406 223.367188 C 210.691406 223.367188 205.371094 223.699219 204.640625 227.015625 C 204.265625 228.710938 204.082031 229.8125 203.992188 230.480469 L 203.5 230.792969 L 202.144531 230.054688 L 201.679688 229.800781 L 201.253906 230.117188 L 200.410156 230.738281 L 199.171875 229.90625 L 198.6875 229.582031 L 198.222656 229.925781 L 196.898438 230.902344 L 195.273438 229.890625 L 194.890625 229.65625 L 194.488281 229.84375 L 192.53125 230.75 L 189.769531 229.164062 L 189.367188 229.375 L 187.5 230.363281 L 185.628906 229.375 L 185.230469 229.164062 L 184.832031 229.390625 L 182.46875 230.75 L 180.511719 229.84375 L 180.105469 229.65625 L 179.726562 229.890625 L 178.097656 230.902344 L 176.777344 229.925781 L 176.308594 229.582031 L 175.828125 229.90625 L 174.589844 230.738281 L 173.742188 230.117188 L 173.316406 229.800781 L 172.855469 230.054688 L 171.5 230.792969 L 171.003906 230.480469 C 170.914062 229.8125 170.734375 228.710938 170.359375 227.015625 C 169.628906 223.699219 164.304688 223.367188 164.304688 223.367188 L 161.308594 223 L 161.308594 222.996094 C 161.308594 222.996094 160.640625 222.785156 160.640625 222.785156 C 160.625 222.777344 154.414062 220.792969 153.300781 219.660156 C 152.59375 218.941406 156.359375 212.507812 156.371094 212.488281 L 156.75 211.839844 L 156.285156 211.253906 C 155.828125 210.671875 155.25 210.078125 154.625 209.429688 C 151.996094 206.710938 148.382812 202.972656 150.976562 196.023438 C 151.074219 195.757812 151.050781 195.457031 150.949219 195.136719 L 151.097656 194.359375 C 151.242188 193.964844 151.347656 193.734375 151.390625 193.742188 C 151.421875 193.75 151.363281 193.707031 151.238281 193.632812 L 153.195312 183.5625 L 159.996094 176.144531 L 151.785156 182.941406 L 148.238281 191.441406 L 147.035156 179.582031 C 166.59375 162.796875 209.34375 163.601562 227.964844 179.582031 L 226.761719 191.441406 L 223.214844 182.941406 L 215.003906 176.144531 L 221.804688 183.5625 L 223.757812 193.632812 C 223.636719 193.707031 223.574219 193.75 223.609375 193.742188 C 223.648438 193.734375 223.757812 193.964844 223.902344 194.359375 L 224.050781 195.136719 C 223.949219 195.457031 223.925781 195.761719 224.023438 196.023438 C 226.617188 202.972656 223 206.710938 220.375 209.429688 C 219.746094 210.078125 219.167969 210.671875 218.714844 211.253906 L 218.25 211.839844 L 218.625 212.488281 C 218.636719 212.507812 222.402344 218.941406 221.699219 219.660156 Z M 271.550781 190.984375 C 272.253906 189.25 272.910156 187.183594 273.472656 184.730469 C 276.984375 169.433594 268.050781 151.90625 268.050781 151.90625 C 268.050781 151.90625 267.140625 152.652344 262.246094 155.472656 C 257.355469 158.292969 249.0625 160.308594 229.734375 162.9375 C 221.625 164.035156 153.371094 164.035156 145.261719 162.9375 C 125.933594 160.308594 117.644531 158.292969 112.75 155.472656 C 107.855469 152.652344 106.945312 151.90625 106.945312 151.90625 C 106.945312 151.90625 98.011719 169.433594 101.527344 184.730469 C 102.089844 187.183594 102.746094 189.246094 103.449219 190.984375 C 100.664062 185.421875 99.636719 178.695312 99.636719 172.335938 C 99.636719 162.046875 102.207031 152.894531 104.351562 151.285156 C 106.347656 149.789062 106.683594 149.945312 110.351562 151.691406 C 112.769531 152.84375 116.445312 154.59375 122.539062 156.910156 C 135.667969 162.3125 216.308594 162.519531 243.558594 159.160156 C 251.632812 158.164062 257.320312 155.179688 264.644531 151.691406 C 268.3125 149.945312 268.648438 149.789062 270.644531 151.285156 C 272.789062 152.894531 275.359375 162.046875 275.359375 172.335938 C 275.359375 178.695312 274.332031 185.421875 271.546875 190.984375 Z M 271.550781 190.984375 " fill-opacity="1" fill-rule="nonzero"/></g><path fill="#e34625" d="M 200.472656 178.730469 C 196.246094 177.597656 191.433594 179.011719 191.757812 184.148438 C 193.828125 181.253906 197.335938 180.140625 200.472656 178.730469 Z M 200.472656 178.730469 " fill-opacity="1" fill-rule="nonzero"/><path fill="#e34625" d="M 197.535156 252.542969 C 191.316406 247.75 183.6875 247.75 177.46875 252.542969 C 183.183594 251.21875 191.820312 251.21875 197.535156 252.542969 Z M 197.535156 252.542969 " fill-opacity="1" fill-rule="nonzero"/><path fill="#e34625" d="M 183.402344 184.148438 C 183.726562 179.011719 178.914062 177.597656 174.6875 178.730469 C 177.824219 180.140625 181.332031 181.253906 183.402344 184.148438 Z M 183.402344 184.148438 " fill-opacity="1" fill-rule="nonzero"/><path fill="#e34625" d="M 182.453125 196.132812 C 182.808594 195.234375 183 194.097656 183.09375 192.933594 C 183.332031 190.019531 182.949219 186.929688 182.949219 186.929688 C 181.375 180.460938 157.574219 186.929688 155.503906 189.75 C 153.429688 192.570312 153.097656 201.691406 155.503906 204.925781 C 157.90625 208.160156 164.292969 210.234375 171.753906 207.660156 C 173.496094 207.0625 174.9375 206.289062 176.140625 205.410156 C 173.359375 211.230469 165.84375 215.902344 165.84375 215.902344 C 165.84375 215.902344 172.601562 213.4375 176.5 208.816406 C 178.546875 206.386719 180.265625 202.121094 181.433594 198.621094 C 181.847656 197.703125 182.167969 196.851562 182.453125 196.136719 Z M 182.453125 196.132812 " fill-opacity="1" fill-rule="nonzero"/><path fill="#e34625" d="M 219.5 204.925781 C 221.90625 201.691406 221.574219 192.566406 219.5 189.75 C 217.429688 186.929688 193.628906 180.460938 192.054688 186.929688 C 192.054688 186.929688 191.671875 190.019531 191.910156 192.933594 C 192.003906 194.097656 192.195312 195.234375 192.550781 196.132812 C 192.832031 196.847656 193.152344 197.699219 193.570312 198.621094 C 194.738281 202.121094 196.457031 206.386719 198.503906 208.816406 C 202.402344 213.433594 209.160156 215.902344 209.160156 215.902344 C 209.160156 215.902344 201.644531 211.226562 198.863281 205.410156 C 200.066406 206.285156 201.507812 207.058594 203.246094 207.660156 C 210.710938 210.230469 217.09375 208.15625 219.5 204.921875 Z M 219.5 204.925781 " fill-opacity="1" fill-rule="nonzero"/><path fill="#e34625" d="M 187.589844 200.210938 C 184.601562 200.078125 179.261719 218.804688 179.292969 218.851562 C 179.539062 219.226562 184.515625 224.085938 184.554688 223.800781 C 184.589844 223.585938 186.613281 222.003906 187.578125 221.261719 C 188.542969 222.003906 190.570312 223.585938 190.601562 223.800781 C 190.644531 224.085938 195.617188 219.226562 195.867188 218.851562 C 195.945312 218.734375 190.578125 200.34375 187.589844 200.210938 Z M 187.589844 200.210938 " fill-opacity="1" fill-rule="nonzero"/><path fill="#e34625" d="M 214.898438 288.800781 C 222.285156 284.035156 227.976562 278.707031 224.597656 271.433594 L 224.40625 271.085938 C 224.324219 272.773438 223.722656 274.515625 222.699219 276.101562 C 219.382812 281.257812 215.226562 283.601562 210.054688 287.007812 C 203.808594 291.125 199.25 296.582031 200.65625 302.914062 C 202.285156 297.65625 209.742188 292.128906 214.898438 288.800781 Z M 214.898438 288.800781 " fill-opacity="1" fill-rule="nonzero"/><g fill="#e34625" fill-opacity="1"><g transform="translate(35.717414, 137.833527)"><g><path d="M -12.859375 -37.40625 L -13.34375 -36.96875 C -15.695312 -34.75 -16.972656 -32.4375 -17.171875 -30.03125 C -17.367188 -27.625 -16.066406 -24.929688 -13.265625 -21.953125 C -12.335938 -20.972656 -11.597656 -20.375 -11.046875 -20.15625 C -10.492188 -19.945312 -10.195312 -19.816406 -10.15625 -19.765625 C -11.582031 -18.421875 -12.925781 -17.710938 -14.1875 -17.640625 C -15.445312 -17.578125 -16.726562 -18.234375 -18.03125 -19.609375 C -19.789062 -21.484375 -20.9375 -23.628906 -21.46875 -26.046875 C -22 -28.472656 -21.703125 -31.113281 -20.578125 -33.96875 C -19.453125 -36.820312 -17.328125 -39.71875 -14.203125 -42.65625 C -12.460938 -44.300781 -10.4375 -45.910156 -8.125 -47.484375 C -6.15625 -48.796875 -4.515625 -50.070312 -3.203125 -51.3125 C -1.503906 -52.90625 -0.234375 -54.625 0.609375 -56.46875 C 2.171875 -54.695312 2.929688 -53.015625 2.890625 -51.421875 C 2.847656 -49.828125 2.023438 -48.273438 0.421875 -46.765625 C -0.429688 -45.960938 -1.34375 -45.226562 -2.3125 -44.5625 C -3.28125 -43.90625 -4.695312 -43 -6.5625 -41.84375 L 11.9375 -11.234375 L 6.21875 -5.859375 Z M -12.859375 -37.40625 "/></g></g></g><g fill="#e34625" fill-opacity="1"><g transform="translate(53.457089, 121.595804)"><g><path d="M 6.375 -4.46875 C 4.25 -2.84375 2.164062 -2.132812 0.125 -2.34375 C -1.90625 -2.550781 -3.820312 -3.832031 -5.625 -6.1875 C -7.15625 -8.175781 -8.445312 -10.664062 -9.5 -13.65625 C -10.550781 -16.644531 -10.863281 -19.679688 -10.4375 -22.765625 C -10.019531 -25.847656 -8.457031 -28.429688 -5.75 -30.515625 C -2.582031 -32.941406 0.0546875 -32.773438 2.171875 -30.015625 C 3.421875 -28.398438 4.097656 -26.5625 4.203125 -24.5 C 4.316406 -22.4375 3.925781 -20.410156 3.03125 -18.421875 C 2.132812 -16.429688 0.867188 -14.71875 -0.765625 -13.28125 C -0.160156 -12.363281 0.25 -11.765625 0.46875 -11.484375 C 1.550781 -10.066406 2.53125 -9.289062 3.40625 -9.15625 C 4.289062 -9.03125 5.28125 -9.390625 6.375 -10.234375 C 7.925781 -11.421875 8.976562 -12.796875 9.53125 -14.359375 C 10.09375 -15.929688 10.476562 -17.960938 10.6875 -20.453125 L 12.15625 -21.578125 C 13.03125 -13.796875 11.101562 -8.09375 6.375 -4.46875 Z M -2.015625 -15.59375 C -0.992188 -16.476562 -0.265625 -17.632812 0.171875 -19.0625 C 0.609375 -20.5 0.710938 -21.976562 0.484375 -23.5 C 0.265625 -25.019531 -0.296875 -26.375 -1.203125 -27.5625 C -2.109375 -28.738281 -2.921875 -29.050781 -3.640625 -28.5 C -4.691406 -27.695312 -5.015625 -26.003906 -4.609375 -23.421875 C -4.203125 -20.847656 -3.335938 -18.238281 -2.015625 -15.59375 Z M -2.015625 -15.59375 "/></g></g></g><g fill="#e34625" fill-opacity="1"><g transform="translate(67.464925, 110.500493)"><g><path d="M 16.890625 -9.96875 C 15.472656 -9.09375 13.890625 -9.015625 12.140625 -9.734375 C 10.398438 -10.460938 8.445312 -12.082031 6.28125 -14.59375 L 4.65625 -2.84375 L 1.3125 -0.796875 L 4.203125 -17.140625 L 0.265625 -21.875 C -0.910156 -23.238281 -1.789062 -24.101562 -2.375 -24.46875 C -2.96875 -24.84375 -3.460938 -24.910156 -3.859375 -24.671875 C -4.484375 -24.285156 -4.921875 -23.425781 -5.171875 -22.09375 C -5.421875 -20.769531 -5.378906 -19.023438 -5.046875 -16.859375 C -4.722656 -14.703125 -4.09375 -12.25 -3.15625 -9.5 L -5.09375 -8.3125 C -6.78125 -13.070312 -7.632812 -17.46875 -7.65625 -21.5 C -7.675781 -25.53125 -6.257812 -28.421875 -3.40625 -30.171875 C -1.738281 -31.191406 -0.1875 -31.382812 1.25 -30.75 C 2.6875 -30.125 3.929688 -29.113281 4.984375 -27.71875 L 7.578125 -24.453125 C 7.992188 -26.742188 8.195312 -28.625 8.1875 -30.09375 C 8.1875 -31.570312 7.960938 -32.742188 7.515625 -33.609375 C 7.117188 -33.285156 6.878906 -33.097656 6.796875 -33.046875 C 6.015625 -32.566406 5.304688 -32.460938 4.671875 -32.734375 C 4.035156 -33.003906 3.484375 -33.523438 3.015625 -34.296875 C 2.535156 -35.066406 2.484375 -35.820312 2.859375 -36.5625 C 3.234375 -37.3125 3.867188 -37.960938 4.765625 -38.515625 C 5.566406 -39.003906 6.460938 -38.960938 7.453125 -38.390625 C 8.441406 -37.828125 9.28125 -36.988281 9.96875 -35.875 C 10.789062 -34.507812 11.160156 -32.851562 11.078125 -30.90625 C 10.992188 -28.957031 10.535156 -25.921875 9.703125 -21.796875 L 12.125 -18.796875 C 13.21875 -17.421875 14.171875 -16.566406 14.984375 -16.234375 C 15.804688 -15.910156 16.632812 -16.003906 17.46875 -16.515625 C 18.363281 -17.066406 18.96875 -17.957031 19.28125 -19.1875 C 19.59375 -20.425781 19.550781 -21.753906 19.15625 -23.171875 L 21.09375 -24.359375 C 21.96875 -20.460938 21.914062 -17.351562 20.9375 -15.03125 C 19.96875 -12.71875 18.617188 -11.03125 16.890625 -9.96875 Z M 16.890625 -9.96875 "/></g></g></g><g fill="#e34625" fill-opacity="1"><g transform="translate(88.747662, 97.763229)"><g><path d="M 6.0625 -2.453125 C 4.195312 -1.578125 2.335938 -1.492188 0.484375 -2.203125 C -1.359375 -2.910156 -2.914062 -4.628906 -4.1875 -7.359375 C -5.3125 -9.796875 -6.007812 -12.582031 -6.28125 -15.71875 C -6.5625 -18.851562 -6.171875 -21.796875 -5.109375 -24.546875 C -4.046875 -27.304688 -2.175781 -29.304688 0.5 -30.546875 C 1.851562 -31.171875 2.960938 -31.40625 3.828125 -31.25 C 4.703125 -31.09375 5.316406 -30.632812 5.671875 -29.875 L 5.828125 -29.53125 L 5.171875 -32.40625 L 12.28125 -35.703125 L 16.5 -17.25 C 16.601562 -16.6875 16.785156 -16.128906 17.046875 -15.578125 C 17.703125 -14.160156 18.703125 -13.765625 20.046875 -14.390625 C 20.972656 -14.816406 21.570312 -15.613281 21.84375 -16.78125 C 22.125 -17.957031 22.144531 -19.328125 21.90625 -20.890625 L 23.984375 -21.84375 C 24.410156 -17.726562 24.019531 -14.617188 22.8125 -12.515625 C 21.601562 -10.410156 20.09375 -8.9375 18.28125 -8.09375 C 16.894531 -7.457031 15.601562 -7.332031 14.40625 -7.71875 C 13.207031 -8.101562 12.179688 -9 11.328125 -10.40625 C 11.003906 -8.613281 10.445312 -7.023438 9.65625 -5.640625 C 8.875 -4.253906 7.675781 -3.191406 6.0625 -2.453125 Z M 7.0625 -8.734375 C 7.882812 -9.117188 8.519531 -9.878906 8.96875 -11.015625 C 9.414062 -12.160156 9.476562 -13.476562 9.15625 -14.96875 L 6.359375 -27.25 C 6.160156 -27.675781 5.796875 -28.019531 5.265625 -28.28125 C 4.742188 -28.539062 4.140625 -28.507812 3.453125 -28.1875 C 2.128906 -27.570312 1.296875 -26.253906 0.953125 -24.234375 C 0.609375 -22.210938 0.640625 -19.984375 1.046875 -17.546875 C 1.453125 -15.117188 2.039062 -13.082031 2.8125 -11.4375 C 3.570312 -9.800781 4.296875 -8.859375 4.984375 -8.609375 C 5.679688 -8.367188 6.375 -8.410156 7.0625 -8.734375 Z M 7.0625 -8.734375 "/></g></g></g><g fill="#e34625" fill-opacity="1"><g transform="translate(110.126122, 87.880955)"><g><path d="M 5.953125 -1.75 C 4.316406 -1.175781 2.820312 -1.003906 1.46875 -1.234375 C 0.113281 -1.472656 -1.015625 -2 -1.921875 -2.8125 C -2.835938 -3.632812 -3.488281 -4.59375 -3.875 -5.6875 C -4.269531 -6.8125 -4.347656 -7.882812 -4.109375 -8.90625 C -3.867188 -9.9375 -3.441406 -10.769531 -2.828125 -11.40625 C -2.335938 -14.289062 -2.023438 -17.128906 -1.890625 -19.921875 C -1.765625 -22.722656 -1.757812 -25.695312 -1.875 -28.84375 L 5.359375 -32.5625 C 7.078125 -28.25 9.039062 -23.609375 11.25 -18.640625 C 12.15625 -16.648438 12.769531 -15.195312 13.09375 -14.28125 C 13.375 -13.488281 13.535156 -12.8125 13.578125 -12.25 C 14.859375 -13.738281 15.789062 -15.03125 16.375 -16.125 L 18.53125 -16.875 C 17.226562 -13.570312 15.363281 -10.507812 12.9375 -7.6875 C 12.320312 -6.269531 11.375 -5.054688 10.09375 -4.046875 C 8.8125 -3.035156 7.429688 -2.269531 5.953125 -1.75 Z M 2.890625 -5.21875 C 4.148438 -5.664062 5.070312 -6.421875 5.65625 -7.484375 C 6.25 -8.546875 6.25 -9.914062 5.65625 -11.59375 C 5.289062 -12.613281 4.6875 -14.007812 3.84375 -15.78125 C 2.113281 -19.570312 0.960938 -22.117188 0.390625 -23.421875 C 0.523438 -20.410156 0.28125 -16.679688 -0.34375 -12.234375 C 0.59375 -12.109375 1.203125 -11.648438 1.484375 -10.859375 C 1.710938 -10.210938 1.703125 -9.554688 1.453125 -8.890625 C 1.210938 -8.222656 0.757812 -7.773438 0.09375 -7.546875 C -0.613281 -7.285156 -1.148438 -7.34375 -1.515625 -7.71875 C -1.078125 -6.488281 -0.507812 -5.664062 0.1875 -5.25 C 0.882812 -4.84375 1.785156 -4.832031 2.890625 -5.21875 Z M 2.890625 -5.21875 "/></g></g></g><g fill="#e34625" fill-opacity="1"><g transform="translate(125.060358, 82.016049)"><g/></g></g><g fill="#e34625" fill-opacity="1"><g transform="translate(134.70043, 78.873886)"><g><path d="M 12.90625 -1.59375 C 8.875 -0.8125 5.710938 -1.253906 3.421875 -2.921875 C 1.140625 -4.597656 -0.445312 -7.789062 -1.34375 -12.5 C -2.070312 -16.238281 -2.21875 -20.382812 -1.78125 -24.9375 C -1.34375 -29.5 -0.0234375 -33.59375 2.171875 -37.21875 C 4.378906 -40.84375 7.644531 -43.066406 11.96875 -43.890625 C 14.632812 -44.410156 16.898438 -44.238281 18.765625 -43.375 C 20.640625 -42.507812 21.8125 -40.863281 22.28125 -38.4375 C 22.570312 -36.90625 22.5 -35.644531 22.0625 -34.65625 C 21.625 -33.675781 20.765625 -33.0625 19.484375 -32.8125 C 18.191406 -32.5625 17.082031 -32.828125 16.15625 -33.609375 C 16.738281 -34.054688 17.1875 -34.8125 17.5 -35.875 C 17.8125 -36.9375 17.867188 -37.984375 17.671875 -39.015625 C 17.492188 -39.972656 17.085938 -40.707031 16.453125 -41.21875 C 15.816406 -41.726562 14.925781 -41.875 13.78125 -41.65625 C 11.894531 -41.289062 10.347656 -39.648438 9.140625 -36.734375 C 7.929688 -33.816406 7.175781 -30.296875 6.875 -26.171875 C 6.570312 -22.046875 6.769531 -18.164062 7.46875 -14.53125 C 7.988281 -11.820312 8.847656 -9.84375 10.046875 -8.59375 C 11.242188 -7.34375 13.054688 -6.953125 15.484375 -7.421875 C 17.585938 -7.828125 19.441406 -8.664062 21.046875 -9.9375 C 22.660156 -11.207031 23.945312 -12.816406 24.90625 -14.765625 L 26.21875 -14.46875 C 25.769531 -12.050781 24.8125 -9.925781 23.34375 -8.09375 C 21.882812 -6.257812 20.222656 -4.800781 18.359375 -3.71875 C 16.503906 -2.644531 14.6875 -1.9375 12.90625 -1.59375 Z M 12.90625 -1.59375 "/></g></g></g><g fill="#e34625" fill-opacity="1"><g transform="translate(158.967899, 73.987638)"><g><path d="M 7.953125 -0.359375 C 5.265625 -0.160156 3.09375 -0.691406 1.4375 -1.953125 C -0.21875 -3.210938 -1.15625 -5.332031 -1.375 -8.3125 C -1.550781 -10.769531 -1.238281 -13.535156 -0.4375 -16.609375 C 0.363281 -19.691406 1.804688 -22.410156 3.890625 -24.765625 C 5.984375 -27.117188 8.734375 -28.414062 12.140625 -28.65625 C 16.773438 -28.988281 19.300781 -26.265625 19.71875 -20.484375 L 19.71875 -20.421875 C 19.820312 -20.398438 20.019531 -20.398438 20.3125 -20.421875 C 21.507812 -20.503906 22.863281 -20.921875 24.375 -21.671875 C 25.882812 -22.421875 27.242188 -23.285156 28.453125 -24.265625 L 29.046875 -22.859375 C 28.078125 -21.648438 26.773438 -20.59375 25.140625 -19.6875 C 23.515625 -18.789062 21.722656 -18.101562 19.765625 -17.625 C 19.703125 -14.3125 19.160156 -11.378906 18.140625 -8.828125 C 17.117188 -6.285156 15.71875 -4.273438 13.9375 -2.796875 C 12.15625 -1.328125 10.160156 -0.515625 7.953125 -0.359375 Z M 9.75 -5.40625 C 10.625 -5.46875 11.460938 -6.03125 12.265625 -7.09375 C 13.066406 -8.15625 13.726562 -9.566406 14.25 -11.328125 C 14.78125 -13.097656 15.113281 -15.039062 15.25 -17.15625 C 14.269531 -17.300781 13.734375 -18.023438 13.640625 -19.328125 C 13.535156 -20.816406 14.019531 -21.835938 15.09375 -22.390625 C 14.9375 -23.578125 14.695312 -24.382812 14.375 -24.8125 C 14.050781 -25.25 13.53125 -25.441406 12.8125 -25.390625 C 11.613281 -25.304688 10.515625 -24.351562 9.515625 -22.53125 C 8.515625 -20.707031 7.757812 -18.554688 7.25 -16.078125 C 6.738281 -13.609375 6.550781 -11.445312 6.6875 -9.59375 C 6.8125 -7.863281 7.09375 -6.710938 7.53125 -6.140625 C 7.96875 -5.566406 8.707031 -5.320312 9.75 -5.40625 Z M 9.75 -5.40625 "/></g></g></g><g fill="#e34625" fill-opacity="1"><g transform="translate(183.144296, 72.166745)"><g><path d="M 6.515625 0.609375 C 4.453125 0.523438 2.757812 -0.253906 1.4375 -1.734375 C 0.125 -3.210938 -0.460938 -5.453125 -0.328125 -8.453125 C -0.210938 -11.140625 0.441406 -13.941406 1.640625 -16.859375 C 2.835938 -19.773438 4.539062 -22.207031 6.75 -24.15625 C 8.957031 -26.101562 11.535156 -27.015625 14.484375 -26.890625 C 15.972656 -26.828125 17.066406 -26.523438 17.765625 -25.984375 C 18.472656 -25.453125 18.804688 -24.769531 18.765625 -23.9375 L 18.765625 -23.71875 L 21.96875 -36.109375 L 30.078125 -36.859375 L 22.53125 -7.734375 C 22.363281 -7.203125 22.265625 -6.628906 22.234375 -6.015625 C 22.203125 -5.285156 22.351562 -4.757812 22.6875 -4.4375 C 23.019531 -4.113281 23.585938 -3.929688 24.390625 -3.890625 C 25.390625 -3.847656 26.28125 -4.25 27.0625 -5.09375 C 27.84375 -5.9375 28.484375 -7.066406 28.984375 -8.484375 L 31.28125 -8.390625 C 28.78125 -1.992188 24.992188 1.09375 19.921875 0.875 C 18.429688 0.800781 17.238281 0.347656 16.34375 -0.484375 C 15.457031 -1.316406 14.9375 -2.503906 14.78125 -4.046875 C 13.78125 -2.628906 12.59375 -1.476562 11.21875 -0.59375 C 9.851562 0.289062 8.285156 0.691406 6.515625 0.609375 Z M 10.28125 -4.515625 C 11.15625 -4.472656 12.050781 -4.832031 12.96875 -5.59375 C 13.894531 -6.363281 14.554688 -7.441406 14.953125 -8.828125 L 14.953125 -9.09375 L 18.171875 -21.453125 C 17.890625 -22.734375 17.171875 -23.398438 16.015625 -23.453125 C 14.554688 -23.515625 13.207031 -22.726562 11.96875 -21.09375 C 10.738281 -19.457031 9.75 -17.460938 9 -15.109375 C 8.25 -12.753906 7.835938 -10.671875 7.765625 -8.859375 C 7.679688 -7.054688 7.890625 -5.890625 8.390625 -5.359375 C 8.890625 -4.828125 9.519531 -4.546875 10.28125 -4.515625 Z M 10.28125 -4.515625 "/></g></g></g><g fill="#e34625" fill-opacity="1"><g transform="translate(207.39992, 73.318217)"><g><path d="M 12.796875 -28.796875 C 11.609375 -28.941406 10.65625 -29.476562 9.9375 -30.40625 C 9.226562 -31.34375 8.945312 -32.410156 9.09375 -33.609375 C 9.25 -34.796875 9.789062 -35.757812 10.71875 -36.5 C 11.644531 -37.238281 12.703125 -37.535156 13.890625 -37.390625 C 15.078125 -37.234375 16.039062 -36.679688 16.78125 -35.734375 C 17.53125 -34.785156 17.828125 -33.71875 17.671875 -32.53125 C 17.523438 -31.332031 16.972656 -30.367188 16.015625 -29.640625 C 15.054688 -28.921875 13.984375 -28.640625 12.796875 -28.796875 Z M 5.296875 1 C 3.578125 0.78125 2.253906 0.0625 1.328125 -1.15625 C 0.398438 -2.375 0.0703125 -4.0625 0.34375 -6.21875 C 0.457031 -7.125 0.75 -8.273438 1.21875 -9.671875 L 7.09375 -26.546875 L 14.875 -25.5625 L 8.65625 -7.703125 C 8.4375 -7.160156 8.289062 -6.582031 8.21875 -5.96875 C 8.125 -5.25 8.226562 -4.710938 8.53125 -4.359375 C 8.84375 -4.015625 9.394531 -3.796875 10.1875 -3.703125 C 11.226562 -3.566406 12.253906 -3.882812 13.265625 -4.65625 C 14.273438 -5.425781 15.070312 -6.488281 15.65625 -7.84375 L 17.90625 -7.5625 C 16.082031 -3.84375 14.039062 -1.421875 11.78125 -0.296875 C 9.519531 0.828125 7.359375 1.257812 5.296875 1 Z M 5.296875 1 "/></g></g></g><g fill="#e34625" fill-opacity="1"><g transform="translate(217.192253, 74.138951)"><g><path d="M 19.1875 4.34375 C 17.019531 3.882812 15.546875 2.96875 14.765625 1.59375 C 13.992188 0.226562 13.785156 -1.300781 14.140625 -3 C 14.296875 -3.75 14.5625 -4.578125 14.9375 -5.484375 C 15.3125 -6.390625 15.6875 -7.265625 16.0625 -8.109375 C 16.445312 -8.953125 16.695312 -9.5 16.8125 -9.75 C 17.363281 -10.925781 17.890625 -12.09375 18.390625 -13.25 C 18.898438 -14.40625 19.226562 -15.351562 19.375 -16.09375 C 19.757812 -17.914062 19.3125 -18.960938 18.03125 -19.234375 C 17.101562 -19.421875 16.1875 -19.132812 15.28125 -18.375 C 14.375 -17.613281 13.5625 -16.546875 12.84375 -15.171875 L 5.65625 1.171875 L -2.015625 -0.421875 L 9.1875 -25.90625 L 16.859375 -24.296875 L 15.703125 -21.65625 C 17.890625 -23.269531 20.175781 -23.832031 22.5625 -23.34375 C 24.363281 -22.96875 25.695312 -22.171875 26.5625 -20.953125 C 27.425781 -19.734375 27.644531 -18.109375 27.21875 -16.078125 C 27 -15.046875 26.632812 -13.925781 26.125 -12.71875 C 25.625 -11.507812 24.953125 -10.046875 24.109375 -8.328125 C 23.585938 -7.296875 23.101562 -6.273438 22.65625 -5.265625 C 22.207031 -4.265625 21.921875 -3.460938 21.796875 -2.859375 C 21.640625 -2.148438 21.679688 -1.5625 21.921875 -1.09375 C 22.171875 -0.632812 22.6875 -0.320312 23.46875 -0.15625 C 24.53125 0.0625 25.457031 -0.144531 26.25 -0.78125 C 27.050781 -1.414062 27.9375 -2.46875 28.90625 -3.9375 L 31.15625 -3.46875 C 29.03125 0.164062 26.96875 2.472656 24.96875 3.453125 C 22.96875 4.429688 21.039062 4.726562 19.1875 4.34375 Z M 19.1875 4.34375 "/></g></g></g><g fill="#e34625" fill-opacity="1"><g transform="translate(239.274811, 78.627319)"><g><path d="M 4.90625 15.9375 C 3.25 15.394531 2.007812 14.507812 1.1875 13.28125 C 0.375 12.0625 0.238281 10.640625 0.78125 9.015625 C 1.414062 7.054688 2.722656 5.738281 4.703125 5.0625 C 6.679688 4.394531 9.023438 4.066406 11.734375 4.078125 L 13.25 1.546875 C 10.863281 2.867188 8.476562 3.140625 6.09375 2.359375 C 4.132812 1.710938 2.71875 0.503906 1.84375 -1.265625 C 0.976562 -3.046875 1.019531 -5.367188 1.96875 -8.234375 C 2.800781 -10.785156 4.1875 -13.300781 6.125 -15.78125 C 8.070312 -18.269531 10.375 -20.15625 13.03125 -21.4375 C 15.695312 -22.71875 18.425781 -22.894531 21.21875 -21.96875 C 22.632812 -21.507812 23.601562 -20.925781 24.125 -20.21875 C 24.65625 -19.507812 24.789062 -18.757812 24.53125 -17.96875 L 24.4375 -17.65625 L 25.875 -20.15625 L 33.328125 -17.71875 L 20.328125 4.625 C 22.160156 4.613281 23.757812 4.21875 25.125 3.4375 C 26.488281 2.664062 27.875 1.304688 29.28125 -0.640625 L 31.453125 0.078125 C 29.515625 2.835938 27.515625 4.671875 25.453125 5.578125 C 23.390625 6.492188 21.273438 6.882812 19.109375 6.75 L 17.109375 10.203125 C 15.316406 13.328125 13.367188 15.238281 11.265625 15.9375 C 9.160156 16.632812 7.039062 16.632812 4.90625 15.9375 Z M 11.125 -1.5625 C 11.914062 -1.300781 12.84375 -1.394531 13.90625 -1.84375 C 14.96875 -2.300781 15.863281 -3.097656 16.59375 -4.234375 L 23.265625 -15.625 C 23.398438 -16.039062 23.363281 -16.519531 23.15625 -17.0625 C 22.945312 -17.613281 22.484375 -18.007812 21.765625 -18.25 C 20.378906 -18.695312 18.867188 -18.300781 17.234375 -17.0625 C 15.609375 -15.820312 14.113281 -14.171875 12.75 -12.109375 C 11.382812 -10.054688 10.421875 -8.171875 9.859375 -6.453125 C 9.296875 -4.722656 9.179688 -3.53125 9.515625 -2.875 C 9.859375 -2.226562 10.394531 -1.789062 11.125 -1.5625 Z M 5.046875 11.53125 C 5.628906 11.71875 6.328125 11.503906 7.140625 10.890625 C 7.960938 10.273438 8.769531 9.28125 9.5625 7.90625 L 10.359375 6.5 C 6.566406 6.632812 4.394531 7.550781 3.84375 9.25 C 3.6875 9.6875 3.707031 10.128906 3.90625 10.578125 C 4.113281 11.023438 4.492188 11.34375 5.046875 11.53125 Z M 5.046875 11.53125 "/></g></g></g><g fill="#e34625" fill-opacity="1"><g transform="translate(262.409911, 86.715153)"><g/></g></g><g fill="#e34625" fill-opacity="1"><g transform="translate(271.892888, 90.303573)"><g><path d="M 11.0625 6.828125 C 7.425781 4.910156 5.238281 2.585938 4.5 -0.140625 C 3.769531 -2.867188 4.523438 -6.351562 6.765625 -10.59375 C 8.554688 -13.957031 11.046875 -17.273438 14.234375 -20.546875 C 17.429688 -23.828125 21.023438 -26.1875 25.015625 -27.625 C 29.003906 -29.070312 32.941406 -28.769531 36.828125 -26.71875 C 39.222656 -25.4375 40.878906 -23.875 41.796875 -22.03125 C 42.722656 -20.195312 42.609375 -18.1875 41.453125 -16 C 40.710938 -14.625 39.863281 -13.691406 38.90625 -13.203125 C 37.945312 -12.710938 36.894531 -12.769531 35.75 -13.375 C 34.582031 -13.988281 33.882812 -14.890625 33.65625 -16.078125 C 34.382812 -16.054688 35.203125 -16.359375 36.109375 -16.984375 C 37.023438 -17.617188 37.726562 -18.398438 38.21875 -19.328125 C 38.675781 -20.191406 38.816406 -21.019531 38.640625 -21.8125 C 38.472656 -22.613281 37.875 -23.285156 36.84375 -23.828125 C 35.132812 -24.722656 32.894531 -24.414062 30.125 -22.90625 C 27.351562 -21.394531 24.554688 -19.125 21.734375 -16.09375 C 18.921875 -13.0625 16.648438 -9.910156 14.921875 -6.640625 C 13.628906 -4.203125 13.0625 -2.117188 13.21875 -0.390625 C 13.375 1.328125 14.539062 2.757812 16.71875 3.90625 C 18.613281 4.914062 20.582031 5.425781 22.625 5.4375 C 24.675781 5.457031 26.679688 5.007812 28.640625 4.09375 L 29.5 5.140625 C 27.632812 6.734375 25.554688 7.785156 23.265625 8.296875 C 20.972656 8.816406 18.765625 8.914062 16.640625 8.59375 C 14.515625 8.269531 12.65625 7.679688 11.0625 6.828125 Z M 11.0625 6.828125 "/></g></g></g><g fill="#e34625" fill-opacity="1"><g transform="translate(294.454797, 101.526985)"><g><path d="M 4.359375 3.203125 C 2.898438 2.253906 2.007812 1.035156 1.6875 -0.453125 C 1.375 -1.953125 1.804688 -3.617188 2.984375 -5.453125 C 3.472656 -6.222656 4.234375 -7.140625 5.265625 -8.203125 L 24.9375 -27.984375 L 32.3125 -24.546875 L 11.125 -3.203125 C 10.707031 -2.828125 10.332031 -2.378906 10 -1.859375 C 9.601562 -1.242188 9.460938 -0.710938 9.578125 -0.265625 C 9.703125 0.171875 10.101562 0.609375 10.78125 1.046875 C 11.664062 1.609375 12.726562 1.757812 13.96875 1.5 C 15.21875 1.25 16.394531 0.640625 17.5 -0.328125 L 19.421875 0.90625 C 16.171875 3.46875 13.285156 4.769531 10.765625 4.8125 C 8.242188 4.851562 6.109375 4.316406 4.359375 3.203125 Z M 4.359375 3.203125 "/></g></g></g><g fill="#e34625" fill-opacity="1"><g transform="translate(302.790745, 106.609564)"><g><path d="M 4.078125 3.53125 C 2.703125 2.476562 1.914062 1.191406 1.71875 -0.328125 C 1.53125 -1.847656 2.097656 -3.472656 3.421875 -5.203125 C 3.972656 -5.929688 4.800781 -6.78125 5.90625 -7.75 L 19.453125 -19.40625 L 25.703125 -14.65625 L 11.34375 -2.3125 C 10.925781 -1.9375 10.578125 -1.5625 10.296875 -1.1875 C 9.390625 0 9.367188 0.921875 10.234375 1.578125 C 11.046875 2.191406 12 2.378906 13.09375 2.140625 C 14.1875 1.898438 15.359375 1.320312 16.609375 0.40625 L 30.15625 -11.25 L 36.390625 -6.5 L 22.046875 5.84375 C 21.597656 6.1875 21.1875 6.601562 20.8125 7.09375 C 20.375 7.675781 20.195312 8.191406 20.28125 8.640625 C 20.363281 9.097656 20.722656 9.570312 21.359375 10.0625 C 22.171875 10.6875 23.140625 10.875 24.265625 10.625 C 25.390625 10.375 26.5625 9.804688 27.78125 8.921875 L 29.59375 10.3125 C 26.15625 12.613281 23.222656 13.722656 20.796875 13.640625 C 18.378906 13.554688 16.375 12.90625 14.78125 11.6875 C 13.539062 10.738281 12.816406 9.632812 12.609375 8.375 C 12.398438 7.125 12.742188 5.765625 13.640625 4.296875 C 11.453125 5.128906 9.59375 5.425781 8.0625 5.1875 C 6.539062 4.945312 5.210938 4.394531 4.078125 3.53125 Z M 4.078125 3.53125 "/></g></g></g><g fill="#e34625" fill-opacity="1"><g transform="translate(320.766644, 121.152579)"><g><path d="M 5.03125 5.234375 C 3.25 3.523438 2.300781 1.78125 2.1875 0 C 2.082031 -1.78125 2.789062 -3.472656 4.3125 -5.078125 C 5.0625 -5.867188 5.863281 -6.53125 6.71875 -7.0625 L 29.71875 -22.828125 L 36.34375 -18.078125 L 26 -11 C 27.15625 -10.738281 28.035156 -10.453125 28.640625 -10.140625 C 29.253906 -9.835938 29.796875 -9.460938 30.265625 -9.015625 C 33.378906 -6.066406 32.800781 -2.34375 28.53125 2.15625 C 26.8125 3.96875 24.617188 5.578125 21.953125 6.984375 C 19.296875 8.390625 16.457031 9.054688 13.4375 8.984375 C 10.414062 8.921875 7.613281 7.671875 5.03125 5.234375 Z M 10.875 3.5 C 11.6875 4.269531 12.929688 4.484375 14.609375 4.140625 C 16.285156 3.804688 18.054688 3.082031 19.921875 1.96875 C 21.785156 0.851562 23.378906 -0.394531 24.703125 -1.78125 C 25.703125 -2.832031 26.363281 -3.90625 26.6875 -5 C 27.019531 -6.09375 26.851562 -6.953125 26.1875 -7.578125 C 25.800781 -7.941406 25.304688 -8.296875 24.703125 -8.640625 C 24.109375 -8.984375 23.601562 -9.125 23.1875 -9.0625 L 11.5 -1.109375 C 11.113281 -0.867188 10.785156 -0.609375 10.515625 -0.328125 C 9.359375 0.890625 9.476562 2.164062 10.875 3.5 Z M 10.875 3.5 "/></g></g></g></svg>